<svg width="180" height="48" viewBox="0 0 180 48" fill="none" xmlns="http://www.w3.org/2000/svg">
<g opacity="0.86">
<path d="M47.2273 32.3915C47.2122 32.4066 47.197 32.4218 47.1819 32.437C47.1199 32.4978 47.0441 32.524 46.9587 32.5281C46.8925 32.5226 46.8264 32.5171 46.7603 32.5019C46.6845 32.4853 46.6197 32.4715 46.5481 32.4605C46.4268 32.4384 46.3152 32.3873 46.2036 32.3473C46.1375 32.321 46.0727 32.2962 46.0121 32.2548C45.9667 32.2189 45.9212 32.1926 45.8799 32.1526C45.8358 32.096 45.7903 32.0504 45.7393 31.9994C45.7352 32.0049 45.7352 32.0049 45.7393 32.0104C45.6883 31.9593 45.6429 31.9124 45.5974 31.8668C45.5175 31.7867 45.472 31.6887 45.4376 31.5921C45.4018 31.4968 45.3659 31.3988 45.3315 31.3132C45.286 31.1848 45.2667 31.0633 45.2778 30.9308C45.2833 30.8852 45.2778 30.8396 45.2778 30.7899C45.2778 30.7388 45.2833 30.6933 45.2791 30.6367C45.2695 30.5345 45.2902 30.4337 45.326 30.3385C45.377 30.1755 45.4431 30.0278 45.5451 29.8967C45.5809 29.8414 45.6263 29.7848 45.6622 29.7296C45.7187 29.6343 45.7903 29.5529 45.8771 29.477C45.9419 29.4217 46.019 29.3665 46.0893 29.314C46.1816 29.2643 46.2725 29.2146 46.3745 29.1746C46.4241 29.1539 46.4806 29.1401 46.5371 29.1249C46.628 29.1138 46.7134 29.0987 46.8057 29.0697C46.938 29.0282 47.0744 29.0255 47.2163 29.0462C47.3417 29.0614 47.4643 29.0835 47.591 29.129C47.7013 29.1691 47.8184 29.216 47.9286 29.2768C48.0044 29.3223 48.0815 29.3693 48.1463 29.4355C48.167 29.4562 48.1973 29.477 48.2221 29.5018L48.2827 29.5626C48.3433 29.6247 48.3984 29.6909 48.4494 29.7627C48.5197 29.8539 48.5748 29.9602 48.6202 30.0775C48.6905 30.2501 48.7194 30.4323 48.7291 30.627C48.7291 30.6767 48.7236 30.7223 48.7236 30.7734C48.7236 30.8341 48.6974 30.8893 48.663 30.9459C48.5858 31.073 48.4026 31.1323 48.2565 31.0357C48.1504 30.9694 48.0953 30.8714 48.1008 30.7457C48.1008 30.6643 48.0912 30.5828 48.076 30.4959C48.0457 30.3744 48.0016 30.257 47.93 30.1562C47.8652 30.0485 47.7798 29.9616 47.6889 29.8898C47.547 29.7779 47.3899 29.7117 47.208 29.6909C47.1419 29.6854 47.0771 29.6799 47.011 29.684C46.8829 29.6896 46.752 29.6992 46.6349 29.7434C46.5384 29.7793 46.4571 29.8304 46.3814 29.8953C46.3056 29.9505 46.2395 30.0168 46.1733 30.0817C46.1017 30.1631 46.0355 30.2391 45.9901 30.3357C45.9543 30.4103 45.9226 30.4931 45.9171 30.5801C45.9074 30.6298 45.9019 30.6753 45.9019 30.7264C45.8854 30.8217 45.8964 30.9142 45.9102 31.0108C45.9405 31.1834 46.0052 31.3408 46.1168 31.483C46.1361 31.5134 46.1568 31.5451 46.1871 31.5741C46.2422 31.6307 46.3028 31.6721 46.3731 31.7136C46.4544 31.7536 46.5357 31.7936 46.6225 31.8213C46.7286 31.8558 46.8388 31.8779 46.9559 31.8723C46.9917 31.8779 47.022 31.8779 47.0565 31.8834C47.0771 31.8944 47.0923 31.9 47.113 31.9082C47.208 31.9648 47.2797 32.0366 47.2935 32.1526C47.3086 32.2396 47.2838 32.3252 47.2273 32.3915Z" fill="#141613"/>
<path d="M49.6417 35.0072C49.6045 35.1066 49.5329 35.159 49.4351 35.1894C49.4199 35.1949 49.4103 35.1963 49.3951 35.2032C49.3689 35.2005 49.3496 35.2018 49.3331 35.1991C49.2615 35.1949 49.2036 35.1742 49.1485 35.1287C49.1044 35.0928 49.07 35.0541 49.019 35.0375C48.9363 34.9699 48.8481 34.9064 48.7751 34.8263C48.7517 34.7987 48.72 34.7697 48.6924 34.7476C48.5988 34.6689 48.5037 34.5902 48.4059 34.5088C48.3948 34.4991 48.3824 34.4894 48.3673 34.4867C48.3246 34.4604 48.286 34.4273 48.2571 34.3942C48.2516 34.3804 48.2392 34.3707 48.2295 34.361C48.1785 34.3196 48.1441 34.2616 48.1179 34.2036C48.0738 34.1111 48.0697 34.0131 48.1069 33.9137C48.122 33.8612 48.1441 33.824 48.1772 33.7839C48.2171 33.7356 48.2584 33.6859 48.3067 33.6514C48.3494 33.6114 48.3838 33.5561 48.4362 33.5161C48.4651 33.4926 48.4927 33.4609 48.5051 33.4236C48.5078 33.4084 48.5175 33.3974 48.5257 33.3849C48.6552 33.2317 48.7875 33.0715 48.9156 32.9155C48.9528 32.8727 48.9942 32.8327 49.0107 32.7802C49.0148 32.7747 49.019 32.7692 49.0245 32.7636C49.1347 32.6311 49.2394 32.5055 49.3496 32.3715C49.3579 32.3605 49.3676 32.3495 49.3786 32.3481C49.402 32.3315 49.4158 32.3149 49.4296 32.2984C49.5398 32.1658 49.6486 32.0333 49.7547 31.9063C49.7726 31.8842 49.7809 31.8635 49.7947 31.8469C49.8539 31.7641 49.9118 31.6826 49.982 31.6108C50.0812 31.5252 50.2273 31.5169 50.3403 31.5832C50.3981 31.5915 50.4215 31.6412 50.4574 31.6895C50.4629 31.6937 50.4643 31.7033 50.4739 31.713C50.5028 31.8027 50.5056 31.8883 50.4684 31.9684C50.4587 31.9891 50.445 32.0057 50.4312 32.0223C50.3816 32.083 50.3306 32.1451 50.281 32.2059C50.2121 32.2873 50.1281 32.3674 50.0799 32.4571C49.9972 32.5579 49.9256 32.656 49.8429 32.7554C49.8153 32.7885 49.7878 32.8216 49.7602 32.8644C49.7437 32.8976 49.7203 32.9238 49.6927 32.9473C49.6404 32.9873 49.6087 33.0356 49.5673 33.0853C49.526 33.1268 49.4819 33.1544 49.4516 33.2041C49.4144 33.2482 49.3786 33.2924 49.3414 33.3366C49.3276 33.3532 49.3138 33.3684 49.3 33.396C49.2876 33.4236 49.2697 33.4443 49.2463 33.4733C49.1953 33.523 49.1554 33.5837 49.1361 33.6514C49.1182 33.6831 49.0961 33.7204 49.0851 33.7577C49.0672 33.8005 49.0576 33.8461 49.0507 33.8875C49.0465 33.904 49.0493 33.9248 49.0452 33.9399C49.0245 33.9979 49.0369 34.0628 49.0576 34.1263C49.0768 34.1816 49.114 34.2382 49.1485 34.2879C49.154 34.3017 49.176 34.31 49.1926 34.3238C49.3138 34.4245 49.4296 34.5309 49.5563 34.6275C49.6707 34.7131 49.6955 34.8732 49.6417 35.0072Z" fill="#141613"/>
<path d="M52.6045 37.4177C52.5494 37.4564 52.4888 37.4937 52.4226 37.5006C52.3565 37.5047 52.2931 37.4964 52.2353 37.4536C52.1002 37.357 51.9666 37.2617 51.8316 37.1651C51.6511 37.0367 51.4692 36.9069 51.2942 36.7826C51.2419 36.7454 51.1978 36.7053 51.1482 36.6777C51.1082 36.6584 51.0697 36.6404 51.0407 36.6184C50.9622 36.5548 50.8988 36.4817 50.8616 36.3864C50.8382 36.3326 50.8175 36.2746 50.8134 36.2194C50.7982 36.1282 50.8148 36.0426 50.8754 35.9708C50.9209 35.906 50.9608 35.8369 51.0187 35.7817C51.0655 35.7265 51.1069 35.6685 51.1482 35.6105C51.1578 35.5995 51.1661 35.587 51.173 35.5746C51.2102 35.4876 51.2749 35.4089 51.3328 35.3261C51.4031 35.2267 51.4747 35.1273 51.5491 35.0223C51.72 34.7821 51.8908 34.5419 52.0672 34.3058C52.0796 34.2879 52.0961 34.2658 52.1154 34.252C52.1223 34.2395 52.1361 34.223 52.1471 34.205C52.2559 34.0518 52.3606 33.9054 52.464 33.7605C52.5053 33.7011 52.5549 33.6569 52.6224 33.6252C52.6748 33.6003 52.7244 33.592 52.7726 33.5989C52.8649 33.6044 52.9476 33.6376 53.0233 33.6914C53.1501 33.7729 53.2645 33.8626 53.3857 33.9496C53.4215 33.9758 53.4629 34.0034 53.4973 34.0297C53.6668 34.1498 53.8307 34.2671 53.9947 34.3845C54.0815 34.4466 54.1628 34.5046 54.2509 34.5681C54.3019 34.5944 54.3281 34.6303 54.3529 34.6855C54.386 34.76 54.3846 34.8387 54.3598 34.9105C54.3364 34.9809 54.295 35.0389 54.2358 35.0859C54.1476 35.1466 54.0622 35.1549 53.963 35.1218C53.9258 35.1121 53.8927 35.0969 53.8638 35.0762C53.799 35.0306 53.7343 34.9837 53.6654 34.934C53.6585 34.9298 53.6475 34.9216 53.6309 34.9188C53.5924 34.9009 53.551 34.8705 53.5207 34.8401C53.5 34.8166 53.4835 34.8042 53.4601 34.789C53.3953 34.7435 53.3251 34.6924 53.2617 34.6454C53.1735 34.5833 53.0826 34.564 52.9793 34.5598C52.9531 34.5598 52.9269 34.5585 52.8966 34.564C52.7657 34.575 52.6844 34.6399 52.6265 34.7586C52.6197 34.7807 52.6086 34.807 52.6045 34.8401C52.588 34.9243 52.6114 35.003 52.6596 35.0734C52.7078 35.1507 52.7753 35.217 52.858 35.2764C52.8869 35.2971 52.9159 35.3178 52.9448 35.3385C53.0385 35.4062 53.1239 35.4849 53.1997 35.5636C53.2534 35.6119 53.2948 35.6768 53.3085 35.7568C53.3127 35.7776 53.3168 35.8065 53.3058 35.8355C53.2824 35.906 53.2397 35.9639 53.1694 36.0026C53.0757 36.0592 52.9779 36.0606 52.8801 36.0247C52.8484 36.0192 52.8194 35.9998 52.796 35.9833C52.7602 35.957 52.7202 35.928 52.6858 35.9032C52.6555 35.8825 52.6307 35.8562 52.5935 35.8466C52.5769 35.8438 52.5645 35.8259 52.5521 35.8176C52.5053 35.7831 52.4585 35.7513 52.4116 35.7182C52.3083 35.6533 52.2022 35.6284 52.0823 35.6492C52.0313 35.6588 51.9914 35.6643 51.9487 35.6864C51.9101 35.7044 51.8825 35.7196 51.8605 35.7486C51.7999 35.8107 51.7599 35.8797 51.7269 35.9612C51.7048 36.0426 51.7089 36.1241 51.7475 36.2055C51.7875 36.287 51.8385 36.3505 51.9005 36.4113C51.9735 36.4817 52.0603 36.5341 52.1374 36.599C52.227 36.6363 52.2931 36.7012 52.3799 36.755C52.3978 36.7661 52.4144 36.7785 52.4281 36.7978C52.435 36.8116 52.4529 36.8241 52.4653 36.8324C52.5122 36.8669 52.5645 36.9028 52.6169 36.94C52.6458 36.9621 52.661 36.9897 52.6803 37.0118C52.6885 37.027 52.6899 37.0367 52.6968 37.0505C52.7519 37.1596 52.7133 37.328 52.6045 37.4177Z" fill="#141613"/>
<path d="M55.6305 38.0758C55.6705 38.0923 55.7104 38.0813 55.7504 38.0551C55.8041 38.0205 55.8275 37.9681 55.8454 37.9115C55.8771 37.7886 55.9047 37.6712 55.946 37.5456C55.9708 37.4766 55.957 37.4172 55.9419 37.3592C55.924 37.333 55.9005 37.3178 55.8716 37.3081C55.8096 37.3137 55.76 37.3427 55.7159 37.3744C55.5864 37.4641 55.4858 37.5787 55.3742 37.6795C55.3536 37.7016 55.3398 37.7251 55.337 37.7582C55.3357 37.772 55.337 37.7996 55.3398 37.8093C55.3467 37.8383 55.3508 37.8576 55.3563 37.877C55.3673 37.9004 55.3784 37.9253 55.3977 37.9349C55.4293 37.9639 55.4597 37.9971 55.4969 38.0205C55.5396 38.0468 55.5837 38.0551 55.6305 38.0758ZM56.1609 39.4895C56.1265 39.5599 56.0783 39.6152 56.0108 39.658C55.9102 39.7146 55.8082 39.7035 55.709 39.6607C55.6209 39.6248 55.5726 39.553 55.5409 39.4674C55.5272 39.4191 55.5217 39.3722 55.5285 39.3183C55.5409 39.2576 55.5382 39.2065 55.5285 39.1513C55.5258 39.1154 55.5258 39.074 55.5217 39.0381C55.5037 38.9856 55.4817 38.9387 55.4693 38.8903C55.4555 38.8558 55.4376 38.8296 55.4142 38.7978C55.3357 38.6929 55.2365 38.6087 55.118 38.5548C55.0601 38.5272 55.0036 38.5093 54.943 38.4996C54.8273 38.4706 54.6564 38.461 54.5489 38.4886C54.5228 38.49 54.5035 38.4941 54.4814 38.5051C54.4139 38.5328 54.3547 38.5631 54.2941 38.5935C54.2431 38.6225 54.1811 38.6432 54.1191 38.6473C54.064 38.657 53.9978 38.6418 53.9496 38.6128C53.9303 38.6018 53.9179 38.5935 53.9069 38.5866C53.8862 38.5507 53.8628 38.5189 53.8394 38.4886C53.7829 38.3878 53.7788 38.2842 53.8311 38.1821C53.8545 38.1296 53.8862 38.0896 53.9248 38.0537C54.0268 37.9653 54.1246 37.8742 54.2265 37.7845C54.2582 37.761 54.2885 37.7375 54.3257 37.7182C54.4497 37.6505 54.5558 37.5553 54.6537 37.4641C54.7225 37.3882 54.8011 37.3261 54.8796 37.2653C54.9141 37.2363 54.9444 37.2129 54.9761 37.188C55.067 37.119 55.1538 37.0444 55.2392 36.9713C55.3756 36.8691 55.5093 36.7573 55.6429 36.6454C55.7214 36.5833 55.7972 36.5115 55.8744 36.4397C55.9501 36.3693 56.0287 36.3086 56.1045 36.2368C56.1665 36.1898 56.2216 36.1401 56.2794 36.0835C56.3111 36.0587 56.3511 36.0338 56.4007 36.0214C56.5316 35.9827 56.6473 36.0269 56.7355 36.1305C56.7947 36.1995 56.8099 36.2837 56.7975 36.3762C56.7823 36.4425 56.763 36.5157 56.7424 36.5778C56.7245 36.6924 56.6955 36.8097 56.668 36.9257C56.6459 37.0472 56.6142 37.1701 56.5991 37.2943C56.5453 37.6215 56.4751 37.9474 56.3993 38.2704C56.3745 38.3809 56.3621 38.4982 56.3373 38.6087L56.2574 39.0367C56.2353 39.1402 56.2119 39.2521 56.1926 39.3667C56.1871 39.4053 56.1775 39.4481 56.1609 39.4895Z" fill="#141613"/>
<path d="M60.779 39.0452C60.6991 39.2054 60.6178 39.3655 60.5379 39.5271C60.5158 39.5712 60.4993 39.6196 60.4635 39.6582C60.4511 39.6679 60.4511 39.6845 60.4414 39.7038L60.2458 40.0959C60.2334 40.1207 60.2127 40.1442 60.2168 40.1691C60.2168 40.1856 60.2003 40.2008 60.1934 40.2146C60.0487 40.5032 59.9082 40.7862 59.7663 41.0692C59.7498 41.101 59.7277 41.13 59.7153 41.1714C59.7043 41.2059 59.6864 41.246 59.6657 41.2832L59.6147 41.3868C59.5996 41.4199 59.5831 41.4503 59.5541 41.4765C59.5279 41.4958 59.499 41.5221 59.4701 41.5317C59.4577 41.5414 59.4384 41.5469 59.426 41.5566C59.3612 41.5732 59.2896 41.569 59.229 41.5635C59.1752 41.5442 59.1339 41.5152 59.1008 41.4669C59.0857 41.4337 59.0733 41.3951 59.0691 41.3536C59.0595 41.3095 59.0595 41.2598 59.0512 41.2156C59.0375 41.1286 59.0223 41.0485 59.0154 40.9657C58.9989 40.8677 58.9934 40.7683 58.9934 40.673C58.9975 40.5694 58.9879 40.459 58.9686 40.3541C58.9617 40.3347 58.9589 40.3251 58.952 40.3057C58.9396 40.234 58.9272 40.1649 58.9135 40.0945C58.9135 40.0462 58.8983 39.9965 58.8818 39.9482C58.8501 39.8695 58.7991 39.8115 58.7178 39.7783C58.6324 39.7424 58.5456 39.7397 58.4684 39.7977C58.4202 39.8294 58.3789 39.8653 58.3596 39.9192C58.3458 39.944 58.3334 39.9703 58.31 39.9992C58.2976 40.0089 58.2921 40.0213 58.2852 40.0351C58.2011 40.2022 58.1171 40.3693 58.0344 40.5363C58.0124 40.5805 57.9766 40.6205 57.9573 40.6578C57.8774 40.7393 57.7837 40.7807 57.6721 40.7641C57.5563 40.7379 57.4764 40.6744 57.4337 40.5653C57.4213 40.5253 57.4158 40.4742 57.4213 40.4286C57.4241 40.3913 57.4379 40.3485 57.4571 40.3099C57.5853 40.0531 57.7051 39.7991 57.8333 39.5423C57.8843 39.4387 57.9463 39.3338 58 39.2247L58.0207 39.1861C58.0496 39.1598 58.0579 39.1253 58.0744 39.0922C58.0978 39.0646 58.1157 39.0245 58.1295 38.9831C58.1488 38.9458 58.1777 38.903 58.1846 38.8575C58.1846 38.8423 58.197 38.8326 58.2025 38.8202C58.2163 38.794 58.2287 38.7677 58.2452 38.736C58.3995 38.4281 58.5511 38.1092 58.7054 37.8013C58.7206 37.7682 58.7412 37.7474 58.7564 37.7143C58.7991 37.6467 58.8556 37.5956 58.9369 37.5638C58.9741 37.5514 59.014 37.5542 59.0609 37.5542C59.0747 37.5611 59.0967 37.5638 59.1132 37.5638C59.1325 37.5735 59.1573 37.5859 59.1766 37.5956C59.2579 37.6605 59.2882 37.7419 59.2951 37.8399C59.3144 38.0111 59.3337 38.181 59.3488 38.3577C59.3681 38.5454 59.3847 38.7222 59.4026 38.9072C59.426 39.0563 59.4866 39.1902 59.5955 39.2937C59.6147 39.32 59.6464 39.3365 59.6616 39.3517C59.7043 39.3642 59.7456 39.3614 59.7842 39.3642C59.8379 39.3531 59.8807 39.3158 59.9165 39.2786C59.9578 39.244 59.9895 39.2109 60.0115 39.1667C60.0184 39.1529 60.0253 39.1391 60.035 39.1364C60.057 39.1087 60.0735 39.0756 60.0901 39.0439C60.1342 38.9541 60.1796 38.8644 60.2251 38.7746C60.2471 38.7291 60.2761 38.6863 60.3078 38.6393C60.3174 38.6186 60.3312 38.5938 60.3408 38.5744C60.3822 38.4916 60.44 38.4239 60.5392 38.3853C60.5875 38.3701 60.6453 38.366 60.7032 38.3798C60.728 38.3922 60.7542 38.4046 60.7803 38.4184C60.9016 38.4792 60.9526 38.602 60.9333 38.736C60.9305 38.7594 60.9181 38.7857 60.9085 38.8036C60.8658 38.8878 60.8203 38.961 60.779 39.0452Z" fill="#141613"/>
<path d="M63.7391 41.3952C63.7584 41.496 63.7322 41.5788 63.6496 41.6465C63.6248 41.6658 63.5944 41.6851 63.5641 41.7031C63.5132 41.7279 63.4594 41.7279 63.4071 41.7072C63.3244 41.6796 63.2431 41.6534 63.166 41.6133C63.0296 41.5471 62.889 41.496 62.7568 41.4407C62.7044 41.4187 62.6507 41.3966 62.5983 41.3731C62.4853 41.3262 62.3737 41.2792 62.2553 41.2295C62.1629 41.1909 62.0679 41.1577 61.9783 41.1122C61.9315 41.0928 61.8957 41.0859 61.8557 41.0694C61.8226 41.0556 61.7923 41.0348 61.7593 41.021C61.7028 40.9893 61.6752 40.9465 61.6545 40.883C61.638 40.8139 61.6325 40.7491 61.6683 40.6855C61.6752 40.6662 61.6904 40.6496 61.7055 40.6317C61.7207 40.6151 61.7413 40.6013 61.7593 40.5765C61.8392 40.5171 61.9218 40.5047 62.0141 40.5447C62.1092 40.5765 62.1988 40.622 62.298 40.6635C62.3448 40.6828 62.3972 40.7049 62.4495 40.7283C62.5033 40.7491 62.5515 40.7629 62.5983 40.7974C62.6162 40.8126 62.6355 40.8222 62.6589 40.8236C62.7017 40.8333 62.7402 40.8498 62.7802 40.8664C62.9056 40.9189 63.0378 40.9755 63.1687 41.0307C63.2156 41.05 63.2693 41.0735 63.3161 41.108C63.3354 41.1163 63.3561 41.1246 63.3754 41.1342C63.4498 41.1398 63.5187 41.1784 63.5917 41.2088C63.6165 41.2268 63.6454 41.2475 63.6757 41.2668C63.6868 41.2792 63.6964 41.2916 63.7047 41.3096C63.7157 41.3386 63.7308 41.3607 63.7391 41.3952Z" fill="#141613"/>
<path d="M67.6202 44.062C67.6133 44.0827 67.6064 44.1021 67.5995 44.1242C67.5719 44.2056 67.5141 44.2622 67.4397 44.305C67.3777 44.3285 67.3157 44.3533 67.2496 44.3699C67.1752 44.3879 67.109 44.4044 67.0415 44.4279C66.923 44.4624 66.8004 44.4665 66.6819 44.479C66.613 44.4859 66.5414 44.4928 66.4697 44.4831C66.4132 44.4707 66.3609 44.4679 66.3058 44.4486C66.241 44.4196 66.1804 44.3975 66.1115 44.3754C66.1088 44.3809 66.1088 44.3809 66.1156 44.3837C66.0481 44.3616 65.9875 44.3395 65.9269 44.3202C65.8167 44.2815 65.734 44.2153 65.6596 44.1462C65.5852 44.0744 65.5108 44.0027 65.4405 43.9405C65.3441 43.848 65.2711 43.7459 65.2228 43.6244C65.2077 43.5802 65.1815 43.5415 65.1595 43.496C65.1374 43.4504 65.1223 43.4062 65.0933 43.3593C65.0382 43.2723 65.012 43.1715 65.0024 43.0694C64.9762 42.9009 64.9693 42.7408 65.0024 42.5765C65.0093 42.5116 65.0258 42.4398 65.0341 42.3735C65.041 42.2631 65.0685 42.1581 65.1126 42.0518C65.1471 41.9731 65.1912 41.8889 65.2325 41.8116C65.2917 41.7274 65.351 41.6404 65.424 41.5589C65.4612 41.5175 65.5039 41.4803 65.548 41.4416C65.6252 41.3919 65.6954 41.3394 65.7643 41.2718C65.8649 41.1779 65.9848 41.1116 66.1225 41.0674C66.2424 41.026 66.3595 40.9887 66.4945 40.9749C66.613 40.9625 66.737 40.9515 66.8638 40.957C66.9533 40.9639 67.0415 40.9722 67.1297 41.0012C67.1572 41.0108 67.1931 41.0164 67.2261 41.0274C67.2537 41.0371 67.2812 41.0454 67.3074 41.055C67.3901 41.0826 67.4686 41.1171 67.5458 41.1586C67.6491 41.2096 67.7469 41.2801 67.8392 41.3657C67.9798 41.4899 68.0872 41.639 68.1809 41.8088C68.203 41.853 68.2195 41.8986 68.2415 41.9428C68.2691 41.998 68.2705 42.0601 68.2636 42.125C68.2512 42.2727 68.1134 42.408 67.9384 42.3859C67.8144 42.3735 67.7221 42.3114 67.6711 42.1954C67.6353 42.1236 67.5899 42.0546 67.5375 41.9842C67.4576 41.8889 67.3639 41.8033 67.2564 41.7426C67.1504 41.6763 67.0346 41.6376 66.9216 41.6142C66.7439 41.5769 66.5744 41.5866 66.4022 41.6487C66.3402 41.6749 66.2782 41.6984 66.2217 41.7329C66.1101 41.7923 65.9958 41.8599 65.9117 41.9538C65.8401 42.027 65.7905 42.1084 65.7519 42.2009C65.7078 42.2865 65.6775 42.3735 65.6472 42.4633C65.6196 42.5668 65.5935 42.6648 65.5962 42.7711C65.5976 42.8554 65.6059 42.941 65.6403 43.0224C65.6527 43.0721 65.6679 43.1149 65.6913 43.1619C65.7202 43.2544 65.7684 43.3317 65.8249 43.4117C65.9283 43.554 66.0578 43.6658 66.2204 43.7445C66.252 43.7624 66.2837 43.7804 66.3237 43.7956C66.3981 43.8204 66.4711 43.8301 66.5538 43.8342C66.6447 43.8356 66.7343 43.8356 66.8224 43.8204C66.934 43.8052 67.0443 43.7749 67.1462 43.7182C67.1807 43.7072 67.2068 43.6934 67.2413 43.6824C67.2647 43.6837 67.2799 43.681 67.3033 43.681C67.4135 43.6879 67.5086 43.721 67.5733 43.819C67.6257 43.8894 67.6408 43.9778 67.6202 44.062Z" fill="#141613"/>
<path d="M70.5902 42.7732C70.5034 42.7649 70.4194 42.7718 70.3436 42.8105C70.2761 42.8381 70.2279 42.8836 70.1879 42.9472C70.1521 42.9969 70.1314 43.0507 70.1066 43.1115C70.0887 43.1805 70.0722 43.244 70.0529 43.313C70.0433 43.3544 70.0309 43.3959 70.0185 43.4442C70.0157 43.4815 70.0157 43.5105 70.0143 43.5477C70.0074 43.5974 70.0102 43.643 70.0515 43.683C70.0736 43.712 70.0956 43.7396 70.1177 43.7686C70.1562 43.8156 70.1976 43.8556 70.2513 43.8777C70.2582 43.8805 70.2637 43.8887 70.2706 43.8915C70.3395 43.9081 70.4015 43.926 70.4635 43.9426C70.5324 43.9605 70.6123 43.9674 70.6798 43.9633C70.8258 43.944 70.9402 43.8777 71.0366 43.77C71.089 43.7093 71.1248 43.6292 71.1455 43.5533C71.1827 43.4442 71.1827 43.3324 71.1441 43.226C71.1138 43.1142 71.0587 43.0176 70.9843 42.9375C70.9347 42.8726 70.8713 42.8339 70.7969 42.805C70.728 42.7884 70.6646 42.7704 70.5902 42.7732ZM71.1785 44.5128C71.1234 44.6094 71.0959 44.713 71.111 44.8207C71.1289 44.9753 71.1634 45.1244 71.2061 45.2708C71.2226 45.3191 71.2323 45.366 71.2488 45.4157C71.2557 45.4475 71.2585 45.493 71.2626 45.5303C71.2488 45.5855 71.2337 45.6408 71.1992 45.6836C71.1289 45.7843 71.0353 45.8258 70.9168 45.8244C70.7914 45.8271 70.644 45.7139 70.615 45.5717C70.5902 45.4917 70.5751 45.413 70.5723 45.337C70.5668 45.2763 70.5517 45.221 70.5379 45.1644C70.5269 45.0954 70.5241 45.0209 70.5145 44.9435C70.5131 44.869 70.4883 44.7958 70.4456 44.7323C70.3767 44.6329 70.2816 44.5694 70.159 44.5583C70.1011 44.5501 70.0405 44.557 69.9826 44.5791C69.8586 44.6274 69.7636 44.7047 69.6961 44.8207C69.6754 44.8676 69.6575 44.9076 69.6451 44.956C69.6396 44.9767 69.6341 44.9974 69.6217 45.0167C69.6093 45.036 69.612 45.0499 69.6065 45.0719C69.5955 45.1134 69.5845 45.1548 69.5748 45.1893C69.4963 45.3177 69.3916 45.3784 69.251 45.3771C69.2221 45.3702 69.1877 45.3605 69.1463 45.3494C69.1215 45.3343 69.0967 45.3136 69.0802 45.2942C68.9906 45.2114 68.9589 45.1051 68.9824 44.9932C68.9824 44.9643 68.9879 44.9422 68.9934 44.9228C69.0196 44.8248 69.0444 44.7351 69.0692 44.6384C69.0843 44.5832 69.105 44.5363 69.105 44.4769C69.1325 44.3733 69.1491 44.2588 69.1904 44.158C69.1959 44.1373 69.2083 44.1193 69.2193 44.1069C69.2331 44.0807 69.2483 44.0544 69.2552 44.0268C69.2621 43.9771 69.2758 43.9205 69.2965 43.8749C69.3075 43.8335 69.3048 43.7866 69.3158 43.7465C69.342 43.6499 69.3599 43.5491 69.3861 43.4525C69.4122 43.3558 69.4453 43.2619 69.4687 43.1708C69.4756 43.1432 69.4825 43.1225 69.4963 43.0963C69.5073 43.0852 69.5128 43.0631 69.5156 43.0493L69.6768 42.4474C69.6823 42.4253 69.6905 42.399 69.6823 42.3742C69.6837 42.3673 69.6892 42.3452 69.6933 42.3328C69.7057 42.2845 69.7167 42.2417 69.7291 42.1933C69.7581 42.0898 69.8283 42.0194 69.9275 41.9793C69.9881 41.9503 70.0446 41.9586 70.1025 41.9669C70.1576 41.9821 70.2141 41.989 70.2609 42.0083C70.3477 42.047 70.4387 42.0636 70.5269 42.0953C70.6164 42.1188 70.7005 42.1409 70.79 42.1657C70.8245 42.174 70.8658 42.1864 70.8989 42.203C70.925 42.2168 70.9443 42.2223 70.9733 42.2292C71.0849 42.2527 71.1813 42.3079 71.275 42.377C71.2998 42.3921 71.3191 42.4032 71.3425 42.4253C71.4679 42.5109 71.5643 42.6269 71.6401 42.7566C71.7393 42.9403 71.7848 43.1308 71.7903 43.3324C71.7889 43.4221 71.782 43.5008 71.7737 43.5878C71.7751 43.6402 71.7545 43.6872 71.7421 43.7355C71.7021 43.8584 71.6566 43.9716 71.5836 44.0793C71.5092 44.1925 71.4128 44.3002 71.3025 44.383C71.2543 44.4217 71.2144 44.4631 71.1785 44.5128Z" fill="#141613"/>
<path d="M74.3441 45.2471C74.3882 45.2485 74.4213 45.225 74.4516 45.1878C74.4902 45.1367 74.4957 45.0801 74.4929 45.0207C74.4819 44.8937 74.4695 44.7736 74.4667 44.6424C74.4667 44.5679 74.4337 44.5182 74.4006 44.4671C74.3744 44.4464 74.3469 44.4409 74.3166 44.4422C74.2615 44.4685 74.2229 44.5113 74.1926 44.5554C74.1003 44.6838 74.0424 44.826 73.9707 44.9586C73.9583 44.9848 73.9528 45.0124 73.9611 45.0442C73.9652 45.0594 73.9749 45.0828 73.9804 45.0925C73.9983 45.1174 74.0079 45.1339 74.0203 45.1519C74.0383 45.1684 74.0562 45.1878 74.0768 45.1919C74.1182 45.2085 74.1567 45.2306 74.1995 45.2389C74.2491 45.2485 74.2931 45.243 74.3441 45.2471ZM75.3154 46.4041C75.3072 46.4842 75.2782 46.5505 75.2286 46.614C75.1529 46.7009 75.0537 46.7244 74.9448 46.7161C74.8511 46.7134 74.7809 46.6609 74.7216 46.5919C74.6941 46.5491 74.6734 46.5077 74.661 46.4538C74.6527 46.3944 74.6321 46.3461 74.6059 46.2964C74.5907 46.2633 74.577 46.2246 74.5618 46.1929C74.526 46.1473 74.4902 46.1114 74.4626 46.07C74.4378 46.0424 74.413 46.0231 74.3813 46.001C74.2711 45.9278 74.1499 45.8808 74.0203 45.8684C73.9556 45.8629 73.8963 45.8657 73.8357 45.8753C73.7159 45.8877 73.5533 45.9347 73.461 45.9968C73.4362 46.0065 73.4196 46.0189 73.4017 46.0355C73.348 46.0838 73.3011 46.1335 73.2543 46.1818C73.2171 46.226 73.1647 46.266 73.1083 46.2909C73.0587 46.3171 72.9911 46.3254 72.936 46.3144C72.914 46.3116 72.9002 46.3075 72.8864 46.3047C72.8547 46.2757 72.8231 46.255 72.7914 46.2343C72.7046 46.157 72.6646 46.0617 72.6798 45.9485C72.6853 45.8905 72.7018 45.8422 72.7266 45.7952C72.7941 45.6779 72.8547 45.5592 72.9223 45.4404C72.9443 45.4073 72.965 45.3755 72.9939 45.3438C73.0876 45.2389 73.1579 45.1132 73.2185 44.9945C73.2584 44.9006 73.3122 44.8164 73.3673 44.7322C73.3893 44.6935 73.41 44.6604 73.4307 44.6286C73.4954 44.5306 73.5519 44.4326 73.6084 44.3345C73.7035 44.1923 73.7916 44.0419 73.8812 43.8927C73.9349 43.8071 73.9831 43.7146 74.03 43.6208C74.0796 43.5296 74.1333 43.444 74.1802 43.3515C74.2229 43.2866 74.2587 43.2204 74.2945 43.1472C74.3166 43.1155 74.3455 43.0782 74.3882 43.0492C74.4998 42.9705 74.6238 42.9732 74.7409 43.0409C74.8194 43.0865 74.8622 43.161 74.8814 43.2535C74.8897 43.3198 74.8952 43.3943 74.8966 43.462C74.9186 43.5752 74.9297 43.6953 74.9421 43.8154C74.9614 43.9369 74.9724 44.0639 74.9986 44.1854C75.0564 44.5126 75.0991 44.844 75.135 45.1726C75.1474 45.2858 75.1763 45.4004 75.1887 45.5136C75.2107 45.6586 75.2342 45.8008 75.2548 45.9457C75.27 46.0507 75.2838 46.1639 75.3044 46.2771C75.3113 46.3157 75.3168 46.3613 75.3154 46.4041Z" fill="#141613"/>
<path d="M79.3635 44.1483C79.3676 44.3154 79.2712 44.4382 79.1334 44.4838C79.0866 44.5059 79.0438 44.5073 78.9929 44.5004L78.5478 44.4355C78.4693 44.423 78.3908 44.412 78.3136 44.401C78.2847 44.3968 78.2654 44.3871 78.2365 44.383C78.1882 44.3609 78.1455 44.3609 78.0946 44.3692C77.9912 44.3761 77.9003 44.412 77.8369 44.4976C77.8259 44.5183 77.8107 44.5294 77.7928 44.5501C77.7694 44.6122 77.768 44.6688 77.7598 44.7268C77.7556 44.7544 77.7515 44.7903 77.7598 44.8276C77.7735 44.9311 77.8369 44.9974 77.9306 45.0402C77.9802 45.0554 78.0229 45.0609 78.0725 45.0692C78.1855 45.0857 78.2916 45.0995 78.4046 45.1244C78.4748 45.1354 78.5368 45.152 78.6002 45.1672C78.7049 45.1907 78.7683 45.2583 78.7972 45.3563C78.8124 45.4005 78.8124 45.4516 78.8055 45.5013C78.7917 45.5869 78.7545 45.6546 78.6953 45.7112C78.6291 45.7664 78.5547 45.7843 78.4679 45.7788C78.4183 45.7719 78.3687 45.765 78.3191 45.7567C78.2916 45.7526 78.2571 45.7402 78.2268 45.7512C78.2117 45.7553 78.1979 45.7471 78.1772 45.7429C78.1414 45.7388 78.1056 45.7333 78.0629 45.7277C77.9788 45.7084 77.903 45.7319 77.8259 45.765C77.6716 45.8299 77.5627 45.9376 77.4911 46.0853C77.4498 46.1668 77.4236 46.2496 77.4098 46.3421C77.3947 46.4926 77.3657 46.6417 77.3437 46.7963C77.3451 46.8405 77.3313 46.8819 77.3106 46.9234C77.2527 47.0228 77.1632 47.0904 77.0461 47.1015C77.0309 47.107 77.0171 47.1056 77.0034 47.1028C76.9744 47.0987 76.9524 47.0959 76.9317 47.0918C76.8697 47.0683 76.8311 47.0421 76.7939 46.9993C76.7457 46.9344 76.7264 46.8598 76.7251 46.7715C76.7264 46.7577 76.7278 46.7508 76.7306 46.737C76.7512 46.6459 76.7416 46.5561 76.754 46.4719C76.7595 46.436 76.7636 46.4084 76.7691 46.3725C76.7884 46.2386 76.8077 46.1019 76.827 45.9666C76.8559 45.7761 76.8835 45.5841 76.9111 45.3922C76.9124 45.3853 76.9138 45.3715 76.9152 45.3646C76.9441 45.3108 76.9455 45.2528 76.9538 45.1962C76.9786 45.0264 77.0034 44.8552 77.0282 44.6854C77.0351 44.6412 77.0475 44.5998 77.0309 44.5625C77.0337 44.5473 77.0364 44.5266 77.0392 44.5128C77.0516 44.4272 77.064 44.3347 77.0778 44.2422C77.0819 44.2146 77.0847 44.1925 77.0957 44.1662C77.1053 44.1524 77.1081 44.1303 77.1108 44.1179C77.1177 44.0668 77.1246 44.0171 77.1315 43.9674C77.1453 43.8763 77.1921 43.8018 77.2583 43.7465C77.323 43.6982 77.3933 43.6651 77.4677 43.654C77.5173 43.654 77.5765 43.6485 77.6261 43.6554C77.9017 43.6955 78.1786 43.7355 78.4542 43.7755L79.008 43.857C79.0783 43.8666 79.1403 43.8846 79.2078 43.9219C79.2684 43.9522 79.3111 44.0033 79.3387 44.0641C79.358 44.0889 79.3607 44.1193 79.3635 44.1483Z" fill="#141613"/>
<path d="M82.919 44.6176C82.8652 44.8081 82.6999 44.8854 82.5787 44.8813C82.5208 44.8758 82.4643 44.873 82.4064 44.8799C82.2756 44.8979 82.1695 44.96 82.0882 45.0608C82.022 45.1491 81.9848 45.2458 81.9614 45.3507C81.9366 45.4639 81.9339 45.5716 81.9228 45.6862C81.9091 45.7566 81.9104 45.8298 81.9049 45.8933C81.9008 45.9361 81.8884 45.9775 81.8994 46.0231C81.9049 46.0369 81.8967 46.059 81.8953 46.0728C81.8856 46.1805 81.8746 46.2937 81.865 46.4014C81.8622 46.429 81.8664 46.4593 81.8498 46.487C81.8429 46.4925 81.8471 46.5146 81.8457 46.5298C81.8429 46.5712 81.8374 46.6223 81.8333 46.6637C81.8223 46.7148 81.825 46.7576 81.8057 46.8059C81.7975 46.828 81.7961 46.8487 81.7933 46.8708C81.7851 46.9619 81.7768 47.0558 81.7685 47.1483C81.7616 47.227 81.7548 47.2974 81.7465 47.3775C81.741 47.4562 81.7052 47.5238 81.6418 47.5832C81.588 47.6287 81.5205 47.6508 81.4489 47.6591C81.4268 47.6646 81.4048 47.6619 81.3841 47.6536C81.3208 47.6343 81.2656 47.6067 81.2353 47.5459C81.2298 47.5376 81.2092 47.5293 81.2023 47.5224C81.1527 47.4382 81.1389 47.3499 81.1472 47.2574C81.1871 46.8998 81.2202 46.5449 81.2519 46.1874C81.2574 46.1294 81.2629 46.0659 81.2546 46.0065C81.2491 45.9913 81.256 45.9844 81.2574 45.9706C81.2643 45.9002 81.2712 45.8284 81.2767 45.7566C81.2725 45.7359 81.2877 45.7152 81.2973 45.6931C81.278 45.6641 81.2877 45.6351 81.2904 45.6075C81.2918 45.5122 81.3084 45.4211 81.3097 45.3286C81.3152 45.1837 81.2849 45.0456 81.2174 44.9158C81.1485 44.8095 81.0535 44.7432 80.935 44.7032C80.9212 44.6949 80.8992 44.7004 80.8854 44.6991C80.8496 44.6949 80.8137 44.6921 80.7779 44.6894C80.6856 44.6797 80.6029 44.6438 80.5368 44.5872C80.5368 44.5803 80.5299 44.5803 80.5299 44.572C80.3632 44.3622 80.5024 44.0943 80.7545 44.0736C80.862 44.0833 80.9832 44.0957 81.0976 44.1054C81.1623 44.104 81.2174 44.1247 81.2767 44.1081C81.2836 44.1081 81.2987 44.1095 81.3056 44.1109C81.4696 44.1261 81.6266 44.1385 81.7837 44.1468C81.8112 44.1496 81.8402 44.1523 81.8691 44.1468C81.8843 44.1482 81.9049 44.1509 81.927 44.1523C82.0331 44.1634 82.1405 44.173 82.2466 44.1827C82.2549 44.1841 82.2618 44.1841 82.2618 44.1841C82.3872 44.2172 82.5167 44.2145 82.6379 44.2255C82.6889 44.2296 82.7371 44.2476 82.7771 44.2738C82.8928 44.3567 82.952 44.492 82.919 44.6176Z" fill="#141613"/>
<path d="M86.2659 47.7037C86.2411 47.7672 86.2094 47.8307 86.1584 47.8708C86.106 47.9122 86.0482 47.9384 85.9765 47.9357L85.4819 47.9149C85.2601 47.9053 85.0369 47.8984 84.822 47.8887C84.7572 47.886 84.7007 47.8763 84.6429 47.8818C84.6001 47.8873 84.5561 47.8929 84.5202 47.8915C84.4197 47.879 84.3273 47.8528 84.2447 47.7921C84.1951 47.7617 84.1469 47.7244 84.1124 47.6789C84.0504 47.6126 84.0173 47.5311 84.0284 47.4386C84.0325 47.3599 84.0284 47.2799 84.0463 47.2025C84.0559 47.1307 84.0587 47.0576 84.0614 46.9858C84.0628 46.972 84.0628 46.9582 84.0628 46.943C84.0463 46.8491 84.0573 46.7497 84.0614 46.6475C84.0656 46.526 84.0711 46.4045 84.0766 46.2748C84.089 45.9807 84.1014 45.6852 84.1193 45.3912C84.1207 45.3704 84.1221 45.3415 84.1303 45.3194C84.1303 45.3056 84.1317 45.2835 84.1331 45.2614C84.14 45.0764 84.1469 44.8969 84.1551 44.716C84.1579 44.6442 84.1744 44.5807 84.213 44.5172C84.2433 44.4675 84.2819 44.4344 84.3246 44.4137C84.4059 44.3667 84.4927 44.3488 84.5864 44.3529C84.7365 44.3515 84.8798 44.3654 85.0314 44.3709C85.0741 44.3736 85.1237 44.375 85.1664 44.3764C85.3744 44.3861 85.5756 44.3943 85.7768 44.4012C85.8842 44.4054 85.9834 44.4095 86.0923 44.4151C86.1501 44.4095 86.1915 44.4261 86.2411 44.4565C86.31 44.5034 86.3513 44.5683 86.3692 44.6415C86.3885 44.7147 86.3844 44.7864 86.3609 44.8569C86.321 44.9576 86.2535 45.0115 86.1515 45.035C86.1157 45.0488 86.0799 45.0543 86.044 45.0529C85.9655 45.0501 85.887 45.046 85.8002 45.0432C85.7933 45.0419 85.7781 45.0419 85.7644 45.0488C85.7203 45.0543 85.6707 45.0515 85.628 45.0432C85.599 45.035 85.577 45.0336 85.5494 45.0322C85.4709 45.0294 85.3841 45.0267 85.3056 45.0239C85.1981 45.0184 85.1113 45.0501 85.0217 45.104C84.9997 45.1178 84.9776 45.1316 84.9556 45.1523C84.8523 45.2351 84.8192 45.3332 84.8344 45.4643C84.8412 45.4864 84.8468 45.5154 84.8605 45.5444C84.8922 45.6245 84.9556 45.6769 85.0328 45.7101C85.1182 45.7487 85.2105 45.7681 85.3111 45.7722C85.3469 45.7736 85.3827 45.775 85.4185 45.7764C85.5329 45.7805 85.6472 45.7998 85.7533 45.8261C85.825 45.8357 85.8952 45.8675 85.9504 45.9268C85.9641 45.9434 85.9848 45.9641 85.9903 45.9945C86.0096 46.0663 86.0068 46.1381 85.9683 46.2085C85.9214 46.3065 85.8388 46.3617 85.7382 46.3866C85.7092 46.4004 85.672 46.399 85.6445 46.3976C85.6018 46.3949 85.5508 46.3935 85.5081 46.3921C85.4723 46.3894 85.4364 46.3811 85.4006 46.3949C85.3855 46.4004 85.3648 46.3921 85.3496 46.3921C85.2918 46.3894 85.2353 46.388 85.1774 46.3852C85.0562 46.3866 84.9528 46.4252 84.8633 46.5095C84.8275 46.5426 84.7972 46.5716 84.7737 46.613C84.7503 46.6475 84.7352 46.6765 84.7338 46.711C84.7159 46.798 84.72 46.8767 84.7379 46.9637C84.7627 47.0438 84.8109 47.11 84.8881 47.157C84.9652 47.2039 85.0424 47.2274 85.1278 47.2467C85.2284 47.2647 85.329 47.2619 85.4296 47.273C85.5232 47.255 85.6156 47.273 85.7161 47.2716C85.7382 47.2716 85.7588 47.273 85.7795 47.2799C85.7947 47.2881 85.8153 47.2881 85.8305 47.2895C85.8884 47.2923 85.9517 47.295 86.0165 47.2964C86.0523 47.2992 86.0799 47.3144 86.1088 47.3227C86.1226 47.3296 86.1295 47.3378 86.1446 47.3447C86.2493 47.4069 86.3072 47.5684 86.2659 47.7037Z" fill="#141613"/>
<path d="M88.8693 47.2912C88.9616 47.2677 89.0553 47.2304 89.1407 47.1862C89.2895 47.0979 89.4094 46.9805 89.5072 46.8369C89.5499 46.7638 89.5844 46.6906 89.6119 46.6202C89.6464 46.5249 89.667 46.431 89.6657 46.3316C89.6643 46.2736 89.6643 46.2088 89.6629 46.1439C89.6629 46.1149 89.6615 46.0873 89.6546 46.0514C89.6395 46.0003 89.6312 45.9506 89.6161 45.9078C89.5706 45.7504 89.5045 45.6151 89.4025 45.4936C89.3653 45.4522 89.3281 45.4025 89.2785 45.3666C89.2206 45.3169 89.1559 45.2754 89.0897 45.2257C89.0167 45.1843 88.9382 45.1484 88.8514 45.1222C88.7866 45.1084 88.7233 45.1098 88.6585 45.1098C88.6502 45.1098 88.6365 45.1098 88.6227 45.1181C88.529 45.1346 88.4587 45.1912 88.4022 45.2644C88.3747 45.3072 88.3457 45.3597 88.3251 45.4094C88.3113 45.4674 88.3058 45.5253 88.3058 45.575C88.3003 45.6399 88.3003 45.7048 88.3017 45.7683C88.3099 45.7973 88.3168 45.8263 88.3182 45.8553C88.3196 45.9547 88.3209 46.05 88.3223 46.1494C88.3306 46.2502 88.3182 46.351 88.3113 46.4517C88.2989 46.5304 88.3003 46.6105 88.3003 46.6961C88.3017 46.703 88.3017 46.7099 88.3017 46.7182V46.7403C88.3237 46.7748 88.3168 46.8107 88.3182 46.8466C88.3182 46.8825 88.3333 46.917 88.3333 46.9612C88.3333 46.9902 88.3347 47.0261 88.3347 47.062C88.3361 47.12 88.3444 47.1766 88.3871 47.2332C88.4022 47.2484 88.4243 47.2622 88.4463 47.276C88.467 47.2898 88.489 47.3036 88.5111 47.3036C88.5607 47.3105 88.6048 47.3174 88.6544 47.316C88.726 47.3215 88.7977 47.2994 88.8693 47.2912ZM90.2705 45.9768C90.2733 46.1356 90.2677 46.2861 90.276 46.4448C90.276 46.4945 90.2719 46.5442 90.2567 46.5884C90.2374 46.6961 90.2099 46.7983 90.1685 46.8991C90.1548 46.9419 90.1272 46.9847 90.0997 47.0357C90.0569 47.1075 90.0073 47.1807 89.966 47.2539C89.8682 47.4058 89.7401 47.5369 89.5981 47.6474C89.5279 47.6984 89.4562 47.7343 89.386 47.773C89.2785 47.8172 89.1793 47.8614 89.0718 47.9055C88.9933 47.929 88.9217 47.9442 88.8431 47.9594C88.715 47.9829 88.5786 47.9773 88.4422 47.9801C88.4133 47.9801 88.3774 47.9732 88.3485 47.9815C88.2837 47.9829 88.2273 47.9829 88.1625 47.9842C88.1198 48.0063 88.084 48.0008 88.0399 47.9939C87.9545 47.9953 87.8745 47.9663 87.8167 47.9028C87.7588 47.8531 87.7216 47.7896 87.7216 47.7109C87.7202 47.6667 87.7202 47.6308 87.7257 47.5811C87.6968 47.5466 87.7037 47.5093 87.7244 47.4734C87.7092 47.4444 87.7092 47.4168 87.7092 47.3864C87.6982 47.2014 87.6954 47.0068 87.6927 46.819C87.6927 46.6975 87.6968 46.5746 87.6954 46.4462C87.6941 46.4172 87.7009 46.3965 87.7009 46.3675C87.6927 46.3385 87.6927 46.3026 87.6927 46.2667C87.6913 46.1729 87.6899 46.0873 87.6885 46.0003C87.6885 45.9644 87.6803 45.9368 87.6941 45.9078C87.7009 45.8926 87.6941 45.8719 87.6927 45.8498C87.6968 45.6054 87.6941 45.368 87.6899 45.125C87.6899 45.1029 87.6899 45.0739 87.6954 45.0518C87.7037 45.0297 87.6954 45.009 87.6954 44.9869C87.6941 44.9151 87.6927 44.8447 87.6927 44.7729C87.6968 44.6431 87.7533 44.5492 87.8677 44.4968C87.8883 44.4816 87.9173 44.4816 87.9393 44.4816C88.0895 44.4788 88.2465 44.4761 88.3981 44.4747C88.4188 44.4747 88.4408 44.4733 88.4629 44.4733C88.4835 44.4733 88.5125 44.4733 88.5414 44.4802C88.5552 44.4871 88.5772 44.4857 88.5993 44.4857C88.6351 44.4857 88.6778 44.4843 88.7136 44.4843C88.8858 44.4968 89.0512 44.5299 89.2096 44.592C89.3901 44.6611 89.5485 44.7522 89.6877 44.8944C89.7387 44.951 89.7965 45.0076 89.8544 45.0642C89.9137 45.1208 89.9564 45.1843 90.0005 45.2492C90.0886 45.3762 90.1617 45.5115 90.2085 45.662C90.2305 45.7476 90.254 45.8263 90.2622 45.9202C90.2691 45.9354 90.2705 45.9561 90.2705 45.9768Z" fill="#141613"/>
<path d="M97.3231 46.6278C97.3244 46.6499 97.3272 46.6706 97.33 46.6927C97.3396 46.7783 97.3107 46.8528 97.2611 46.9246C97.2156 46.9729 97.1715 47.0199 97.1178 47.0627C97.0585 47.1137 97.0062 47.1552 96.9524 47.2035C96.8601 47.2863 96.7513 47.3416 96.6507 47.4037C96.5887 47.4382 96.5281 47.4741 96.4578 47.4962C96.4013 47.51 96.3531 47.5293 96.2966 47.5348C96.2236 47.5362 96.1602 47.5431 96.0886 47.5514C96.0886 47.5583 96.0886 47.5583 96.0968 47.5569C96.0266 47.5652 95.9618 47.5721 95.8971 47.579C95.7841 47.5914 95.6808 47.5666 95.5816 47.5335C95.4851 47.5017 95.3887 47.4686 95.2977 47.4423C95.171 47.3995 95.0621 47.3388 94.9671 47.2463C94.9354 47.2145 94.8954 47.1897 94.8569 47.1579C94.8169 47.1262 94.7838 47.0944 94.737 47.0627C94.6529 47.0061 94.5868 46.9274 94.5331 46.839C94.438 46.6982 94.365 46.5546 94.325 46.3917C94.3044 46.3296 94.2892 46.2578 94.2685 46.197C94.2286 46.0921 94.2093 45.9858 94.2038 45.8712C94.201 45.7842 94.2052 45.6889 94.2107 45.6033C94.2286 45.4998 94.2465 45.3962 94.2782 45.2913C94.2947 45.2389 94.3168 45.1864 94.3402 45.1339C94.3898 45.0552 94.4311 44.9793 94.4656 44.8882C94.5165 44.7598 94.5965 44.6493 94.7025 44.5513C94.7935 44.4629 94.8844 44.3801 95.0001 44.3097C95.1021 44.2476 95.2109 44.1854 95.3281 44.1357C95.4107 44.1054 95.4948 44.075 95.5857 44.0653C95.616 44.0626 95.6505 44.0515 95.6863 44.0474C95.7138 44.0432 95.7428 44.0405 95.7717 44.0377C95.8571 44.028 95.9425 44.0253 96.0307 44.0308C96.1464 44.0322 96.2636 44.0557 96.382 44.0929C96.5612 44.1454 96.7224 44.2379 96.8808 44.3497C96.9194 44.3815 96.9511 44.4132 96.991 44.4464C97.0392 44.4837 97.0654 44.5389 97.0875 44.601C97.1384 44.7405 97.0709 44.9213 96.9042 44.9765C96.7857 45.018 96.6769 45 96.5804 44.9172C96.5171 44.8675 96.4482 44.8233 96.3724 44.7805C96.258 44.728 96.1382 44.6921 96.0142 44.6825C95.8902 44.6673 95.7689 44.6811 95.656 44.7073C95.481 44.7487 95.3308 44.8288 95.2013 44.96C95.1558 45.0083 95.1117 45.0552 95.0732 45.1105C94.9988 45.214 94.923 45.3231 94.8844 45.4432C94.8527 45.5398 94.8417 45.6351 94.8458 45.7359C94.8417 45.8298 94.8513 45.9223 94.8624 46.0161C94.8817 46.1225 94.8982 46.2219 94.945 46.3171C94.9822 46.3931 95.0263 46.4676 95.0897 46.5256C95.1228 46.5656 95.1558 46.5988 95.1958 46.6291C95.2605 46.7023 95.3391 46.752 95.4231 46.8003C95.5761 46.8846 95.7414 46.9315 95.9205 46.9343C95.9577 46.937 95.9935 46.9398 96.0362 46.9356C96.1148 46.9274 96.185 46.9039 96.2608 46.8749C96.3435 46.8362 96.4261 46.799 96.4992 46.7479C96.5942 46.6858 96.6783 46.6112 96.7485 46.5173C96.7747 46.4925 96.7926 46.4704 96.8202 46.4441C96.8395 46.4345 96.8532 46.4262 96.8739 46.4179C96.9786 46.3765 97.0778 46.3668 97.1784 46.4262C97.2542 46.4704 97.3052 46.5422 97.3231 46.6278Z" fill="#141613"/>
<path d="M101.255 45.076C101.243 45.0125 101.238 44.9476 101.208 44.8937C101.193 44.8095 101.142 44.7308 101.113 44.648C101.063 44.5776 101.013 44.4989 100.95 44.4367C100.87 44.3498 100.77 44.2793 100.665 44.2255C100.465 44.122 100.261 44.0847 100.041 44.1178C99.9994 44.1261 99.9567 44.1316 99.9139 44.1399C99.8079 44.1592 99.7128 44.1979 99.6205 44.2573C99.5764 44.289 99.5323 44.3249 99.4882 44.3622C99.4179 44.4257 99.3656 44.4933 99.3146 44.5762C99.2457 44.6839 99.203 44.8081 99.1507 44.9269C99.1135 45.0056 99.1011 45.0967 99.1093 45.1892C99.1272 45.2886 99.1451 45.388 99.1617 45.4874C99.1782 45.5716 99.2058 45.6393 99.2402 45.7138C99.3105 45.8615 99.4124 45.9899 99.5406 46.0907C99.6095 46.1515 99.6907 46.2026 99.7693 46.2329C99.7996 46.2426 99.8258 46.2592 99.8478 46.2688C99.9305 46.2771 100.006 46.2937 100.081 46.3089C100.097 46.313 100.119 46.3102 100.139 46.3061C100.213 46.3075 100.286 46.3089 100.356 46.2882C100.377 46.2854 100.398 46.2813 100.413 46.2785C100.471 46.2757 100.524 46.2523 100.579 46.2343C100.775 46.1542 100.936 46.0245 101.063 45.8491C101.095 45.8132 101.117 45.7801 101.139 45.7331C101.177 45.6669 101.208 45.5882 101.23 45.5109C101.277 45.3645 101.274 45.2195 101.255 45.076ZM101.804 44.6852C101.837 44.8247 101.848 44.9697 101.873 45.1105C101.881 45.1616 101.891 45.2113 101.884 45.2554C101.883 45.33 101.88 45.3949 101.87 45.4694C101.87 45.5067 101.862 45.544 101.855 45.5813C101.841 45.6282 101.828 45.6752 101.814 45.7207C101.801 45.7373 101.79 45.7469 101.778 45.7635C101.779 45.7704 101.775 45.787 101.777 45.7994C101.733 45.9181 101.683 46.0438 101.615 46.1584C101.57 46.2315 101.516 46.3006 101.469 46.3668C101.441 46.4014 101.41 46.4428 101.38 46.4718C101.34 46.4994 101.31 46.5353 101.271 46.556C101.201 46.6112 101.114 46.6637 101.037 46.7148C100.939 46.7755 100.836 46.8169 100.735 46.8639C100.647 46.9012 100.549 46.926 100.45 46.944C100.387 46.955 100.329 46.9578 100.269 46.9536C100.198 46.9591 100.123 46.9509 100.049 46.9426C99.9401 46.9412 99.8423 46.9219 99.7335 46.8887C99.6728 46.8708 99.6191 46.8584 99.5571 46.8335C99.4855 46.8031 99.4138 46.7714 99.3601 46.7148C99.3311 46.683 99.2912 46.6609 99.2595 46.6388C99.1906 46.585 99.1176 46.5394 99.0473 46.4801C98.9963 46.4359 98.9523 46.3931 98.9137 46.3351C98.8379 46.2398 98.769 46.1404 98.7139 46.0341C98.6781 45.954 98.6491 45.8781 98.6216 45.8022C98.5858 45.7221 98.572 45.6434 98.5555 45.5592C98.5499 45.5233 98.5417 45.4805 98.5279 45.4404C98.5169 45.4197 98.5114 45.3852 98.5141 45.3618C98.521 45.3176 98.5072 45.2817 98.5017 45.2541C98.4948 45.1754 98.4962 45.1022 98.4976 45.029C98.51 44.8882 98.5362 44.7515 98.5858 44.619C98.6202 44.5251 98.6602 44.4298 98.7098 44.3415C98.7828 44.2103 98.871 44.093 98.9757 43.9866C99.1107 43.8444 99.2664 43.7299 99.44 43.6401C99.5516 43.5766 99.6687 43.5338 99.7886 43.5117C99.8092 43.509 99.823 43.5062 99.8437 43.4951C99.863 43.4855 99.8919 43.48 99.9126 43.4827C99.9291 43.4882 99.936 43.4869 99.9429 43.4855C100.09 43.451 100.231 43.462 100.378 43.4731C100.422 43.48 100.469 43.4869 100.513 43.4924C100.687 43.5269 100.851 43.5849 100.997 43.6746C101.03 43.6912 101.063 43.716 101.096 43.7312C101.169 43.7837 101.239 43.8444 101.303 43.9135C101.376 43.9963 101.447 44.0695 101.518 44.144C101.571 44.2006 101.613 44.26 101.644 44.3194C101.679 44.387 101.719 44.4519 101.745 44.521C101.77 44.5748 101.788 44.63 101.804 44.6852Z" fill="#141613"/>
<path d="M105.919 42.3781C105.932 42.3988 105.939 42.425 105.945 42.454C105.983 42.599 106.018 42.7453 106.052 42.8999L106.053 42.9068C106.071 43.0656 106.133 43.2189 106.159 43.3845C106.159 43.3845 106.162 43.3901 106.163 43.397C106.171 43.5129 106.213 43.6206 106.24 43.7325C106.24 43.7628 106.254 43.7877 106.26 43.8084C106.279 43.9078 106.322 43.9934 106.345 44.0831C106.373 44.1356 106.378 44.1867 106.392 44.2419L106.457 44.4918C106.468 44.5401 106.487 44.5884 106.486 44.6409C106.48 44.6492 106.49 44.6533 106.491 44.6602C106.525 44.7997 106.548 44.9419 106.597 45.0772C106.616 45.1241 106.632 45.1794 106.644 45.236C106.66 45.2981 106.66 45.3575 106.652 45.4113C106.615 45.5839 106.404 45.7426 106.191 45.6032C106.122 45.5618 106.069 45.501 106.056 45.4154C106.038 45.3464 106.02 45.2774 106.003 45.207C105.994 45.1725 105.985 45.1379 105.962 45.1076C105.951 45.0951 105.954 45.0786 105.948 45.0579C105.94 45.0164 105.926 44.9681 105.914 44.9198C105.907 44.8908 105.901 44.8701 105.901 44.8411C105.904 44.8245 105.899 44.8038 105.896 44.79C105.867 44.6713 105.838 44.5608 105.81 44.449C105.802 44.4214 105.788 44.3965 105.776 44.3689C105.743 44.304 105.743 44.304 105.682 44.2668C105.589 44.2474 105.528 44.2999 105.48 44.3703C105.443 44.4311 105.423 44.4959 105.409 44.5595C105.39 44.6009 105.379 44.6492 105.361 44.6906C105.341 44.7541 105.327 44.8176 105.305 44.8756C105.291 44.9377 105.277 44.9999 105.24 45.0537C105.241 45.0606 105.236 45.0689 105.229 45.0717C105.122 45.2318 104.941 45.2194 104.835 45.1504C104.816 45.1324 104.791 45.1158 104.769 45.0924C104.716 45.0316 104.661 44.9874 104.603 44.935C104.546 44.8825 104.479 44.8259 104.427 44.7652C104.398 44.7362 104.367 44.7003 104.332 44.6782C104.278 44.6409 104.225 44.6326 104.167 44.6395C104.158 44.634 104.143 44.6381 104.138 44.6464C104.117 44.6506 104.106 44.6616 104.094 44.6727C104.07 44.7017 104.055 44.7265 104.052 44.7431C104.045 44.8328 104.07 44.9005 104.088 44.9709C104.116 45.0813 104.145 45.1932 104.172 45.3036C104.181 45.3395 104.179 45.3616 104.201 45.3864C104.211 45.3989 104.216 45.4182 104.214 45.4348C104.204 45.4582 104.22 45.4914 104.226 45.5135C104.236 45.5839 104.26 45.6515 104.271 45.7233C104.28 45.7799 104.295 45.8434 104.302 45.9C104.31 45.9346 104.306 45.9732 104.3 46.0119C104.295 46.0202 104.292 46.0353 104.289 46.0588C104.27 46.0933 104.249 46.1292 104.22 46.1582C104.117 46.2797 103.937 46.2894 103.813 46.1803C103.756 46.1361 103.726 46.0768 103.702 46.0091C103.69 45.9608 103.676 45.9125 103.662 45.8572C103.629 45.7247 103.595 45.5839 103.558 45.4458C103.454 45.0358 103.358 44.6243 103.252 44.2129C103.237 44.1508 103.219 44.0804 103.195 44.0196C103.193 44.0072 103.19 43.9934 103.189 43.9851C103.164 43.9478 103.153 43.905 103.157 43.8678C103.15 43.8401 103.144 43.8194 103.139 43.7973C103.11 43.651 103.066 43.506 103.036 43.3583C103.025 43.2865 103.005 43.212 102.994 43.1402C102.98 43.0532 103.007 42.9814 103.056 42.9165C103.078 42.8889 103.111 42.8723 103.144 42.8571C103.158 42.853 103.18 42.8489 103.2 42.8433C103.267 42.8171 103.336 42.8226 103.408 42.842C103.463 42.8571 103.522 42.8861 103.563 42.9345C103.585 42.9593 103.614 42.9883 103.638 43.0201C103.715 43.1264 103.811 43.212 103.904 43.3155C103.964 43.3818 104.023 43.4398 104.085 43.5047C104.145 43.564 104.211 43.6206 104.263 43.6814C104.333 43.7532 104.398 43.8029 104.477 43.8567C104.54 43.9009 104.62 43.9244 104.7 43.9188C104.865 43.8457 104.952 43.7214 105.025 43.5682C105.057 43.495 105.076 43.4232 105.099 43.3417C105.139 43.2078 105.175 43.0573 105.214 42.922C105.244 42.8033 105.27 42.6777 105.301 42.5589C105.313 42.5189 105.317 42.4802 105.335 42.4388C105.357 42.3739 105.394 42.3201 105.449 42.2773C105.462 42.2662 105.476 42.2621 105.489 42.2593C105.539 42.2455 105.584 42.2276 105.635 42.2221C105.677 42.211 105.718 42.2234 105.759 42.2414C105.827 42.2773 105.875 42.3228 105.919 42.3781Z" fill="#141613"/>
<path d="M110.257 41.0124C110.271 41.0303 110.281 41.0565 110.287 41.0855C110.337 41.2277 110.384 41.3699 110.427 41.5218L110.429 41.5287C110.458 41.6847 110.531 41.8352 110.571 41.9967C110.571 41.9967 110.573 42.0036 110.574 42.0105C110.591 42.1265 110.64 42.2301 110.677 42.3391C110.68 42.3681 110.695 42.393 110.702 42.4137C110.727 42.5117 110.777 42.5932 110.806 42.6815C110.839 42.7312 110.848 42.7809 110.865 42.8348C110.892 42.9176 110.92 42.9977 110.947 43.0805C110.964 43.1275 110.985 43.173 110.987 43.2269C110.983 43.2338 110.993 43.2393 110.994 43.2462C111.04 43.3829 111.073 43.5223 111.131 43.6549C111.153 43.6991 111.172 43.7543 111.19 43.8081C111.211 43.8689 111.215 43.9282 111.211 43.9835C111.186 44.1574 110.986 44.33 110.764 44.2071C110.691 44.1726 110.635 44.116 110.615 44.0318C110.592 43.9641 110.57 43.8951 110.547 43.8275C110.535 43.7943 110.524 43.7584 110.5 43.7308C110.489 43.7184 110.49 43.7018 110.483 43.6825C110.469 43.6411 110.454 43.5941 110.438 43.5458C110.429 43.5182 110.423 43.4989 110.42 43.4685C110.423 43.4533 110.416 43.4326 110.41 43.4188C110.372 43.3028 110.337 43.1951 110.299 43.0861C110.29 43.0584 110.275 43.0336 110.259 43.0087C110.223 42.9439 110.223 42.9439 110.159 42.9135C110.063 42.8997 110.006 42.9563 109.964 43.0322C109.933 43.0957 109.917 43.162 109.907 43.2255C109.892 43.2683 109.885 43.3152 109.87 43.358C109.853 43.4243 109.845 43.4878 109.827 43.5472C109.818 43.6107 109.809 43.6742 109.775 43.7308C109.776 43.7377 109.772 43.746 109.767 43.7488C109.67 43.9172 109.49 43.9172 109.378 43.8564C109.359 43.8399 109.331 43.8261 109.309 43.8026C109.253 43.746 109.194 43.706 109.133 43.659C109.071 43.6107 109.001 43.5596 108.944 43.503C108.911 43.474 108.878 43.4409 108.842 43.4229C108.786 43.3898 108.732 43.3843 108.674 43.3967C108.666 43.3912 108.652 43.3967 108.647 43.405C108.626 43.4119 108.616 43.4229 108.604 43.434C108.583 43.463 108.569 43.492 108.567 43.5071C108.568 43.5983 108.597 43.6632 108.62 43.7322C108.656 43.8413 108.692 43.9489 108.729 44.058C108.74 44.0912 108.74 44.1146 108.764 44.1381C108.775 44.1478 108.782 44.1698 108.779 44.185C108.772 44.2099 108.791 44.2416 108.797 44.2624C108.813 44.3328 108.844 44.3977 108.859 44.4694C108.87 44.5261 108.89 44.5868 108.903 44.6434C108.912 44.6765 108.91 44.7166 108.908 44.7552C108.904 44.7635 108.903 44.7801 108.903 44.8022C108.884 44.8381 108.866 44.8753 108.839 44.9057C108.746 45.0355 108.564 45.059 108.433 44.9582C108.375 44.9181 108.339 44.8615 108.31 44.7953C108.295 44.7483 108.279 44.7014 108.261 44.6462C108.218 44.5164 108.173 44.3797 108.127 44.2444C107.992 43.844 107.867 43.4395 107.732 43.0391C107.711 42.977 107.689 42.9093 107.661 42.85C107.656 42.8362 107.652 42.8237 107.649 42.8168C107.623 42.7796 107.609 42.7381 107.612 42.7009C107.602 42.6732 107.595 42.6525 107.588 42.6318C107.547 42.4869 107.493 42.346 107.453 42.2011C107.437 42.132 107.412 42.0561 107.396 41.9857C107.375 41.9029 107.396 41.8269 107.441 41.7593C107.462 41.7303 107.493 41.711 107.525 41.693C107.537 41.6875 107.558 41.6806 107.579 41.6737C107.645 41.6447 107.712 41.6447 107.785 41.6585C107.842 41.6709 107.903 41.6944 107.948 41.7399C107.971 41.7634 108.002 41.7896 108.028 41.82C108.113 41.9194 108.217 41.9981 108.316 42.0934C108.382 42.1541 108.445 42.2094 108.51 42.2701C108.574 42.3253 108.644 42.3764 108.7 42.433C108.776 42.4993 108.844 42.5449 108.926 42.5932C108.992 42.6305 109.075 42.6498 109.154 42.6374C109.313 42.5531 109.391 42.422 109.453 42.2646C109.48 42.1886 109.493 42.1155 109.51 42.0326C109.539 41.896 109.564 41.7427 109.594 41.6046C109.614 41.4845 109.633 41.3575 109.654 41.2374C109.661 41.196 109.663 41.1573 109.68 41.1145C109.695 41.0483 109.729 40.9916 109.78 40.9447C109.793 40.9323 109.807 40.9281 109.82 40.924C109.867 40.9088 109.913 40.8853 109.962 40.8757C110.002 40.8632 110.044 40.8715 110.086 40.8867C110.158 40.9171 110.209 40.9599 110.257 41.0124Z" fill="#141613"/>
<path d="M112.826 41.6082C112.868 41.7145 112.911 41.8208 112.954 41.9271C113.014 42.0804 113.072 42.2267 113.133 42.38C113.176 42.4863 113.216 42.5857 113.257 42.692C113.279 42.7459 113.3 42.7983 113.313 42.8549C113.331 42.9171 113.353 42.9709 113.377 43.0303C113.4 43.091 113.392 43.1476 113.374 43.2015C113.338 43.3023 113.271 43.3658 113.176 43.3961C113.123 43.4182 113.061 43.4196 113.002 43.4044C112.985 43.403 112.969 43.4017 112.951 43.3934C112.933 43.3851 112.921 43.374 112.903 43.3671C112.85 43.334 112.816 43.2857 112.788 43.236L112.755 43.1545C112.746 43.1297 112.736 43.1021 112.729 43.0662C112.735 43.0413 112.717 43.0178 112.709 42.9971C112.678 42.9019 112.641 42.808 112.597 42.7182C112.568 42.6437 112.539 42.5705 112.51 42.4987C112.495 42.4573 112.485 42.4145 112.452 42.3897L112.43 42.3358C112.394 42.2433 112.356 42.1508 112.32 42.0569C112.306 42.0238 112.292 41.9893 112.286 41.9548C112.283 41.9092 112.268 41.8692 112.239 41.8346C112.225 41.8015 112.208 41.7767 112.195 41.7449C112.167 41.6773 112.145 41.6179 112.12 41.5571C112.105 41.5185 112.089 41.4771 112.082 41.4425C112.08 41.397 112.057 41.3583 112.054 41.3141L112.039 41.2741C111.999 41.1747 111.952 41.0767 111.893 40.9856L111.882 40.9579C111.828 40.8254 111.779 40.6998 111.726 40.5658C111.707 40.5189 111.699 40.4775 111.7 40.4223C111.717 40.2911 111.792 40.1917 111.912 40.1434C111.987 40.1144 112.055 40.1171 112.13 40.1489C112.177 40.1696 112.229 40.1876 112.265 40.2345C112.28 40.2524 112.295 40.2759 112.306 40.3035C112.334 40.3698 112.357 40.4292 112.374 40.4913C112.416 40.6376 112.478 40.7743 112.535 40.9138C112.593 41.0615 112.648 41.1996 112.706 41.3473C112.722 41.3873 112.739 41.426 112.761 41.4646C112.794 41.5061 112.806 41.5613 112.826 41.6082Z" fill="#141613"/>
<path d="M115.659 38.8834C115.708 39.0753 115.603 39.2244 115.495 39.2824C115.443 39.3073 115.392 39.3294 115.344 39.368C115.239 39.4467 115.177 39.5544 115.158 39.6814C115.144 39.7905 115.161 39.894 115.192 39.999C115.227 40.1094 115.279 40.2033 115.326 40.3082C115.348 40.3759 115.385 40.4394 115.411 40.4974C115.431 40.536 115.442 40.5802 115.472 40.612C115.486 40.623 115.487 40.6437 115.494 40.6575C115.538 40.7556 115.586 40.8605 115.63 40.9585C115.643 40.9834 115.661 41.0082 115.661 41.04C115.657 41.0482 115.673 41.0662 115.679 41.0786C115.695 41.1173 115.717 41.1628 115.735 41.2029C115.749 41.2526 115.774 41.2871 115.782 41.3396C115.785 41.3616 115.793 41.3824 115.803 41.4017C115.841 41.4859 115.88 41.5701 115.917 41.6557C115.951 41.7289 115.98 41.7924 116.013 41.8642C116.046 41.9374 116.051 42.0147 116.026 42.0961C116.001 42.1638 115.954 42.2163 115.895 42.2591C115.877 42.2756 115.859 42.2839 115.836 42.2867C115.771 42.3005 115.71 42.306 115.654 42.2673C115.644 42.2632 115.622 42.266 115.612 42.2618C115.527 42.2149 115.472 42.1445 115.433 42.0602C115.29 41.7317 115.141 41.4044 114.992 41.0786C114.968 41.0262 114.941 40.9668 114.904 40.9212C114.891 40.9116 114.895 40.9005 114.889 40.8881C114.859 40.8218 114.829 40.7569 114.8 40.692C114.783 40.6755 114.787 40.6492 114.786 40.6272C114.754 40.6106 114.749 40.5802 114.736 40.5554C114.692 40.4725 114.659 40.3855 114.614 40.3027C114.547 40.1757 114.452 40.0694 114.33 39.9921C114.215 39.9327 114.101 39.923 113.977 39.9479C113.963 39.9479 113.945 39.9617 113.933 39.9686C113.9 39.9838 113.867 39.999 113.835 40.0128C113.75 40.0528 113.66 40.0625 113.573 40.0459C113.571 40.039 113.564 40.0431 113.562 40.0362C113.312 39.9382 113.299 39.6345 113.509 39.4895C113.608 39.4453 113.718 39.3956 113.821 39.3473C113.878 39.3142 113.936 39.3031 113.978 39.259C113.985 39.2576 113.999 39.2507 114.006 39.2479C114.155 39.1789 114.298 39.1126 114.439 39.0394C114.465 39.0284 114.491 39.0173 114.514 38.998C114.527 38.9925 114.546 38.9828 114.567 38.9732C114.663 38.929 114.762 38.8848 114.859 38.8392L114.873 38.8337C114.999 38.7992 115.111 38.7329 115.221 38.6818C115.267 38.6611 115.318 38.6529 115.366 38.6542C115.508 38.6694 115.626 38.7564 115.659 38.8834Z" fill="#141613"/>
<path d="M119.396 36.7707C119.414 36.7859 119.426 36.8107 119.44 36.8356C119.514 36.9681 119.587 37.0993 119.656 37.2415L119.659 37.2484C119.717 37.3961 119.816 37.53 119.883 37.6805C119.883 37.6805 119.886 37.6874 119.889 37.6943C119.927 37.8048 119.995 37.8973 120.051 37.9994C120.057 38.027 120.078 38.0491 120.089 38.0671C120.13 38.1596 120.195 38.2314 120.239 38.3114C120.28 38.3542 120.298 38.4026 120.326 38.4536C120.367 38.5282 120.408 38.6028 120.451 38.6787C120.474 38.7229 120.506 38.7629 120.517 38.814C120.514 38.8237 120.524 38.8264 120.527 38.8333C120.597 38.959 120.654 39.0915 120.736 39.2102C120.767 39.2503 120.794 39.3 120.822 39.3511C120.853 39.4063 120.867 39.4643 120.874 39.5181C120.881 39.6948 120.717 39.9019 120.476 39.8219C120.399 39.7984 120.333 39.7528 120.297 39.6755C120.262 39.612 120.228 39.5499 120.193 39.4864C120.175 39.4546 120.159 39.4242 120.129 39.398C120.115 39.3897 120.113 39.3745 120.104 39.3552C120.083 39.3179 120.058 39.2724 120.035 39.2296C120.021 39.2047 120.01 39.1854 120.002 39.1578C120.002 39.1412 119.992 39.1219 119.985 39.1094C119.926 39.0031 119.871 38.9024 119.815 38.8029C119.801 38.7767 119.78 38.7546 119.761 38.7339C119.713 38.6787 119.713 38.6787 119.645 38.658C119.549 38.6621 119.503 38.7284 119.476 38.8112C119.456 38.8775 119.452 38.9452 119.455 39.01C119.447 39.0542 119.449 39.1025 119.441 39.1495C119.437 39.2158 119.44 39.2793 119.433 39.3414C119.436 39.4049 119.438 39.4698 119.416 39.5319C119.42 39.5388 119.418 39.5485 119.411 39.5512C119.347 39.7335 119.17 39.7666 119.048 39.728C119.025 39.7155 118.997 39.7073 118.97 39.6879C118.905 39.6437 118.839 39.6148 118.77 39.5775C118.701 39.543 118.623 39.5043 118.558 39.4587C118.521 39.438 118.481 39.4104 118.442 39.3994C118.38 39.3773 118.327 39.3828 118.273 39.4035C118.263 39.4008 118.251 39.4077 118.248 39.4173C118.229 39.4284 118.219 39.4422 118.211 39.4532C118.196 39.4877 118.187 39.5154 118.189 39.5319C118.205 39.6203 118.245 39.6796 118.28 39.7432C118.335 39.8439 118.391 39.9447 118.448 40.0441C118.464 40.0773 118.468 40.098 118.495 40.1173C118.507 40.127 118.518 40.1435 118.519 40.1601C118.517 40.1863 118.54 40.2139 118.551 40.2333C118.579 40.2995 118.621 40.3589 118.649 40.4238C118.671 40.479 118.701 40.5356 118.723 40.5895C118.74 40.6199 118.745 40.6585 118.749 40.6972C118.747 40.7068 118.748 40.722 118.752 40.7455C118.74 40.7841 118.73 40.8242 118.708 40.8601C118.641 41.0023 118.467 41.0589 118.32 40.9857C118.255 40.9553 118.211 40.9056 118.169 40.8463C118.146 40.8035 118.121 40.7593 118.094 40.7096C118.028 40.5895 117.959 40.4638 117.888 40.3382C117.684 39.9668 117.485 39.594 117.281 39.2227C117.249 39.1661 117.215 39.1039 117.177 39.0515C117.171 39.039 117.164 39.0266 117.161 39.0197C117.128 38.988 117.106 38.9521 117.102 38.9134C117.087 38.8872 117.077 38.8692 117.067 38.8513C117 38.7146 116.921 38.5862 116.854 38.4523C116.826 38.3846 116.788 38.3156 116.76 38.2493C116.724 38.172 116.73 38.0933 116.763 38.0174C116.778 37.9856 116.804 37.9621 116.833 37.9387C116.845 37.9318 116.863 37.9207 116.883 37.9097C116.942 37.8696 117.009 37.8572 117.082 37.8572C117.14 37.8572 117.205 37.871 117.257 37.9069C117.285 37.9263 117.321 37.947 117.351 37.9704C117.453 38.0546 117.567 38.114 117.683 38.1886C117.759 38.2369 117.831 38.2783 117.906 38.3266C117.979 38.3681 118.058 38.4081 118.124 38.4523C118.209 38.5034 118.284 38.5351 118.376 38.5669C118.448 38.5931 118.53 38.5959 118.606 38.571C118.748 38.4592 118.8 38.3142 118.832 38.1499C118.846 38.0685 118.846 37.9953 118.849 37.9111C118.851 37.7702 118.849 37.6156 118.851 37.4748C118.85 37.3519 118.845 37.2235 118.843 37.102C118.845 37.0606 118.84 37.0219 118.847 36.9764C118.85 36.9101 118.873 36.848 118.916 36.7914C118.924 36.7776 118.938 36.7707 118.951 36.7638C118.995 36.7403 119.035 36.7085 119.082 36.6906C119.12 36.6699 119.161 36.6713 119.206 36.6795C119.281 36.6947 119.341 36.7279 119.396 36.7707Z" fill="#141613"/>
<path d="M124.25 37.2601C124.268 37.3263 124.279 37.3968 124.263 37.4603C124.243 37.5238 124.213 37.579 124.152 37.6204C124.015 37.7102 123.877 37.8027 123.74 37.8938C123.554 38.018 123.37 38.1409 123.191 38.261C123.137 38.2969 123.085 38.3232 123.042 38.3604C123.01 38.3894 122.978 38.4198 122.948 38.4391C122.86 38.4902 122.772 38.5233 122.668 38.5233C122.611 38.5275 122.549 38.5247 122.495 38.5082C122.405 38.4916 122.331 38.4446 122.285 38.3632C122.243 38.2983 122.193 38.2362 122.16 38.1616C122.127 38.0981 122.087 38.0374 122.047 37.9794L122.024 37.9421C121.953 37.8758 121.905 37.7889 121.849 37.7046C121.781 37.6038 121.714 37.5017 121.642 37.394C121.479 37.1496 121.317 36.9039 121.16 36.6554C121.147 36.636 121.131 36.6126 121.125 36.5905C121.118 36.578 121.106 36.5601 121.094 36.5421C120.99 36.3861 120.891 36.2384 120.792 36.0879C120.752 36.0272 120.727 35.9664 120.722 35.8933C120.719 35.8353 120.729 35.7856 120.752 35.7428C120.791 35.6572 120.85 35.5923 120.928 35.5398C121.05 35.4501 121.174 35.3769 121.298 35.2927C121.333 35.2692 121.375 35.2416 121.411 35.2181C121.584 35.1022 121.752 34.9903 121.919 34.8785C122.008 34.8191 122.093 34.7625 122.181 34.7032C122.225 34.6659 122.27 34.6534 122.327 34.6493C122.411 34.6452 122.482 34.6755 122.54 34.7239C122.597 34.7708 122.637 34.8315 122.659 34.9033C122.684 35.0069 122.663 35.0911 122.595 35.1698C122.572 35.2029 122.547 35.2278 122.517 35.2485C122.451 35.2913 122.385 35.3355 122.314 35.3838C122.309 35.3879 122.296 35.3948 122.288 35.4087C122.256 35.4404 122.214 35.4666 122.175 35.486C122.148 35.4956 122.13 35.5067 122.105 35.5232C122.04 35.566 121.969 35.6144 121.902 35.6585C121.811 35.7179 121.76 35.7952 121.721 35.8919C121.711 35.9153 121.7 35.9388 121.696 35.9678C121.659 36.0962 121.692 36.1956 121.78 36.2923C121.799 36.3061 121.82 36.3254 121.849 36.342C121.922 36.3875 122.003 36.3944 122.084 36.3737C122.177 36.3571 122.262 36.3157 122.345 36.2605C122.375 36.2412 122.405 36.2205 122.436 36.1997C122.531 36.1376 122.634 36.0852 122.735 36.0437C122.798 36.0106 122.875 35.994 122.955 36.0106C122.974 36.0147 123.005 36.0203 123.025 36.0396C123.083 36.0879 123.123 36.1473 123.133 36.2274C123.152 36.3351 123.119 36.4262 123.051 36.5062C123.035 36.5352 123.006 36.5532 122.981 36.5698C122.945 36.5946 122.903 36.6222 122.868 36.6457C122.839 36.665 122.803 36.6788 122.783 36.712C122.775 36.7244 122.752 36.7313 122.74 36.7396C122.693 36.7713 122.645 36.8031 122.598 36.8348C122.499 36.908 122.441 37.0005 122.416 37.1192C122.405 37.1703 122.398 37.209 122.404 37.2573C122.405 37.2987 122.409 37.3319 122.43 37.3609C122.466 37.4409 122.516 37.5031 122.58 37.5624C122.649 37.6121 122.726 37.637 122.816 37.6315C122.904 37.6232 122.983 37.5969 123.062 37.561C123.153 37.5182 123.233 37.4561 123.32 37.405C123.386 37.336 123.473 37.296 123.552 37.2338C123.57 37.2228 123.589 37.2104 123.609 37.2048C123.626 37.2021 123.644 37.1897 123.655 37.1814C123.703 37.151 123.757 37.1151 123.811 37.0792C123.84 37.0585 123.873 37.0557 123.9 37.0461C123.917 37.0433 123.926 37.0461 123.942 37.0433C124.063 37.0309 124.205 37.1262 124.25 37.2601Z" fill="#141613"/>
<path d="M125.726 32.7974C125.836 32.9382 125.948 33.0776 126.058 33.2184C126.09 33.2585 126.127 33.293 126.146 33.3413C126.15 33.3565 126.163 33.3634 126.177 33.3814C126.266 33.4932 126.36 33.6119 126.447 33.7238C126.466 33.7458 126.478 33.7735 126.502 33.7817C126.517 33.7886 126.524 33.808 126.534 33.8204C126.732 34.0744 126.928 34.3216 127.123 34.5687C127.145 34.5977 127.162 34.6294 127.193 34.6584C127.222 34.6819 127.249 34.7164 127.275 34.7496C127.298 34.7786 127.324 34.8117 127.346 34.8393C127.368 34.8683 127.39 34.8973 127.402 34.9332C127.408 34.9636 127.419 35.0022 127.417 35.0312C127.419 35.0478 127.417 35.0685 127.419 35.0823C127.407 35.1472 127.374 35.2107 127.344 35.2632C127.302 35.3032 127.258 35.3294 127.202 35.3391C127.166 35.3391 127.126 35.3349 127.086 35.3198C127.042 35.3087 126.999 35.2894 126.954 35.2783C126.87 35.2535 126.79 35.2342 126.713 35.2038C126.619 35.1789 126.527 35.1417 126.44 35.1002C126.348 35.0547 126.246 35.016 126.142 34.9898C126.122 34.987 126.112 34.9856 126.093 34.9829C126.022 34.9649 125.953 34.947 125.885 34.929C125.84 34.907 125.791 34.9014 125.741 34.8973C125.654 34.8918 125.581 34.9125 125.518 34.9718C125.449 35.0353 125.411 35.1127 125.429 35.2065C125.438 35.2632 125.452 35.3156 125.493 35.357C125.511 35.3791 125.528 35.4026 125.544 35.4344C125.548 35.4509 125.557 35.462 125.566 35.4716C125.682 35.6194 125.796 35.7643 125.912 35.912C125.942 35.9507 125.963 35.999 125.989 36.0335C126.028 36.1399 126.026 36.2406 125.964 36.3359C125.891 36.4298 125.801 36.4753 125.685 36.4671C125.643 36.4615 125.594 36.4463 125.557 36.4215C125.524 36.4008 125.492 36.3732 125.466 36.3387C125.288 36.1136 125.109 35.8982 124.931 35.6746C124.86 35.5848 124.791 35.4841 124.716 35.3888C124.707 35.3764 124.697 35.3653 124.689 35.3557C124.678 35.317 124.65 35.2949 124.628 35.2659C124.61 35.2342 124.584 35.1996 124.551 35.1707C124.526 35.1361 124.5 35.092 124.463 35.0685C124.448 35.0616 124.443 35.045 124.435 35.034C124.419 35.0119 124.399 34.9884 124.377 34.9608C124.165 34.6902 123.942 34.4196 123.73 34.149C123.706 34.1214 123.694 34.0938 123.673 34.0661C123.631 33.9999 123.607 33.9253 123.613 33.8397C123.618 33.7997 123.636 33.7666 123.657 33.7224C123.668 33.7141 123.682 33.6948 123.688 33.681C123.704 33.6671 123.727 33.6492 123.744 33.6354C123.836 33.5898 123.921 33.5954 124.014 33.6313C124.176 33.6879 124.337 33.7417 124.503 33.8024C124.679 33.8618 124.846 33.9226 125.022 33.9847C125.165 34.0275 125.311 34.0303 125.451 33.975C125.482 33.9681 125.511 33.9447 125.53 33.9378C125.561 33.906 125.576 33.866 125.594 33.8328C125.606 33.7776 125.591 33.7251 125.573 33.6768C125.558 33.6243 125.543 33.5815 125.513 33.5415C125.503 33.5305 125.493 33.5194 125.495 33.5098C125.478 33.4766 125.456 33.449 125.434 33.42C125.372 33.3427 125.31 33.264 125.247 33.1839C125.216 33.1453 125.19 33.1025 125.161 33.0528C125.147 33.0348 125.13 33.0127 125.117 32.9962C125.059 32.923 125.022 32.8415 125.03 32.7352C125.036 32.6855 125.058 32.6317 125.094 32.5847C125.117 32.5668 125.138 32.5488 125.161 32.5323C125.267 32.4467 125.4 32.4522 125.514 32.5268C125.532 32.5392 125.55 32.5613 125.564 32.5792C125.621 32.6524 125.668 32.7228 125.726 32.7974Z" fill="#141613"/>
<path d="M128.331 30.1278C128.437 30.2934 128.386 30.4688 128.302 30.5585C128.261 30.5985 128.219 30.6372 128.188 30.6869C128.113 30.796 128.09 30.9175 128.112 31.0459C128.133 31.1522 128.182 31.2461 128.246 31.3344C128.313 31.4269 128.393 31.5015 128.472 31.5857C128.516 31.6423 128.569 31.6892 128.613 31.7362C128.644 31.7666 128.667 31.8038 128.707 31.8245C128.722 31.8301 128.732 31.8508 128.742 31.8618C128.816 31.9391 128.894 32.0234 128.969 32.102C128.988 32.1228 129.013 32.1393 129.023 32.1697C129.021 32.1794 129.042 32.1904 129.05 32.2015C129.08 32.2318 129.115 32.2691 129.145 32.2995C129.174 32.3423 129.209 32.3685 129.232 32.4141C129.242 32.4362 129.257 32.4513 129.272 32.4665C129.335 32.5342 129.399 32.6032 129.464 32.6709C129.517 32.7275 129.567 32.7799 129.622 32.8379C129.676 32.8945 129.703 32.9677 129.706 33.0533C129.705 33.1251 129.677 33.19 129.634 33.2493C129.623 33.2687 129.608 33.2839 129.588 33.2935C129.531 33.328 129.475 33.3515 129.408 33.3336C129.399 33.3336 129.378 33.3432 129.368 33.3432C129.273 33.3253 129.198 33.277 129.134 33.2093C128.893 32.9428 128.646 32.6833 128.401 32.421C128.361 32.3796 128.317 32.3326 128.268 32.2995C128.252 32.294 128.252 32.2843 128.244 32.2746C128.193 32.2222 128.145 32.1697 128.095 32.1172C128.075 32.1076 128.072 32.0813 128.062 32.0606C128.026 32.0551 128.013 32.0289 127.992 32.0068C127.923 31.9447 127.864 31.8729 127.795 31.8094C127.692 31.7099 127.566 31.6395 127.426 31.605C127.299 31.5871 127.187 31.6133 127.079 31.6754C127.063 31.681 127.052 31.7017 127.041 31.7099C127.017 31.7348 126.99 31.761 126.964 31.7845C126.897 31.848 126.814 31.8867 126.727 31.8991C126.723 31.8936 126.718 31.8991 126.712 31.8936C126.445 31.8825 126.336 31.5981 126.489 31.3952C126.567 31.3206 126.656 31.2378 126.74 31.1577C126.781 31.108 126.832 31.079 126.86 31.0238C126.865 31.0196 126.875 31.01 126.88 31.0044C127 30.8912 127.114 30.7835 127.225 30.6703C127.245 30.6496 127.267 30.6289 127.282 30.6054C127.292 30.5958 127.309 30.5806 127.325 30.5654L127.558 30.3431C127.564 30.3376 127.569 30.3335 127.569 30.3335C127.677 30.2617 127.762 30.1609 127.85 30.078C127.887 30.0422 127.933 30.0187 127.98 30.0049C128.117 29.9745 128.258 30.0187 128.331 30.1278Z" fill="#141613"/>
<path d="M130.096 28.8456C130.088 28.8248 130.069 28.8097 130.052 28.7931C130.03 28.7738 130.011 28.7682 129.986 28.7655C129.968 28.7627 129.949 28.7641 129.935 28.7655C129.901 28.7669 129.868 28.782 129.844 28.8083C129.833 28.8221 129.817 28.84 129.807 28.858C129.785 28.8966 129.792 28.9532 129.824 28.9836C129.855 29.0112 129.888 29.0416 129.92 29.0692C129.938 29.0858 129.959 29.0858 129.982 29.0803C130.043 29.0706 130.081 29.0278 130.106 28.9712C130.127 28.927 130.122 28.8884 130.096 28.8456ZM130.165 28.6606L130.179 28.6744C130.222 28.7199 130.262 28.7682 130.28 28.829C130.286 28.8497 130.292 28.8663 130.296 28.8897C130.307 28.927 130.333 28.9491 130.364 28.9643C130.393 28.9767 130.43 28.985 130.461 28.9933C130.492 29.0016 130.521 29.0071 130.551 29.0168C130.565 29.0223 130.576 29.0319 130.58 29.043C130.613 29.0913 130.601 29.1396 130.548 29.1769C130.536 29.1838 130.519 29.188 130.499 29.1824C130.481 29.1797 130.461 29.1741 130.439 29.1686C130.398 29.1576 130.359 29.1424 130.325 29.13C130.304 29.1244 130.284 29.1189 130.263 29.1272C130.22 29.1327 130.193 29.1548 130.182 29.1962C130.165 29.2446 130.182 29.2915 130.213 29.3274C130.229 29.3467 130.245 29.3633 130.263 29.3799C130.296 29.4144 130.296 29.4806 130.246 29.5124C130.22 29.5276 130.193 29.529 130.169 29.5138C130.154 29.5069 130.143 29.4986 130.132 29.4889C130.1 29.4586 130.067 29.4309 130.029 29.402C130.005 29.3923 129.987 29.3702 129.968 29.3467C129.952 29.3246 129.932 29.3012 129.908 29.2777C129.843 29.2266 129.785 29.1686 129.724 29.1134C129.686 29.0789 129.64 29.0444 129.6 29.0085C129.587 28.9947 129.569 28.9795 129.556 28.9629C129.54 28.9463 129.534 28.9091 129.547 28.8884C129.555 28.8718 129.562 28.8566 129.574 28.8428C129.595 28.8207 129.61 28.8041 129.629 28.782C129.665 28.7351 129.711 28.6992 129.756 28.6619C129.863 28.5722 129.982 28.5694 130.102 28.6233C130.122 28.6371 130.143 28.6481 130.165 28.6606ZM130.755 28.6233C130.748 28.6026 130.733 28.5846 130.72 28.5598C130.709 28.5501 130.697 28.5377 130.689 28.5253C130.657 28.4645 130.605 28.43 130.559 28.3886C130.526 28.3582 130.478 28.3485 130.446 28.3182C130.372 28.2781 130.296 28.2477 130.216 28.2284C130.213 28.2257 130.207 28.2257 130.2 28.227C130.067 28.216 129.936 28.216 129.814 28.2602C129.789 28.2712 129.767 28.2767 129.742 28.2809C129.726 28.2919 129.709 28.2974 129.697 28.303C129.613 28.3527 129.542 28.4051 129.478 28.4755C129.38 28.5832 129.31 28.7061 129.289 28.858C129.286 28.869 129.281 28.8815 129.278 28.8994C129.268 28.9243 129.27 28.9505 129.271 28.9781C129.27 29.0665 129.281 29.1479 129.307 29.2349C129.311 29.2459 129.311 29.2597 129.312 29.2736C129.328 29.3343 129.348 29.384 129.387 29.4323C129.41 29.4655 129.432 29.4986 129.457 29.5345C129.501 29.587 129.553 29.6284 129.609 29.6698C129.727 29.7374 129.846 29.794 129.983 29.8065C130.011 29.8051 130.034 29.8148 130.055 29.8134C130.109 29.8106 130.164 29.8148 130.218 29.7913C130.227 29.7871 130.244 29.7899 130.258 29.783C130.329 29.7747 130.399 29.7471 130.457 29.7029C130.477 29.6877 130.5 29.6712 130.523 29.6587C130.58 29.6311 130.623 29.5925 130.66 29.5497C130.701 29.5041 130.73 29.4503 130.76 29.3937C130.787 29.344 130.811 29.2956 130.821 29.2404C130.829 29.21 130.842 29.1741 130.847 29.141C130.86 29.0609 130.869 28.9864 130.849 28.9091C130.844 28.898 130.843 28.8842 130.843 28.8773C130.84 28.8304 130.825 28.7903 130.81 28.7503C130.789 28.7061 130.777 28.6633 130.755 28.6233ZM130.838 28.3292C130.853 28.3485 130.871 28.3637 130.889 28.3803C130.915 28.4107 130.938 28.4397 130.955 28.4728C130.978 28.5266 131.011 28.5763 131.025 28.6329C131.025 28.6398 131.029 28.6495 131.033 28.6523C131.079 28.7462 131.087 28.8442 131.101 28.9422C131.102 28.956 131.102 28.9698 131.103 28.9836L131.097 29.0361C131.101 29.13 131.076 29.2183 131.052 29.3067C131.05 29.3177 131.047 29.3288 131.044 29.3371C131.04 29.3868 131.018 29.4254 131 29.4668C130.977 29.5221 130.944 29.5718 130.9 29.6215C130.879 29.6436 130.861 29.6657 130.842 29.6933C130.839 29.7043 130.832 29.7112 130.825 29.7181C130.804 29.743 130.781 29.7678 130.752 29.7871C130.674 29.852 130.595 29.9238 130.49 29.9542C130.441 29.9804 130.384 30.0011 130.331 30.0177C130.292 30.0329 130.253 30.0384 130.209 30.037C130.186 30.0412 130.158 30.0426 130.138 30.0439C130.044 30.0564 129.954 30.0467 129.862 30.0274C129.835 30.0232 129.807 30.0177 129.779 30.0122C129.755 30.0108 129.734 30.0039 129.713 29.9915C129.702 29.9818 129.695 29.9749 129.684 29.9721C129.596 29.957 129.525 29.9004 129.447 29.8548C129.405 29.8313 129.377 29.7913 129.343 29.7554C129.329 29.7416 129.322 29.7223 129.3 29.7098C129.239 29.6546 129.199 29.5925 129.161 29.5193C129.119 29.4434 129.085 29.3592 129.059 29.2722C129.038 29.1949 129.031 29.1093 129.027 29.0292C129.023 28.974 129.034 28.9187 129.037 28.8649C129.042 28.8359 129.052 28.8055 129.053 28.7738C129.056 28.7641 129.059 28.7544 129.062 28.7434C129.092 28.6661 129.122 28.5888 129.151 28.5142C129.165 28.4921 129.18 28.4686 129.201 28.4466C129.219 28.4176 129.242 28.3927 129.261 28.3637C129.289 28.3251 129.322 28.2905 129.361 28.2602C129.392 28.2312 129.429 28.198 129.465 28.1732C129.491 28.1511 129.516 28.129 129.548 28.118C129.626 28.0779 129.709 28.0365 129.796 28.0117C129.868 27.9909 129.938 27.9771 130.019 27.973C130.091 27.973 130.16 27.9758 130.231 27.9896C130.291 28.0034 130.348 28.0103 130.401 28.031C130.463 28.0558 130.523 28.0821 130.579 28.1138C130.642 28.1511 130.704 28.1884 130.748 28.2353C130.784 28.2671 130.818 28.2933 130.838 28.3292Z" fill="#141613"/>
<path d="M97.8383 15.4464L97.8315 15.4409C97.5738 15.5831 96.0707 16.3259 94.0867 15.8468C91.1603 15.1386 90.3143 15.5527 89.9974 15.7088C89.9699 15.7226 89.9451 15.7336 89.9244 15.7419C89.6241 15.8731 89.3926 16.1119 89.2727 16.417C89.1515 16.7208 89.157 17.0549 89.2865 17.3558C89.5565 17.9771 90.2785 18.2615 90.8971 17.9937C90.915 17.9868 91.0514 17.9495 91.3118 17.9233C91.8712 17.8694 92.403 18.0406 92.8012 18.4106C93.2407 18.8166 93.486 19.424 93.4736 20.0798C93.435 22.2598 93.2614 24.0947 91.4413 26.1863C90.2689 27.538 88.4075 28.3456 86.4662 28.3456C81.6371 28.3456 78.752 24.854 78.752 21.4784C78.752 13.5122 87.0022 13.2126 87.3535 13.2043C88.0176 13.1905 88.5563 12.6382 88.5535 11.9728C88.5508 11.3073 88.0093 10.7592 87.3452 10.7509C87.3342 10.7509 86.1645 10.7261 85.0002 10.1738C83.5522 9.48765 82.8482 8.33069 82.8482 6.63804C82.8482 4.29097 84.5318 2.45336 86.6811 2.45336C90.2427 2.45336 90.8916 4.99785 90.9536 5.28779C91.0239 5.64123 91.2429 5.94497 91.5571 6.12169C91.8712 6.29702 92.246 6.32464 92.5863 6.199C93.1498 5.98915 93.4722 5.36096 93.3399 4.73692C92.9665 2.978 91.1437 -1.14441e-05 86.6811 -1.14441e-05C83.1595 -1.14441e-05 80.3999 2.91587 80.3999 6.63804C80.3999 7.43604 80.517 8.18987 80.7484 8.87742C81.3409 10.6363 80.8738 12.5499 79.5567 13.7496C78.0728 15.104 76.3037 17.545 76.3037 21.4784C76.3037 26.0593 80.105 30.799 86.4662 30.799C89.1046 30.799 91.6563 29.6766 93.2889 27.7975C95.6491 25.0818 95.8833 22.634 95.9274 20.1571C95.9425 19.2528 96.6149 18.4645 97.527 18.2836C98.3027 18.1304 99.0687 17.7328 99.4779 17.2689C99.7838 16.9237 99.9229 16.6089 99.9036 16.3052C99.8857 16.0249 99.7273 15.7516 99.4324 15.4934C98.6884 14.839 97.8714 15.4216 97.8383 15.4464Z" fill="#141613"/>
<path d="M3.22066 9.96094C3.22066 8.33319 4.05146 7.50757 5.69101 7.50757C6.5163 7.50757 7.90096 7.82649 7.90096 9.96094C7.90096 10.6375 8.44931 11.1883 9.12442 11.1883C9.79953 11.1883 10.3493 10.6375 10.3493 9.96094C10.3493 7.51861 8.90811 5.0542 5.69101 5.0542C2.704 5.0542 0.772357 6.98017 0.772357 9.96094C0.772357 12.6214 1.51911 15.1411 5.16332 18.7928C7.01367 20.647 8.15998 22.3024 8.15998 24.8248C8.15998 27.1608 7.31265 28.3454 5.64003 28.3454C4.44412 28.3454 3.16831 28.072 3.16831 24.8137C3.16831 24.1372 2.61857 23.5863 1.94484 23.5863C1.26973 23.5863 0.720001 24.1372 0.720001 24.8137C0.720001 27.0476 1.35929 30.7974 5.64003 30.7974C8.7042 30.7974 10.6083 28.5097 10.6083 24.8248C10.6083 21.2697 8.82269 18.9902 6.89519 17.0574C3.50173 13.6583 3.22066 11.7613 3.22066 9.96094Z" fill="#141613"/>
<path d="M21.0052 7.46808C23.1766 7.46808 23.3461 9.15521 23.3461 9.67295C23.3461 10.3481 23.8944 10.8989 24.5695 10.8989C25.2447 10.8989 25.7944 10.3481 25.7944 9.67295C25.7944 7.42943 24.2954 5.01471 21.0052 5.01471C18.072 5.01471 15.9419 7.03871 15.9419 9.82758V22.3844C15.9419 25.1263 18.0251 27.1959 20.7903 27.1959C24.0405 27.1959 25.742 24.7742 25.742 22.3844C25.742 21.7079 25.1937 21.157 24.5172 21.157C23.8435 21.157 23.2937 21.7079 23.2937 22.3844C23.2937 23.4709 22.6379 24.7411 20.7903 24.7411C19.3767 24.7411 18.3902 23.7719 18.3902 22.3844V9.82758C18.3902 8.37239 19.3919 7.46808 21.0052 7.46808Z" fill="#141613"/>
<path d="M38.9324 19.8971C38.9324 21.0623 37.9859 22.0108 36.8231 22.0108H35.995C34.8322 22.0108 33.8856 21.0623 33.8856 19.8971V9.64176C33.8856 8.47651 34.8322 7.52802 35.995 7.52802H36.8231C37.9859 7.52802 38.9324 8.47651 38.9324 9.64176V19.8971ZM36.8231 5.07465H35.995C33.482 5.07465 31.4387 7.1235 31.4387 9.64176V19.8971C31.4387 22.4153 33.482 24.4642 35.995 24.4642H36.8231C39.3361 24.4642 41.3807 22.4153 41.3807 19.8971V9.64176C41.3807 7.1235 39.3361 5.07465 36.8231 5.07465Z" fill="#141613"/>
<path d="M55.6891 4.96832C55.014 4.96832 54.4642 5.51919 54.4642 6.1957V17.844C54.4642 18.9596 53.559 19.8667 52.4458 19.8667H51.4373C50.324 19.8667 49.4188 18.9596 49.4188 17.844V6.1957C49.4188 5.51919 48.8691 4.96832 48.1954 4.96832C47.5202 4.96832 46.9705 5.51919 46.9705 6.1957V17.844C46.9705 20.3126 48.9738 22.32 51.4373 22.32H52.4458C54.9092 22.32 56.9125 20.3126 56.9125 17.844V6.1957C56.9125 5.51919 56.3642 4.96832 55.6891 4.96832Z" fill="#141613"/>
<path d="M72.157 5.07628H63.3324C62.6766 5.07628 62.1172 5.56227 62.058 6.18217C62.0249 6.53285 62.1351 6.86972 62.3707 7.1279C62.6022 7.38331 62.9328 7.52966 63.2759 7.52966H64.8796C65.7449 7.52966 66.4475 8.23516 66.4475 9.10219V19.7261C66.4475 20.3833 66.9325 20.9438 67.5525 21.0032C67.9025 21.0363 68.2373 20.9245 68.4949 20.6898C68.7498 20.4578 68.8972 20.1265 68.8972 19.7813V9.10219C68.8972 8.23516 69.6013 7.52966 70.4651 7.52966H72.1006C72.7578 7.52966 73.3158 7.04368 73.375 6.42378C73.4094 6.0731 73.2978 5.73761 73.0636 5.47943C72.8322 5.22263 72.5015 5.07628 72.157 5.07628Z" fill="#141613"/>
<path d="M120.374 7.50385H123.401C124.057 7.50385 124.616 7.01787 124.675 6.39797C124.708 6.04591 124.597 5.71041 124.362 5.45224C124.131 5.19682 123.8 5.05047 123.456 5.05047H117.697C117.02 5.05047 116.472 5.60135 116.472 6.27647V20.82C116.472 21.4951 117.02 22.046 117.697 22.046H123.456C123.8 22.046 124.131 21.8996 124.362 21.6442C124.597 21.3847 124.708 21.0492 124.675 20.6985C124.616 20.0772 124.057 19.5926 123.401 19.5926H120.368C119.569 19.5926 118.92 18.941 118.92 18.1416V16.2087C118.92 15.4093 119.569 14.7577 120.368 14.7577H122.753C123.408 14.7577 123.967 14.2717 124.026 13.6518C124.061 13.3011 123.949 12.9656 123.715 12.7074C123.483 12.4506 123.153 12.3043 122.808 12.3043H120.374C119.542 12.3043 118.92 11.4262 118.92 10.6406V8.96041C118.92 8.15689 119.572 7.50385 120.374 7.50385Z" fill="#141613"/>
<path d="M135.21 21.1321H132.977C132.055 21.1321 131.306 20.3811 131.306 19.4574V6.3332C131.306 5.98804 131.16 5.65807 130.904 5.42613C130.676 5.21765 130.388 5.1072 130.082 5.1072C130.042 5.1072 130.002 5.10858 129.96 5.11134C129.341 5.17071 128.858 5.73125 128.858 6.38842V22.3595C128.858 23.0346 129.406 23.5855 130.081 23.5855H135.266C135.61 23.5855 135.939 23.4392 136.171 23.1837C136.406 22.9256 136.517 22.5901 136.484 22.238C136.426 21.6181 135.866 21.1321 135.21 21.1321Z" fill="#141613"/>
<path d="M146.763 22.9509H144.531C143.609 22.9509 142.858 22.1998 142.858 21.2748V6.28117C142.858 5.93601 142.714 5.60604 142.457 5.3741C142.23 5.16562 141.942 5.05517 141.635 5.05517C141.596 5.05517 141.555 5.05655 141.514 5.0607C140.895 5.11868 140.411 5.6806 140.411 6.3364V24.1769C140.411 24.8534 140.96 25.4042 141.635 25.4042H146.819C147.162 25.4042 147.493 25.2579 147.725 25.0025C147.96 24.7429 148.07 24.4074 148.037 24.0567C147.979 23.4368 147.419 22.9509 146.763 22.9509Z" fill="#141613"/>
<path d="M172.966 13.3687C172.75 14.6831 172.208 16.333 170.859 16.7375C170.678 16.7913 170.445 16.801 170.249 16.801C170.19 16.801 170.135 16.7996 170.084 16.7996C170.037 16.7982 169.993 16.7982 169.958 16.7982H169.95C169.597 16.7982 169.275 16.656 168.993 16.3758C168.466 15.8511 168.229 14.9965 168.229 14.3821V9.13989C168.229 8.58349 168.419 8.08371 168.75 7.76754C169.03 7.50246 169.392 7.37545 169.805 7.39478L169.85 7.39754C170.005 7.40444 170.326 7.41963 170.47 7.4431C171.88 7.65985 172.682 8.48961 172.921 9.98069C173.151 11.4248 173.162 12.1856 172.966 13.3687ZM173.339 20.588C173.065 19.6092 173.324 18.5378 174.028 17.7246C174.085 17.657 174.143 17.5893 174.195 17.5175C176.247 14.6693 175.886 8.65805 174.129 6.41729C172.367 4.17101 167.702 4.9055 166.784 5.07532C166.118 5.1982 165.782 5.8319 165.782 6.95573V29.3909C165.782 30.2262 166.174 30.7246 166.886 30.7923C167.237 30.8268 167.571 30.7136 167.828 30.4802C168.083 30.2483 168.229 29.9156 168.229 29.5704V20.5867C168.229 19.9309 168.762 19.3966 169.418 19.3952L169.531 19.3938C169.537 19.3938 169.542 19.3938 169.548 19.3938C170.088 19.3938 170.563 19.75 170.706 20.2664L173.459 29.9004C173.607 30.4292 174.09 30.7992 174.639 30.7992C174.812 30.7992 174.983 30.7619 175.144 30.6887C175.69 30.4443 175.974 29.7996 175.804 29.1907L173.339 20.588Z" fill="#141613"/>
<path d="M157.54 18.6654C157.32 18.9388 156.992 19.0948 156.64 19.0948H156.403C156.055 19.0948 155.73 18.9415 155.506 18.6709C155.286 18.4031 155.198 18.0524 155.265 17.71L156.064 13.622C156.124 13.3141 156.333 13.176 156.509 13.176C156.514 13.176 156.516 13.176 156.52 13.176C156.679 13.1815 156.88 13.3017 156.919 13.6233L157.774 17.6948C157.847 18.0386 157.762 18.392 157.54 18.6654ZM157.518 6.01471C157.395 5.45693 156.894 5.05517 156.325 5.05517H156.314C155.741 5.05931 155.241 5.47074 155.125 6.03404L150.997 25.9827C150.927 26.3196 151.004 26.673 151.206 26.9519C151.413 27.2363 151.718 27.4117 152.068 27.4503C152.686 27.5194 153.273 27.0651 153.407 26.4231L154.249 22.6996C154.384 22.1032 154.904 21.6862 155.515 21.6848L157.583 21.6793H157.586C158.203 21.6793 158.739 22.1183 158.861 22.7244L159.629 26.5074C159.75 27.0637 160.254 27.4669 160.822 27.4669C160.91 27.4669 161.001 27.4572 161.088 27.4379C161.748 27.2915 162.164 26.6344 162.018 25.9731L157.518 6.01471Z" fill="#141613"/>
<path d="M107.59 7.4681C109.625 7.4681 109.782 8.8363 109.782 9.25463C109.782 9.91595 110.265 10.3771 110.955 10.3771C111.612 10.3771 112.127 9.83864 112.127 9.15108C112.127 6.32908 110.685 5.01473 107.59 5.01473C104.781 5.01473 103.104 6.59969 103.104 9.25463V16.895C103.104 19.5486 104.781 21.1335 107.59 21.1335C110.685 21.1335 112.127 19.8192 112.127 16.9972C112.127 16.3096 111.612 15.7712 110.955 15.7712C110.265 15.7712 109.782 16.2323 109.782 16.8936C109.782 17.5108 109.325 18.6802 107.59 18.6802C105.905 18.6802 105.553 17.3134 105.553 16.1674V9.98222C105.553 8.83492 105.905 7.4681 107.59 7.4681Z" fill="#141613"/>
<path d="M177.973 6.44875C177.986 6.41976 177.986 6.38525 177.986 6.34935C177.986 6.30655 177.973 6.27894 177.951 6.24994C177.937 6.22924 177.916 6.20853 177.901 6.19472C177.866 6.15882 177.817 6.13811 177.769 6.13811C177.74 6.13811 177.704 6.13811 177.675 6.14502C177.612 6.15882 177.555 6.22233 177.555 6.28584V6.47775C177.555 6.51226 177.577 6.53435 177.605 6.55506C177.675 6.61167 177.76 6.61167 177.844 6.58406C177.916 6.56197 177.951 6.51917 177.973 6.44875ZM178.24 6.34245V6.37144C178.233 6.46256 178.219 6.55506 178.171 6.63238C178.156 6.66137 178.142 6.68208 178.12 6.71107C178.092 6.76078 178.092 6.81048 178.106 6.8588C178.12 6.9016 178.149 6.9513 178.171 6.9941C178.19 7.03552 178.212 7.07142 178.233 7.11422C178.24 7.13493 178.24 7.15702 178.233 7.17082C178.212 7.25504 178.149 7.29094 178.058 7.27023C178.036 7.26194 178.014 7.24814 178.002 7.22052C177.986 7.19843 177.973 7.17082 177.957 7.14183C177.93 7.08522 177.909 7.02862 177.887 6.97892C177.873 6.9513 177.86 6.92369 177.831 6.9085C177.781 6.86708 177.731 6.8588 177.675 6.88779C177.605 6.91541 177.57 6.97892 177.562 7.05071C177.555 7.08522 177.555 7.12112 177.555 7.15702C177.548 7.22743 177.478 7.29094 177.393 7.27023C177.351 7.25504 177.322 7.22743 177.315 7.18463C177.308 7.16392 177.308 7.14183 177.308 7.12112C177.308 7.05761 177.308 6.9941 177.302 6.92369C177.288 6.88779 177.295 6.84499 177.302 6.8022C177.308 6.76078 177.315 6.71798 177.315 6.66827C177.308 6.54816 177.315 6.42805 177.315 6.30655C177.315 6.22923 177.308 6.14502 177.308 6.0677C177.308 6.03871 177.308 6.00281 177.315 5.9752C177.315 5.9393 177.351 5.89788 177.386 5.8896C177.415 5.8827 177.435 5.87579 177.464 5.87579H177.584C177.668 5.86889 177.754 5.8827 177.838 5.89788C178.043 5.9255 178.163 6.05251 178.219 6.23614C178.227 6.27203 178.233 6.30655 178.24 6.34245ZM178.863 6.9513C178.875 6.92369 178.883 6.88779 178.897 6.8519C178.897 6.83119 178.897 6.80219 178.904 6.78149C178.94 6.68898 178.925 6.59786 178.925 6.50536C178.925 6.44185 178.89 6.37834 178.89 6.31483C178.863 6.19472 178.819 6.08151 178.762 5.9752C178.762 5.9683 178.755 5.96001 178.748 5.95449C178.63 5.79848 178.502 5.65628 178.332 5.56377C178.296 5.54997 178.269 5.52926 178.24 5.50717C178.212 5.50026 178.19 5.48646 178.171 5.47955C178.036 5.43814 177.909 5.40914 177.769 5.40914C177.555 5.40914 177.351 5.45194 177.168 5.57896C177.153 5.58586 177.132 5.59277 177.111 5.60657C177.076 5.62038 177.047 5.64937 177.019 5.67698C176.92 5.76258 176.843 5.85509 176.773 5.9683C176.764 5.9821 176.75 5.99591 176.737 6.0111C176.687 6.08841 176.651 6.15882 176.638 6.24994C176.624 6.30655 176.61 6.36316 176.595 6.42805C176.581 6.52745 176.588 6.62547 176.595 6.72488C176.638 6.92369 176.694 7.10731 176.814 7.27023C176.843 7.29784 176.857 7.33374 176.877 7.35445C176.934 7.41105 176.983 7.47456 177.062 7.51046C177.076 7.51736 177.089 7.53945 177.111 7.54497C177.189 7.61676 177.288 7.66647 177.393 7.68718C177.428 7.69408 177.471 7.70098 177.506 7.71479C177.591 7.75069 177.675 7.75759 177.76 7.75759C177.853 7.75759 177.937 7.73688 178.029 7.71479C178.106 7.69408 178.183 7.67337 178.255 7.63057C178.296 7.60986 178.346 7.58777 178.389 7.56016C178.488 7.49665 178.579 7.43176 178.642 7.33374C178.649 7.31855 178.664 7.30474 178.671 7.29784C178.721 7.24814 178.748 7.19153 178.777 7.13493C178.805 7.07142 178.841 7.01481 178.863 6.9513ZM179.264 6.75387C179.258 6.78839 179.258 6.82429 179.258 6.8588C179.251 6.91541 179.243 6.97201 179.222 7.02171C179.186 7.10041 179.166 7.18463 179.116 7.25504C179.109 7.26194 179.101 7.27713 179.101 7.28403C179.044 7.42624 178.947 7.53117 178.856 7.64438C178.841 7.65818 178.827 7.67337 178.812 7.68718C178.791 7.70098 178.77 7.71479 178.748 7.72998C178.649 7.82938 178.529 7.88599 178.409 7.94812C178.397 7.9564 178.382 7.9633 178.368 7.97021C178.312 8.013 178.247 8.02681 178.183 8.04752C178.099 8.07651 178.014 8.09032 177.916 8.09032C177.873 8.09032 177.831 8.09032 177.781 8.09722C177.769 8.10413 177.754 8.10413 177.74 8.10413C177.69 8.10413 177.641 8.10413 177.591 8.09032C177.442 8.06961 177.288 8.0558 177.153 7.97021C177.076 7.94259 176.998 7.89979 176.927 7.85699C176.87 7.82938 176.829 7.79349 176.786 7.74378C176.757 7.72169 176.73 7.69408 176.708 7.67337C176.603 7.58087 176.525 7.47456 176.453 7.35445C176.434 7.31855 176.412 7.28403 176.391 7.24814C176.369 7.22052 176.355 7.19153 176.348 7.15702C176.348 7.13493 176.348 7.12112 176.34 7.10731C176.271 6.9941 176.264 6.8588 176.235 6.73178C176.221 6.66137 176.235 6.59096 176.242 6.51917C176.242 6.49155 176.257 6.46256 176.249 6.42805C176.249 6.30655 176.278 6.20162 176.321 6.08841C176.362 5.9683 176.418 5.8468 176.49 5.73359C176.553 5.63557 176.638 5.54306 176.723 5.45885C176.779 5.40224 176.85 5.35944 176.913 5.30974C176.949 5.28903 176.99 5.26832 177.026 5.23933C177.04 5.23242 177.055 5.22552 177.069 5.21724L177.408 5.09022C177.442 5.08331 177.485 5.07641 177.528 5.07641C177.577 5.06951 177.627 5.06951 177.675 5.06261C177.747 5.0557 177.817 5.0557 177.887 5.06951C177.951 5.07641 178.021 5.08331 178.086 5.09712C178.134 5.10402 178.183 5.11231 178.227 5.13302C178.346 5.18272 178.473 5.23242 178.586 5.30283C178.678 5.35944 178.762 5.42295 178.847 5.50717C178.919 5.58586 178.981 5.66318 179.038 5.75568C179.082 5.833 179.13 5.90341 179.157 5.9821C179.195 6.0746 179.222 6.16573 179.243 6.25823C179.264 6.36316 179.286 6.47084 179.279 6.56197C179.279 6.63238 179.286 6.69727 179.264 6.75387Z" fill="#141613"/>
</g>
</svg>
