<svg fill="none" height="50" viewBox="0 0 186 50" width="186" xmlns="http://www.w3.org/2000/svg"><g fill="#f4f4f4" opacity=".86"><path d="m48.4451 33.7411c-.0158.0158-.0315.0316-.0473.0475-.0646.0632-.1435.0906-.2325.0949-.0689-.0058-.1378-.0115-.2067-.0273-.0789-.0173-.1464-.0317-.221-.0432-.1263-.023-.2426-.0762-.3588-.1179-.0689-.0273-.1363-.0532-.1995-.0964-.0474-.0374-.0947-.0647-.1378-.1064-.0459-.059-.0933-.1064-.1464-.1596-.0043.0057-.0043.0057 0 .0115-.0531-.0532-.1004-.1021-.1478-.1496-.0832-.0834-.1306-.1855-.1665-.2862-.0373-.0992-.0746-.2013-.1105-.2905-.0473-.1337-.0674-.2603-.0559-.3984.0057-.0474 0-.0949 0-.1467 0-.0532.0057-.1006.0014-.1596-.0101-.1064.0115-.2114.0488-.3106.0531-.1697.122-.3236.2282-.4602.0373-.0576.0847-.1165.122-.1741.0588-.0992.1334-.184.2239-.2631.0674-.0576.1478-.1151.221-.1697.0961-.0518.1909-.1036.2971-.1453.0516-.0216.1105-.0359.1693-.0518.0947-.0115.1837-.0273.2799-.0575.1377-.0431.2798-.046.4277-.0244.1306.0158.2583.0388.3903.0863.1148.0417.2368.0906.3516.1538.079.0475.1593.0964.2268.1654.0215.0216.0531.0432.0789.0691l.0632.0632c.0631.0647.1205.1338.1736.2086.0732.0949.1306.2056.178.3279.0732.1797.1033.3696.1134.5723 0 .0518-.0058.0993-.0058.1525 0 .0633-.0272.1208-.0631.1798-.0804.1323-.2713.1941-.4234.0934-.1105-.069-.1679-.1711-.1622-.302 0-.0848-.01-.1697-.0258-.2603-.0316-.1265-.0775-.2488-.1521-.3538-.0675-.1121-.1565-.2027-.2512-.2775-.1478-.1165-.3114-.1855-.5009-.2071-.0688-.0058-.1363-.0115-.2052-.0072-.1335.0057-.2698.0158-.3918.0618-.1005.0374-.1851.0906-.2641.1582-.0789.0576-.1478.1266-.2167.1942-.0746.0848-.1435.1639-.1909.2646-.0373.0777-.0703.1639-.076.2545-.0101.0518-.0158.0993-.0158.1525-.0172.0992-.0058.1956.0086.2963.0316.1797.099.3437.2153.4918.0201.0316.0416.0647.0732.0949.0574.059.1205.1021.1937.1453.0847.0417.1694.0834.2598.1121.1105.036.2253.059.3473.0533.0373.0057.0689.0057.1048.0115.0215.0115.0373.0172.0588.0259.099.0589.1737.1337.188.2545.0158.0906-.01.1798-.0689.2488z"/><path d="m50.9601 36.4658c-.0387.1036-.1133.1582-.2152.1899-.0158.0057-.0259.0072-.0417.0143-.0272-.0028-.0473-.0014-.0645-.0043-.0747-.0043-.135-.0259-.1924-.0733-.0459-.0374-.0818-.0777-.1349-.0949-.0861-.0705-.1779-.1367-.254-.2201-.0244-.0287-.0574-.0589-.0861-.0819-.0976-.082-.1966-.164-.2985-.2488-.0115-.0101-.0244-.0202-.0402-.0231-.0445-.0273-.0847-.0618-.1148-.0963-.0058-.0144-.0187-.0245-.0287-.0345-.0531-.0432-.089-.1036-.1163-.164-.0459-.0963-.0502-.1984-.0115-.302.0158-.0546.0388-.0935.0732-.1352.0417-.0503.0847-.1021.1349-.138.0445-.0417.0804-.0993.1349-.141.0302-.0244.0589-.0575.0718-.0963.0029-.0159.0129-.0274.0215-.0403.1349-.1596.2727-.3265.4062-.489.0387-.0446.0818-.0863.099-.1409.0043-.0058.0086-.0115.0144-.0173.1148-.138.2239-.2689.3387-.4084.0086-.0115.0186-.023.0301-.0245.0244-.0172.0388-.0345.0531-.0517.1148-.1381.2282-.2762.3387-.4085.0187-.023.0273-.0445.0416-.0618.0618-.0863.122-.1711.1952-.2459.1034-.0892.2555-.0978.3732-.0288.0602.0086.0846.0604.122.1107.0057.0044.0071.0144.0172.0245.0301.0935.033.1826-.0058.2661-.01.0215-.0244.0388-.0387.056-.0517.0633-.1048.128-.1564.1913-.0718.0849-.1593.1683-.2096.2618-.0861.1049-.1607.2071-.2468.3106-.0287.0345-.0574.069-.0861.1136-.0173.0345-.0417.0619-.0704.0863-.0545.0417-.0875.092-.1306.1438-.043.0432-.0889.0719-.1205.1237-.0388.046-.0761.092-.1148.1381-.0144.0172-.0287.033-.0431.0618-.0129.0288-.0316.0503-.056.0805-.0531.0518-.0947.1151-.1148.1856-.0186.033-.0416.0719-.0531.1107-.0186.0446-.0287.092-.0359.1352-.0043.0172-.0014.0388-.0057.0546-.0215.0604-.0086.128.0129.1942.0201.0575.0589.1165.0947.1682.0058.0144.0287.0231.046.0374.1263.105.2468.2158.3789.3164.1191.0892.1449.256.0889.3955z"/><path d="m54.0463 38.9768c-.0574.0403-.1205.0791-.1894.0863-.0689.0043-.1349-.0043-.1952-.0489-.1406-.1007-.2798-.1999-.4205-.3006-.188-.1337-.3774-.2689-.5597-.3983-.0546-.0389-.1005-.0806-.1521-.1093-.0417-.0202-.0818-.0389-.112-.0619-.0818-.0661-.1478-.1424-.1866-.2416-.0244-.0561-.0459-.1165-.0502-.174-.0158-.0949.0014-.1841.0646-.2589.0474-.0676.089-.1395.1492-.197.0488-.0575.0919-.1179.135-.1783.01-.0115.0186-.0245.0258-.0374.0387-.0906.1062-.1726.1665-.2589.0732-.1035.1478-.2071.2253-.3164.178-.2502.3559-.5005.5396-.7464.0129-.0187.0302-.0417.0503-.0561.0071-.0129.0215-.0302.033-.0489.1133-.1596.2224-.3121.3301-.4631.043-.0618.0947-.1078.165-.1409.0545-.0259.1062-.0345.1564-.0273.0962.0057.1823.0402.2612.0963.1321.0849.2512.1784.3775.269.0373.0273.0804.0561.1162.0834.1766.1251.3474.2473.5181.3696.0905.0647.1751.1251.267.1913.0531.0273.0804.0647.1062.1222.0344.0777.033.1596.0072.2344-.0244.0734-.0675.1338-.1292.1827-.0919.0632-.1808.0719-.2842.0374-.0387-.0101-.0732-.0259-.1033-.0475-.0675-.0475-.1349-.0964-.2067-.1481-.0071-.0043-.0186-.013-.0358-.0158-.0402-.0187-.0833-.0504-.1149-.082-.0215-.0245-.0387-.0374-.0631-.0532-.0675-.0475-.1407-.1007-.2067-.1496-.0918-.0647-.1865-.0849-.2942-.0892-.0273 0-.0545-.0014-.0861.0043-.1363.0116-.221.0791-.2813.2028-.0072.023-.0187.0504-.023.0849-.0172.0877.0072.1697.0575.243.0502.0806.1205.1496.2066.2114.0302.0216.0603.0432.0904.0647.0976.0705.1866.1525.2655.2345.056.0503.0991.1179.1134.2013.0043.0216.0086.0518-.0028.082-.0244.0733-.0689.1337-.1421.174-.0976.059-.1995.0604-.3014.023-.033-.0057-.0632-.0259-.0876-.0431-.0373-.0274-.0789-.0576-.1148-.0834-.0316-.0216-.0574-.0489-.0961-.059-.0173-.0029-.0302-.0216-.0431-.0302-.0488-.036-.0976-.069-.1464-.1036-.1076-.0676-.2181-.0934-.343-.0719-.0531.0101-.0947.0159-.1392.0389-.0402.0187-.0689.0345-.0919.0647-.0631.0647-.1047.1366-.1392.2215-.0229.0848-.0186.1697.0216.2545.0416.0849.0947.151.1593.2143.076.0733.1664.128.2468.1956.0933.0388.1622.1064.2526.1625.0187.0115.0359.0244.0502.0446.0072.0144.0259.0273.0388.0359.0488.036.1033.0734.1579.1122.0301.023.0459.0518.066.0748.0086.0158.01.0259.0172.0403.0574.1136.0172.289-.0962.3825z"/><path d="m57.1984 39.6622c.0417.0173.0833.0058.1249-.0215.056-.036.0804-.0906.099-.1496.033-.128.0617-.2502.1048-.3811.0258-.0719.0115-.1337-.0043-.1942-.0187-.0273-.0431-.0431-.0732-.0532-.0646.0058-.1163.036-.1622.0691-.1349.0934-.2397.2128-.3559.3178-.0215.023-.0359.0475-.0388.082-.0014.0144 0 .0431.0029.0532.0072.0302.0115.0503.0172.0705.0115.0244.023.0503.0431.0604.033.0302.0646.0647.1033.0891.0445.0273.0904.036.1392.0575zm.5526 1.4727c-.0359.0734-.0861.1309-.1565.1755-.1047.0589-.2109.0474-.3143.0028-.0918-.0373-.142-.1121-.1751-.2013-.0143-.0503-.02-.0992-.0129-.1553.0129-.0633.0101-.1165 0-.174-.0028-.0374-.0028-.0806-.0071-.118-.0187-.0546-.0417-.1035-.0546-.1538-.0143-.036-.033-.0633-.0574-.0964-.0818-.1093-.1851-.197-.3086-.2531-.0602-.0288-.1191-.0475-.1822-.0575-.1206-.0302-.2985-.0403-.4105-.0115-.0273.0014-.0473.0057-.0703.0172-.0703.0288-.132.0604-.1952.0921-.0531.0302-.1177.0517-.1823.056-.0574.0101-.1263-.0057-.1765-.0359-.0201-.0115-.033-.0201-.0445-.0273-.0215-.0374-.0459-.0705-.0703-.1021-.0588-.105-.0632-.2129-.0086-.3193.0244-.0547.0574-.0964.0976-.1338.1062-.092.2081-.1869.3143-.2804.033-.0244.0646-.0489.1033-.069.1292-.0705.2397-.1697.3416-.2647.0717-.0791.1536-.1438.2354-.207.0358-.0302.0674-.0547.1004-.0806.0947-.0719.1852-.1496.2741-.2258.1421-.1064.2813-.2229.4205-.3394.0819-.0647.1608-.1395.2412-.2143.0789-.0733.1607-.1366.2396-.2114.0646-.0489.122-.1006.1823-.1596.033-.0259.0746-.0518.1263-.0647.1363-.0403.2569.0057.3487.1136.0618.0719.0775.1596.0646.256-.0158.069-.0358.1452-.0574.21-.0186.1193-.0488.2416-.0775.3624-.0229.1265-.0559.2545-.0717.384-.056.3408-.1292.6802-.2081 1.0167-.0259.1151-.0388.2373-.0646.3524l-.0833.4458c-.0229.1079-.0473.2244-.0674.3437-.0058.0403-.0158.0849-.033.128z"/><path d="m62.5614 40.6721c-.0832.1668-.1679.3336-.2511.5019-.023.046-.0402.0964-.0775.1366-.013.0101-.013.0274-.023.0475l-.2038.4084c-.0129.0259-.0345.0504-.0301.0763 0 .0172-.0173.033-.0244.0474-.1507.3006-.2971.5954-.445.8902-.0172.0331-.0401.0633-.0531.1065-.0114.0359-.0301.0776-.0516.1164l-.0531.1079c-.0158.0345-.033.0662-.0632.0935-.0272.0201-.0574.0474-.0875.0575-.0129.0101-.033.0158-.0459.0259-.0675.0173-.1421.0129-.2053.0072-.0559-.0201-.099-.0503-.1334-.1007-.0158-.0345-.0287-.0748-.0331-.1179-.01-.046-.01-.0978-.0186-.1438-.0144-.0906-.0301-.174-.0373-.2603-.0172-.1021-.023-.2057-.023-.3049.0043-.1079-.0057-.2229-.0258-.3322-.0072-.0202-.0101-.0302-.0172-.0504-.013-.0748-.0259-.1467-.0402-.22 0-.0503-.0158-.1021-.033-.1525-.033-.0819-.0861-.1423-.1708-.1768-.089-.0374-.1794-.0403-.2598.0201-.0502.0331-.0933.0705-.1134.1265-.0143.0259-.0272.0533-.0516.0835-.013.01-.0187.023-.0259.0374-.0875.174-.1751.348-.2612.522-.0229.046-.0603.0877-.0803.1266-.0833.0848-.1809.128-.2971.1107-.1206-.0273-.2038-.0935-.2483-.2071-.0129-.0417-.0187-.0949-.0129-.1424.0028-.0388.0172-.0834.0373-.1237.1335-.2675.2583-.5321.3918-.7996.0531-.1078.1177-.2171.1736-.3307l.0216-.0403c.0301-.0273.0387-.0633.0559-.0978.0244-.0288.0431-.0705.0575-.1136.02-.0389.0502-.0834.0574-.1309 0-.0158.0129-.0259.0186-.0388.0144-.0273.0273-.0547.0445-.0878.1607-.3207.3186-.6529.4794-.9736.0157-.0345.0373-.0561.0531-.0906.0445-.0705.1033-.1237.188-.1567.0387-.013.0803-.0101.1291-.0101.0144.0072.0374.0101.0546.0101.0201.01.0459.023.066.033.0847.0676.1162.1525.1234.2546.0201.1783.0402.3552.056.5393.0201.1956.0373.3797.056.5724.0244.1553.0875.2948.2009.4027.0201.0273.0531.0445.0689.0604.0445.0129.0875.01.1277.0129.056-.0115.1005-.0503.1378-.0892.043-.0359.076-.0704.099-.1164.0072-.0144.0144-.0288.0244-.0317.023-.0287.0402-.0633.0574-.0963.0459-.0935.0933-.187.1407-.2805.0229-.0474.0531-.092.0861-.1409.01-.0216.0244-.0475.0344-.0676.0431-.0863.1034-.1568.2067-.197.0502-.0159.1105-.0202.1708-.0058.0258.0129.0531.0259.0803.0403.1263.0633.1794.1912.1593.3307-.0028.0245-.0157.0518-.0258.0705-.0445.0877-.0918.164-.1349.2517z"/><path d="m65.6449 43.12c.0201.105-.0072.1913-.0933.2617-.0258.0202-.0574.0403-.089.059-.0531.0259-.109.0259-.1636.0043-.0861-.0287-.1707-.0561-.2511-.0978-.1421-.069-.2885-.1222-.4263-.1797-.0545-.0231-.1105-.0461-.165-.0705-.1177-.0489-.2339-.0978-.3574-.1496-.0961-.0403-.1952-.0748-.2884-.1222-.0488-.0202-.0862-.0274-.1278-.0446-.0344-.0144-.066-.036-.1004-.0503-.0589-.0331-.0876-.0777-.1091-.1439-.0172-.0719-.023-.1395.0143-.2056.0072-.0202.023-.0374.0388-.0561.0158-.0173.0373-.0316.056-.0575.0832-.0619.1693-.0748.2655-.0331.099.0331.1923.0805.2956.1237.0488.0201.1034.0431.1579.0676.056.0215.1062.0359.155.0719.0186.0158.0387.0259.0631.0273.0445.0101.0847.0273.1263.0446.1306.0546.2684.1136.4048.1711.0487.0202.1047.0446.1535.0806.0201.0086.0416.0172.0617.0273.0775.0057.1493.046.2254.0776.0258.0187.0559.0403.0875.0604.0115.013.0215.0259.0301.0446.0115.0302.0273.0532.0359.0892z"/><path d="m69.6877 45.8979c-.0072.0216-.0144.0418-.0215.0648-.0287.0848-.089.1438-.1665.1884-.0646.0244-.1292.0503-.1981.0676-.0775.0187-.1464.0359-.2167.0604-.1234.0359-.2511.0402-.3746.0532-.0717.0072-.1464.0144-.221.0043-.0588-.013-.1134-.0158-.1708-.036-.0674-.0302-.1306-.0532-.2023-.0762-.0029.0058-.0029.0058.0043.0086-.0704-.023-.1335-.046-.1967-.0661-.1148-.0403-.2009-.1093-.2784-.1812-.0775-.0748-.155-.1496-.2282-.2143-.1004-.0964-.1765-.2028-.2267-.3293-.0158-.0461-.0431-.0863-.066-.1338-.023-.0475-.0388-.0935-.0689-.1424-.0574-.0906-.0847-.1956-.0948-.302-.0272-.1754-.0344-.3423 0-.5134.0072-.0676.0244-.1424.0331-.2114.0071-.1151.0358-.2244.0818-.3351.0358-.082.0818-.1697.1248-.2502.0617-.0878.1234-.1784.1995-.2632.0388-.0432.0832-.082.1292-.1223.0803-.0517.1535-.1064.2253-.1769.1048-.0978.2296-.1668.3731-.2128.1249-.0432.2469-.082.3875-.0964.1235-.0129.2526-.0244.3847-.0187.0933.0072.1851.0159.277.0461.0287.01.066.0158.1004.0273.0287.0101.0574.0187.0847.0287.0861.0288.1679.0648.2483.1079.1076.0532.2095.1266.3057.2157.1464.1295.2583.2848.3559.4617.023.046.0402.0935.0632.1395.0287.0575.0301.1222.0229.1898-.0129.1539-.1564.2948-.3387.2718-.1292-.0129-.2253-.0776-.2784-.1984-.0373-.0748-.0847-.1467-.1392-.2201-.0833-.0992-.1809-.1884-.2928-.2516-.1105-.0691-.2311-.1093-.3488-.1338-.1851-.0388-.3616-.0288-.541.036-.0646.0273-.1292.0517-.188.0877-.1163.0618-.2354.1323-.3229.2301-.0747.0762-.1263.1611-.1665.2574-.0459.0892-.0775.1798-.1091.2733-.0287.1078-.056.2099-.0531.3207.0014.0877.0101.1769.0459.2617.0129.0518.0287.0964.0531.1453.0302.0963.0804.1769.1392.2603.1077.1481.2426.2646.4119.3466.0331.0187.0661.0374.1077.0532.0775.0259.1535.0359.2397.0403.0947.0014.188.0014.2798-.0144.1163-.0158.2311-.0475.3373-.1065.0359-.0115.0631-.0258.099-.0373.0244.0014.0402-.0015.0646-.0015.1148.0072.2138.0417.2813.1438.0545.0734.0703.1654.0488.2531z"/><path d="m72.7815 44.5554c-.0904-.0086-.178-.0014-.2569.0388-.0703.0288-.1206.0762-.1622.1424-.0373.0518-.0588.1079-.0847.1711-.0186.0719-.0358.1381-.0559.21-.0101.0432-.023.0863-.0359.1366-.0029.0389-.0029.0691-.0043.1079-.0072.0518-.0043.0992.0387.1409.023.0302.046.059.0689.0892.0402.0489.0833.0906.1392.1136.0072.0029.0129.0115.0201.0144.0718.0173.1364.036.2009.0532.0718.0187.155.0259.2254.0216.1521-.0202.2712-.0892.3717-.2014.0545-.0632.0918-.1467.1134-.2257.0387-.1137.0387-.2302-.0015-.3409-.0315-.1165-.089-.2172-.1665-.3006-.0516-.0676-.1176-.1078-.1951-.138-.0718-.0173-.1378-.036-.2153-.0331zm.6128 1.8121c-.0574.1006-.0861.2085-.0703.3207.0186.161.0545.3164.099.4688.0172.0503.0273.0992.0445.151.0072.0331.01.0806.0144.1194-.0144.0575-.0302.115-.0661.1596-.0732.105-.1708.1482-.2942.1467-.1306.0029-.2841-.115-.3143-.2632-.0258-.0834-.0416-.1654-.0445-.2445-.0057-.0632-.0215-.1208-.0359-.1797-.0114-.0719-.0143-.1496-.0244-.2301-.0014-.0777-.0272-.1539-.0717-.2201-.0718-.1035-.1708-.1697-.2985-.1812-.0603-.0086-.1235-.0014-.1837.0216-.1292.0503-.2282.1309-.2985.2517-.0216.0489-.0402.0906-.0532.1409-.0057.0216-.0114.0432-.0243.0633-.013.0201-.0101.0345-.0158.0575-.0115.0432-.023.0863-.033.1223-.0819.1337-.1909.197-.3373.1956-.0302-.0072-.066-.0173-.1091-.0288-.0258-.0158-.0517-.0374-.0689-.0575-.0933-.0863-.1263-.1971-.1019-.3136 0-.0302.0058-.0532.0115-.0733.0273-.1021.0531-.1956.0789-.2963.0158-.0575.0374-.1064.0374-.1682.0287-.1079.0459-.2273.0889-.3322.0058-.0216.0187-.0403.0302-.0532.0143-.0274.0301-.0547.0373-.0835.0072-.0517.0215-.1107.043-.1582.0115-.0431.0087-.092.0201-.1337.0273-.1007.046-.2057.0732-.3063.0273-.1007.0617-.1985.0861-.2934.0072-.0288.0144-.0504.0287-.0777.0115-.0115.0173-.0345.0201-.0489l.168-.627c.0057-.023.0143-.0503.0057-.0762.0014-.0072.0072-.0302.0115-.0432.0129-.0503.0244-.0949.0373-.1452.0301-.1079.1033-.1812.2067-.2229.0631-.0302.122-.0216.1822-.013.0574.0158.1163.023.1651.0432.0904.0402.1851.0575.277.0906.0933.0244.1808.0474.2741.0733.0359.0086.0789.0216.1134.0388.0272.0144.0473.0202.0775.0274.1162.0244.2167.0819.3143.1538.0258.0159.0459.0274.0703.0504.1306.0891.2311.21.31.3451.1033.1913.1507.3898.1564.5997-.0014.0935-.0086.1755-.0172.2661.0014.0547-.0201.1036-.033.1539-.0416.128-.089.2459-.1651.3581-.0775.1179-.1779.2301-.2927.3164-.0503.0402-.0919.0834-.1292.1352z"/><path d="m76.6918 47.1324c.0459.0015.0804-.023.1119-.0618.0402-.0532.046-.1122.0431-.174-.0115-.1323-.0244-.2575-.0273-.3941 0-.0776-.0344-.1294-.0689-.1826-.0272-.0216-.0559-.0274-.0875-.0259-.0574.0273-.0976.0719-.1292.1179-.0961.1338-.1564.2819-.2311.42-.0129.0273-.0186.056-.01.0891.0043.0158.0144.0403.0201.0504.0187.0258.0287.0431.0416.0618.0187.0173.0373.0374.0589.0417.043.0173.0832.0403.1277.0489.0517.0101.0976.0043.1507.0086zm1.0118 1.2052c-.0086.0834-.0388.1524-.0904.2186-.079.0906-.1823.1151-.2957.1064-.0976-.0029-.1708-.0575-.2325-.1294-.0287-.0446-.0502-.0877-.0631-.1438-.0086-.0619-.0302-.1122-.0574-.164-.0158-.0345-.0302-.0748-.046-.1078-.0373-.0475-.0746-.0849-.1033-.128-.0258-.0288-.0517-.0489-.0847-.0719-.1148-.0763-.2411-.1252-.376-.1381-.0674-.0058-.1292-.0029-.1923.0072-.1249.0129-.2942.0618-.3904.1265-.0258.0101-.043.0231-.0617.0403-.056.0504-.1048.1021-.1535.1525-.0388.046-.0933.0877-.1522.1136-.0516.0273-.122.0359-.1794.0244-.0229-.0029-.0373-.0072-.0516-.01-.033-.0302-.0661-.0518-.0991-.0734-.0904-.0805-.132-.1798-.1162-.2977.0057-.0604.0229-.1107.0488-.1596.0703-.1223.1335-.2459.2038-.3696.0229-.0345.0445-.0676.0746-.1007.0976-.1093.1708-.2402.2339-.3639.0417-.0977.0976-.1855.155-.2732.023-.0403.0445-.0748.0661-.1079.0674-.1021.1263-.2042.1851-.3063.099-.1481.1909-.3049.2842-.4602.0559-.0892.1062-.1855.155-.2833.0516-.0949.1076-.1841.1564-.2805.0445-.0675.0818-.1366.1191-.2128.023-.0331.0531-.0719.0976-.1021.1163-.082.2454-.0791.3674-.0086.0818.0474.1263.1251.1464.2214.0086.0691.0144.1467.0158.2172.023.1179.0344.243.0474.3682.02.1265.0315.2588.0588.3854.0603.3408.1048.686.1421 1.0283.0129.1179.043.2373.0559.3552.023.151.0474.2991.0689.4501.0158.1093.0302.2273.0517.3452.0072.0403.0129.0877.0115.1323"/><path d="m81.9203 45.9878c.0043.174-.0961.302-.2397.3495-.0488.023-.0933.0244-.1464.0173l-.4635-.0676c-.0818-.013-.1636-.0245-.244-.036-.0301-.0043-.0502-.0144-.0804-.0187-.0502-.023-.0947-.023-.1478-.0144-.1076.0072-.2024.0446-.2684.1338-.0115.0216-.0272.0331-.0459.0546-.0244.0647-.0258.1237-.0344.1841-.0043.0288-.0087.0662 0 .105.0143.1079.0803.1769.1779.2215.0517.0158.0962.0215.1478.0302.1177.0172.2282.0316.3459.0575.0732.0115.1378.0288.2038.0446.1091.0244.1751.0949.2052.197.0158.046.0158.0992.0087.151-.0144.0892-.0531.1597-.1149.2186-.0688.0575-.1463.0762-.2368.0705-.0516-.0072-.1033-.0144-.155-.023-.0287-.0043-.0645-.0173-.0961-.0058-.0158.0043-.0302-.0043-.0517-.0086-.0373-.0043-.0746-.0101-.1191-.0158-.0875-.0202-.1665.0043-.2469.0388-.1607.0676-.2741.1798-.3487.3337-.0431.0848-.0703.1711-.0847.2675-.0158.1567-.0459.312-.0689.4731.0015.046-.0129.0892-.0344.1323-.0603.1036-.1536.174-.2756.1855-.0158.0058-.0301.0044-.0445.0015-.0301-.0043-.0531-.0072-.0746-.0115-.0646-.0245-.1048-.0518-.1435-.0964-.0502-.0676-.0703-.1452-.0718-.2373.0015-.0144.0029-.0216.0058-.0359.0215-.095.0115-.1884.0244-.2762.0057-.0374.01-.0661.0158-.1035.0201-.1395.0401-.2819.0602-.4228.0302-.1985.0589-.3984.0876-.5983.0014-.0072.0029-.0216.0043-.0288.0301-.056.0316-.1164.0402-.1754.0258-.1769.0516-.3552.0775-.5321.0072-.0461.0201-.0892.0028-.128.0029-.0158.0058-.0374.0087-.0518.0129-.0892.0258-.1855.0401-.2819.0043-.0287.0072-.0518.0187-.0791.01-.0144.0129-.0374.0158-.0503.0072-.0532.0143-.105.0215-.1568.0144-.0949.0632-.1725.1321-.2301.0674-.0503.1406-.0848.2181-.0963.0517 0 .1134-.0058.165.0014.2871.0417.5756.0834.8626.1251l.5769.0849c.0732.01.1378.0287.2081.0676.0632.0316.1077.0848.1364.1481.0201.0259.0229.0575.0258.0877z"/><path d="m85.6239 46.4766c-.0559.1985-.2282.279-.3545.2747-.0602-.0057-.1191-.0086-.1794-.0014-.1363.0187-.2468.0834-.3315.1884-.0689.092-.1076.1927-.132.302-.0259.1179-.0287.2301-.0402.3495-.0144.0733-.0129.1495-.0187.2157-.0043.0446-.0172.0877-.0057.1352.0057.0144-.0029.0374-.0043.0518-.0101.1121-.0215.2301-.0316.3422-.0029.0288.0014.0604-.0158.0892-.0071.0058-.0028.0288-.0043.0446-.0028.0431-.0086.0963-.0129.1395-.0115.0532-.0086.0978-.0287.1481-.0086.023-.01.0446-.0129.0676-.0086.0949-.0172.1927-.0258.2891-.0072.082-.0144.1553-.023.2387-.0058.082-.0431.1525-.1091.2143-.056.0475-.1263.0705-.2009.0791-.023.0057-.0459.0029-.0675-.0058-.066-.0201-.1234-.0489-.155-.1121-.0057-.0087-.0272-.0173-.0344-.0245-.0517-.0877-.066-.1798-.0574-.2761.0416-.3725.076-.7421.1091-1.1146.0057-.0604.0114-.1265.0028-.1884-.0057-.0158.0015-.023.0029-.0374.0072-.0733.0144-.1481.0201-.2229-.0043-.0216.0115-.0431.0215-.0661-.0201-.0302-.01-.0604-.0072-.0892.0015-.0992.0187-.1942.0201-.2905.0058-.151-.0258-.2948-.0961-.43-.0718-.1108-.1708-.1798-.2942-.2215-.0144-.0086-.0373-.0029-.0517-.0043-.0373-.0043-.0746-.0072-.1119-.0101-.0962-.01-.1823-.0474-.2512-.1064 0-.0072-.0072-.0072-.0072-.0158-.1736-.2186-.0287-.4976.234-.5192.1119.0101.2382.023.3573.0331.0675-.0014.1249.0201.1866.0029.0072 0 .023.0014.0301.0028.1708.0159.3344.0288.498.0374.0287.0029.0589.0058.089 0 .0158.0015.0373.0043.0603.0058.1105.0115.2225.0216.333.0316.0086.0015.0157.0015.0157.0015.1306.0345.2656.0316.3919.0431.0531.0043.1033.023.1449.0503.1206.0863.1823.2273.1478.3581z"/><path d="m89.1103 49.6913c-.0259.0662-.0589.1324-.112.1741-.0545.0431-.1148.0704-.1894.0676l-.5153-.0216c-.231-.0101-.4635-.0173-.6874-.0273-.0675-.0029-.1263-.013-.1866-.0072-.0445.0057-.0904.0115-.1277.01-.1048-.0129-.2009-.0402-.287-.1035-.0517-.0316-.1019-.0705-.1378-.1179-.0646-.0691-.0991-.1539-.0876-.2503.0043-.082 0-.1654.0187-.2459.01-.0748.0129-.151.0158-.2258.0014-.0144.0014-.0288.0014-.0446-.0172-.0978-.0057-.2013-.0014-.3077.0043-.1266.01-.2532.0158-.3883.0129-.3064.0258-.6141.0445-.9205.0014-.0215.0028-.0517.0114-.0747 0-.0144.0015-.0374.0029-.0604.0072-.1928.0144-.3797.023-.5681.0028-.0748.0201-.141.0602-.2071.0316-.0518.0718-.0863.1163-.1079.0847-.0489.1751-.0676.2727-.0632.1564-.0015.3057.0129.4635.0186.0445.0029.0962.0044.1407.0058.2167.0101.4262.0187.6358.0259.1119.0043.2153.0086.3286.0144.0603-.0058.1034.0115.155.0431.0718.0489.1148.1165.1335.1927.0201.0762.0158.151-.0086.2244-.0416.105-.112.1611-.2182.1855-.0373.0144-.0746.0201-.1119.0187-.0818-.0029-.1636-.0072-.254-.0101-.0072-.0014-.023-.0014-.0373.0058-.046.0057-.0976.0029-.1421-.0058-.0302-.0086-.0531-.01-.0818-.0115-.0818-.0029-.1723-.0057-.2541-.0086-.1119-.0058-.2023.0273-.2956.0834-.023.0144-.0459.0288-.0689.0503-.1076.0863-.1421.1884-.1263.3251.0072.023.0129.0532.0273.0834.033.0834.099.138.1794.1726.089.0402.1851.0604.2899.0647.0373.0014.0746.0028.1119.0043.1191.0043.2383.0244.3488.0518.0746.01.1478.0431.2052.1049.0144.0173.0359.0389.0416.0705.0201.0748.0172.1496-.0229.2229-.0488.1021-.1349.1597-.2397.1856-.0302.0143-.0689.0129-.0976.0115-.0445-.0029-.0976-.0044-.1421-.0058-.0373-.0029-.0746-.0115-.1119.0029-.0158.0057-.0373-.0029-.0531-.0029-.0603-.0029-.1192-.0043-.1794-.0072-.1263.0015-.234.0417-.3273.1294-.0373.0346-.0688.0648-.0932.1079-.0244.036-.0402.0662-.0417.1021-.0186.0906-.0143.1726.0043.2632.0259.0834.0761.1524.1565.2013s.1607.0734.2497.0935c.1048.0187.2095.0158.3143.0273.0976-.0186.1938 0 .2985-.0014.023 0 .0445.0014.066.0086.0158.0087.0374.0087.0531.0101.0603.0029.1263.0058.1938.0072.0373.0029.066.0187.0962.0273.0143.0072.0215.0158.0373.023.109.0647.1693.233.1263.3739z"/><path d="m91.8222 49.2616c.0961-.0244.1937-.0632.2827-.1093.155-.092.2799-.2143.3818-.3638.0445-.0762.0803-.1525.109-.2258.0359-.0992.0574-.197.056-.3006-.0014-.0604-.0014-.128-.0029-.1956 0-.0302-.0014-.0589-.0086-.0963-.0158-.0532-.0244-.105-.0402-.1496-.0473-.1639-.1162-.3049-.2224-.4314-.0388-.0432-.0775-.095-.1292-.1324-.0603-.0517-.1277-.0949-.1966-.1466-.0761-.0432-.1579-.0806-.2483-.1079-.0674-.0144-.1335-.013-.2009-.013-.0086 0-.023 0-.0373.0087-.0976.0172-.1708.0762-.2297.1524-.0287.0446-.0588.0993-.0803.151-.0144.0604-.0201.1208-.0201.1726-.0058.0676-.0058.1352-.0043.2013.0086.0302.0158.0604.0172.0906.0014.1036.0029.2028.0043.3064.0086.105-.0043.2099-.0115.3149-.0129.082-.0115.1654-.0115.2546.0015.0072.0015.0144.0015.023v.023c.0229.036.0158.0734.0172.1107 0 .0374.0158.0734.0158.1194 0 .0302.0014.0676.0014.105.0015.0604.0101.1194.0546.1783.0157.0158.0387.0302.0617.0446.0215.0144.0445.0288.0674.0288.0517.0072.0976.0144.1493.0129.0746.0058.1492-.0172.2239-.0259zm1.4596-1.3691c.0028.1654-.0029.3222.0057.4875 0 .0518-.0043.1036-.0201.1496-.0201.1122-.0488.2186-.0919.3236-.0143.0446-.043.0892-.0717.1424-.0445.0748-.0962.151-.1392.2272-.1019.1582-.2354.2948-.3832.4099-.0732.0532-.1478.0906-.221.1308-.112.0461-.2153.0921-.3273.1381-.0818.0245-.1564.0403-.2382.0561-.1335.0244-.2756.0187-.4176.0216-.0302 0-.0675-.0072-.0976.0014-.0675.0014-.1263.0014-.1938.0029-.0445.023-.0818.0172-.1277.01-.089.0015-.1722-.0287-.2325-.0949-.0603-.0517-.099-.1179-.099-.1999-.0015-.046-.0015-.0834.0043-.1352-.0302-.0359-.023-.0747-.0015-.1121-.0157-.0302-.0157-.059-.0157-.0906-.0115-.1928-.0144-.3955-.0173-.5911 0-.1266.0043-.2546.0029-.3883-.0014-.0302.0057-.0518.0057-.082-.0086-.0302-.0086-.0676-.0086-.105-.0014-.0978-.0028-.1869-.0043-.2775 0-.0374-.0086-.0662.0058-.0964.0071-.0158 0-.0374-.0015-.0604.0043-.2546.0015-.5019-.0028-.755 0-.023 0-.0532.0057-.0763.0086-.023 0-.0445 0-.0675-.0014-.0748-.0029-.1482-.0029-.223.0043-.1351.0632-.2329.1823-.2876.0215-.0158.0517-.0158.0746-.0158.1565-.0029.3201-.0058.4779-.0072.0216 0 .0445-.0014.0675-.0014.0215 0 .0517 0 .0818.0071.0144.0072.0373.0058.0603.0058.0373 0 .0818-.0014.1191-.0014.1794.0129.3516.0474.5167.1121.188.0719.353.1669.498.315.0531.059.1134.1179.1736.1769.0617.059.1062.1251.1522.1927.0918.1323.1679.2732.2167.43.0229.0892.0473.1711.0559.2689.0072.0159.0087.0374.0087.059z"/><path d="m100.628 48.5706c.002.023.004.0446.007.0676.01.0892-.02.1668-.071.2416-.048.0503-.094.0992-.15.1438-.061.0532-.116.0964-.172.1467-.096.0863-.209.1438-.3142.2085-.0646.036-.1277.0734-.2009.0964-.0589.0144-.1091.0345-.1679.0403-.0761.0014-.1421.0086-.2167.0172 0 .0072 0 .0072.0086.0058-.0732.0086-.1407.0158-.2081.023-.1177.0129-.2254-.013-.3287-.0475-.1004-.033-.2009-.0676-.2956-.0949-.1321-.0446-.2454-.1078-.3445-.2042-.033-.0331-.0746-.059-.1148-.092-.0416-.0331-.0761-.0662-.1248-.0993-.0876-.0589-.1565-.1409-.2125-.233-.099-.1467-.175-.2962-.2167-.4659-.0215-.0647-.0373-.1395-.0588-.2028-.0416-.1093-.0617-.22-.0675-.3394-.0028-.0906.0015-.1898.0072-.279.0187-.1079.0373-.2157.0703-.325.0173-.0547.0402-.1093.0646-.164.0517-.082.0947-.1611.1306-.256.0531-.1337.1364-.2488.2469-.3509.0947-.092.1894-.1783.31-.2517.1062-.0647.2196-.1294.3415-.1812.0862-.0316.1737-.0632.2684-.0733.0316-.0029.0675-.0144.1048-.0187.0287-.0043.0588-.0072.089-.0101.089-.01.1779-.0129.2698-.0072.1205.0015.2425.0259.366.0648.1865.0546.354.151.519.2674.041.0331.074.0662.115.1007.051.0388.078.0964.101.1611.053.1452-.017.3336-.191.3912-.124.0431-.2369.0244-.3374-.0619-.066-.0517-.1378-.0978-.2167-.1423-.1191-.0547-.244-.0921-.3731-.1022-.1292-.0158-.2555-.0014-.3732.0259-.1823.0432-.3387.1266-.4736.2632-.0474.0503-.0933.0992-.1335.1568-.0775.1078-.1564.2214-.1966.3466-.033.1006-.0445.1999-.0402.3049-.0043.0977.0058.1941.0173.2919.02.1107.0373.2143.0861.3135.0387.0791.0846.1568.1507.2172.0344.0417.0688.0762.1105.1078.0674.0763.1492.128.2368.1784.1593.0877.3315.1366.5181.1395.0387.0028.076.0057.1205.0014.0818-.0086.155-.0331.234-.0633.0861-.0402.1722-.0791.2482-.1323.0991-.0647.1866-.1424.2601-.2402.027-.0258.046-.0488.074-.0762.02-.01.035-.0187.056-.0273.109-.0431.213-.0532.317.0086.079.0461.133.1208.151.21z"/><path d="m104.723 46.9541c-.011-.0661-.017-.1337-.048-.1898-.016-.0877-.069-.1697-.099-.256-.052-.0733-.104-.1553-.17-.22-.083-.0906-.188-.164-.297-.2201-.208-.1078-.42-.1467-.65-.1121-.043.0086-.087.0143-.132.023-.11.0201-.21.0604-.306.1222-.046.0331-.092.0705-.137.1093-.074.0662-.128.1366-.181.2229-.072.1122-.117.2416-.171.3653-.039.082-.052.1769-.043.2733.019.1035.037.2071.054.3106.018.0877.046.1582.082.2359.073.1538.18.2876.313.3926.072.0633.157.1165.238.1481.032.0101.059.0273.082.0374.086.0086.165.0259.243.0417.017.0043.04.0014.06-.0029.077.0015.154.0029.227-.0187.021-.0028.043-.0072.059-.01.06-.0029.116-.0274.173-.0461.204-.0834.372-.2186.504-.4012.033-.0374.056-.0719.079-.1208.04-.069.072-.151.095-.2315.048-.1525.046-.3035.025-.4531zm.573-.407c.035.1453.046.2963.072.443.008.0532.019.105.011.151-.001.0777-.004.1452-.014.2229 0 .0388-.009.0777-.016.1165-.014.0489-.029.0978-.043.1453-.013.0172-.024.0273-.037.0445.001.0072-.003.0245-.002.0374-.046.1237-.097.2546-.168.3739-.047.0763-.103.1482-.152.2172-.03.036-.061.0791-.093.1093-.042.0288-.073.0662-.113.0877-.074.0576-.164.1122-.244.1654-.102.0633-.21.1064-.315.1553-.091.0389-.193.0648-.297.0835-.066.0115-.126.0143-.188.01-.074.0058-.152-.0029-.229-.0115-.114-.0014-.216-.0216-.329-.0561-.063-.0187-.119-.0316-.184-.0575-.074-.0316-.149-.0647-.205-.1237-.03-.0331-.072-.0561-.105-.0791-.071-.0561-.148-.1035-.221-.1654-.053-.046-.099-.0906-.139-.151-.079-.0992-.151-.2028-.208-.3135-.037-.0834-.067-.1625-.096-.2416-.037-.0834-.052-.1654-.069-.2531-.006-.0374-.014-.082-.029-.1237-.011-.0216-.017-.0575-.014-.082.007-.046-.007-.0834-.013-.1121-.007-.082-.006-.1582-.004-.2345.013-.1467.04-.289.092-.4271.035-.0978.077-.197.129-.2891.076-.1366.168-.2588.277-.3696.14-.1481.302-.2675.483-.3609.117-.0662.239-.1108.363-.1338.022-.0029.036-.0057.058-.0173.02-.01.05-.0158.072-.0129.017.0058.024.0043.031.0029.154-.036.3-.0245.454-.013.046.0072.094.0144.14.0202.181.0359.352.0963.504.1898.035.0173.069.0432.103.059.076.0546.15.1179.216.1898.076.0863.15.1625.224.2402.056.0589.099.1208.132.1826.036.0705.077.1381.104.21.026.0561.045.1136.062.1711z"/><path d="m109.583 44.1438c.012.0216.02.0489.027.0791.039.151.076.3035.11.4645l.002.0072c.018.1654.083.325.11.4976 0 0 .003.0058.005.013.008.1208.051.233.08.3494 0 .0317.014.0576.02.0791.02.1036.065.1928.089.2862.029.0547.034.1079.049.1654l.067.2603c.012.0504.032.1007.03.1553-.005.0087.005.013.006.0202.036.1452.059.2934.111.4343.02.0489.036.1064.048.1654.018.0647.018.1265.009.1826-.039.1798-.258.3452-.481.1999-.071-.0431-.126-.1064-.14-.1956-.019-.0719-.038-.1438-.055-.2171-.01-.036-.019-.0719-.043-.1036-.011-.0129-.009-.0302-.014-.0517-.009-.0432-.023-.0935-.036-.1438-.007-.0302-.013-.0518-.013-.082.003-.0173-.003-.0389-.006-.0532-.03-.1237-.06-.2388-.089-.3553-.008-.0287-.023-.0546-.036-.0834-.034-.0676-.034-.0676-.097-.1064-.098-.0201-.161.0345-.211.1079-.039.0632-.059.1308-.073.197-.021.0431-.032.0935-.051.1366-.021.0662-.036.1323-.059.1927-.014.0647-.028.1295-.067.1856.001.0071-.004.0158-.011.0186-.112.1669-.3.1539-.411.082-.02-.0187-.046-.0359-.069-.0604-.054-.0633-.112-.1093-.172-.1639-.06-.0547-.129-.1136-.184-.1769-.03-.0302-.063-.0676-.099-.0906-.056-.0389-.112-.0475-.172-.0403-.009-.0057-.024-.0014-.03.0072-.022.0043-.033.0158-.046.0273-.024.0302-.04.0561-.043.0734-.007.0934.019.1639.037.2373.029.115.059.2315.088.3466.008.0374.007.0604.03.0862.01.013.016.0331.013.0504-.01.0244.007.0589.013.082.01.0733.036.1438.047.2186.009.0589.024.1251.032.184.008.036.004.0763-.002.1165-.006.0087-.008.0245-.011.0489-.02.036-.042.0734-.072.1036-.108.1265-.296.1366-.425.023-.059-.046-.09-.1079-.115-.1783-.013-.0504-.027-.1007-.041-.1582-.035-.1381-.071-.2848-.109-.4286-.108-.4271-.208-.8557-.319-1.2843-.016-.0647-.034-.138-.059-.2013-.003-.013-.006-.0273-.007-.036-.026-.0388-.037-.0834-.033-.1222-.007-.0288-.013-.0504-.019-.0734-.03-.1524-.076-.3034-.107-.4573-.012-.0748-.032-.1524-.043-.2272-.015-.0906.013-.1654.064-.233.023-.0288.058-.046.092-.0618.014-.0044.037-.0087.058-.0144.07-.0274.142-.0216.216-.0015.058.0159.119.0461.162.0964.023.0259.053.0561.078.0892.08.1107.181.1999.277.3077.063.069.125.1295.189.197.062.0619.131.1209.185.1841.074.0748.141.1266.223.1827.066.046.149.0704.232.0647.173-.0762.263-.2057.339-.3653.033-.0762.053-.151.078-.2359.041-.1395.079-.2962.119-.4372.031-.1236.059-.2545.09-.3782.013-.0417.017-.082.036-.1251.023-.0676.062-.1237.119-.1683.013-.0115.027-.0158.042-.0187.051-.0144.099-.033.152-.0388.043-.0115.086.0014.129.0201.07.0374.121.0849.167.1424z"/><path d="m114.101 42.7212c.015.0187.025.046.032.0762.051.1481.1.2963.145.4545l.003.0072c.03.1625.106.3192.147.4875 0 0 .002.0072.003.0144.018.1208.069.2286.108.3423.003.0302.019.056.026.0776.026.1021.077.187.107.279.035.0518.045.1036.062.1597.029.0862.058.1697.086.2559.017.0489.039.0964.042.1525-.004.0072.006.0129.007.0201.047.1424.082.2877.142.4257.023.046.043.1036.062.1597.021.0632.026.1251.021.1826-.025.1812-.234.361-.465.233-.076-.036-.135-.0949-.155-.1827-.024-.0704-.047-.1423-.071-.2128-.012-.0345-.023-.0719-.049-.1007-.012-.0129-.01-.0302-.017-.0503-.015-.0432-.031-.0921-.048-.1424-.008-.0288-.016-.0489-.018-.0805.002-.0159-.005-.0374-.01-.0518-.041-.1208-.077-.233-.117-.3466-.008-.0288-.024-.0547-.041-.0805-.038-.0676-.038-.0676-.104-.0993-.1-.0144-.159.0446-.203.1237-.032.0662-.049.1352-.059.2014-.016.0445-.023.0934-.039.138-.017.069-.026.1352-.045.197-.01.0662-.018.1324-.054.1913.001.0072-.003.0158-.009.0187-.1.1755-.288.1755-.404.1122-.021-.0173-.049-.0317-.072-.0561-.059-.059-.121-.1007-.184-.1496-.064-.0503-.138-.1035-.196-.1625-.035-.0302-.069-.0647-.107-.0834-.059-.0345-.115-.0403-.175-.0273-.008-.0058-.023 0-.028.0086-.022.0072-.032.0187-.045.0302-.022.0302-.036.0604-.039.0762.002.095.032.1625.056.2345.038.1136.075.2257.114.3394.011.0345.011.0589.035.0834.012.01.019.033.016.0489-.007.0259.013.0589.019.0805.017.0734.049.1409.065.2157.011.059.033.1223.045.1812.01.0346.008.0763.006.1165-.004.0087-.006.0259-.006.0489-.02.0374-.038.0762-.066.1079-.097.1352-.287.1596-.423.0546-.06-.0417-.098-.1006-.128-.1697-.015-.0489-.033-.0978-.051-.1553-.045-.1352-.092-.2776-.14-.4185-.14-.4171-.271-.8384-.411-1.2555-.022-.0647-.045-.1352-.074-.197-.005-.0144-.01-.0273-.013-.0345-.027-.0389-.041-.082-.038-.1208-.01-.0288-.018-.0504-.025-.072-.043-.151-.099-.2977-.14-.4487-.018-.0719-.043-.151-.061-.2243-.021-.0863 0-.1654.048-.2359.021-.0302.054-.0503.087-.069.013-.0057.035-.0129.056-.0201.069-.0302.139-.0302.216-.0159.058.013.122.0374.169.0849.024.0244.056.0518.083.0834.089.1036.197.1855.3.2848.069.0632.135.1208.202.1841.066.0575.14.1107.198.1697.079.069.15.1164.236.1668.069.0388.155.0589.237.046.166-.0877.247-.2244.311-.3883.029-.0791.042-.1553.06-.2416.031-.1424.056-.302.088-.4458.02-.1252.04-.2575.062-.3826.007-.0431.01-.0834.027-.128.016-.069.052-.128.105-.1769.013-.0129.027-.0172.041-.0215.049-.0159.096-.0403.148-.0504.042-.0129.085-.0043.129.0115.075.0317.128.0762.178.1309z"/><path d="m116.777 43.3419c.044.1108.089.2215.133.3322.063.1597.124.3121.187.4717.044.1108.086.2143.129.3251.023.0561.044.1107.059.1697.018.0647.041.1208.066.1826.024.0633.016.1223-.003.1783-.037.105-.108.1712-.207.2028-.054.023-.119.0245-.181.0087-.017-.0015-.034-.0029-.053-.0115-.018-.0087-.031-.0202-.05-.0274-.054-.0345-.09-.0848-.119-.1366l-.034-.0848c-.011-.0259-.021-.0547-.028-.0921.006-.0259-.013-.0503-.021-.0719-.032-.0992-.071-.197-.117-.2905-.03-.0777-.06-.1539-.09-.2287-.016-.0431-.026-.0877-.06-.1136l-.023-.0561c-.038-.0963-.078-.1927-.115-.2905-.014-.0345-.029-.0704-.036-.1064-.003-.0475-.019-.0892-.049-.1251-.014-.0345-.031-.0604-.046-.0935-.028-.0705-.051-.1323-.077-.1956-.016-.0403-.033-.0834-.04-.1194-.002-.0474-.026-.0877-.029-.1337l-.016-.0417c-.041-.1036-.09-.2057-.152-.3006l-.011-.0288c-.056-.138-.108-.2689-.163-.4084-.02-.0489-.028-.092-.027-.1496.017-.1366.096-.2401.221-.2905.078-.0302.149-.0273.227.0058.049.0216.103.0403.141.0892.015.0187.031.0431.043.0719.028.069.053.1308.07.1956.044.1524.109.2948.168.44.06.1539.118.2977.178.4516.017.0417.034.082.057.1223.035.0431.048.1006.068.1495z"/><path d="m119.728 40.5035c.051.2-.058.3553-.17.4157-.055.0259-.108.0489-.158.0891-.109.082-.174.1942-.194.3265-.014.1136.003.2215.036.3308.036.115.09.2128.139.3221.023.0705.062.1366.089.197.02.0403.032.0863.063.1194.015.0115.016.0331.023.0475.046.1021.096.2114.142.3135.013.0259.032.0518.032.0848-.004.0087.013.0274.019.0403.017.0403.04.0877.058.1294.015.0518.041.0878.049.1424.003.023.012.0446.022.0647.04.0878.08.1755.119.2647.036.0762.066.1423.1.2171.035.0762.039.1568.013.2416-.026.0705-.074.1251-.136.1697-.019.0173-.037.0259-.062.0288-.067.0144-.13.0201-.189-.0201-.01-.0044-.033-.0015-.043-.0058-.089-.0489-.147-.1222-.187-.21-.149-.3422-.304-.6831-.459-1.0225-.026-.0546-.053-.1165-.092-.1639-.014-.0101-.01-.0216-.016-.0346-.031-.069-.063-.1366-.093-.2042-.017-.0172-.013-.0446-.014-.0676-.033-.0172-.039-.0489-.052-.0747-.046-.0863-.081-.1769-.128-.2632-.069-.1323-.168-.2431-.296-.3236-.119-.0619-.238-.0719-.367-.046-.014 0-.033.0143-.046.0215-.034.0159-.069.0317-.102.0461-.089.0417-.182.0517-.272.0345-.003-.0072-.01-.0029-.012-.0101-.261-.1021-.274-.4185-.056-.5695.103-.046.218-.0978.326-.1481.059-.0345.119-.0461.164-.0921.007-.0014.021-.0086.028-.0115.155-.0719.304-.1409.451-.2171.027-.0115.054-.0231.079-.0432.013-.0057.033-.0158.054-.0259.101-.046.204-.092.305-.1395l.014-.0057c.132-.036.248-.105.363-.1582.047-.0216.101-.0302.151-.0288.148.0158.271.1064.305.2387z"/><path d="m123.62 38.3028c.019.0158.032.0417.046.0676.078.138.154.2747.226.4228l.003.0072c.06.1539.163.2934.234.4501 0 0 .002.0072.005.0144.04.1151.111.2114.17.3178.005.0288.027.0518.038.0705.043.0964.111.1711.157.2546.043.0445.062.0949.09.1481.043.0776.086.1553.131.2344.024.046.057.0877.069.1409-.003.0101.007.013.01.0202.073.1309.132.2689.218.3926.032.0417.06.0935.089.1467.033.0575.047.1179.054.174.008.1841-.163.3998-.414.3164-.081-.0245-.15-.0719-.187-.1524-.036-.0662-.072-.1309-.108-.1971-.018-.0331-.035-.0647-.067-.092-.014-.0086-.016-.0245-.026-.0446-.021-.0388-.047-.0863-.072-.1309-.014-.0259-.025-.046-.034-.0748 0-.0172-.01-.0373-.017-.0503-.062-.1107-.119-.2157-.178-.3193-.015-.0273-.036-.0503-.056-.0719-.05-.0575-.05-.0575-.121-.0791-.1.0043-.148.0734-.176.1597-.02.069-.025.1395-.022.2071-.008.046-.006.0963-.014.1452-.004.069-.002.1352-.009.1999.003.0662.006.1338-.017.1985.004.0072.001.0172-.006.0201-.066.1899-.251.2244-.377.1841-.025-.0129-.053-.0216-.082-.0417-.067-.046-.136-.0762-.208-.1151-.072-.0359-.154-.0762-.221-.1236-.039-.0216-.08-.0504-.121-.0619-.064-.023-.12-.0172-.176.0043-.01-.0028-.023.0044-.026.0144-.02.0115-.03.0259-.039.0374-.016.036-.024.0647-.023.082.018.092.059.1539.095.22.057.105.116.21.175.3135.017.0346.022.0561.049.0763.013.01.024.0273.026.0445-.003.0274.021.0561.033.0763.028.069.073.1308.102.1984.023.0576.054.1165.077.1726.017.0317.023.0719.027.1122-.002.0101-.001.0259.003.0503-.013.0403-.023.082-.046.1194-.07.1481-.251.2071-.404.1309-.068-.0317-.114-.0835-.157-.1453-.024-.0446-.05-.0906-.079-.1424-.069-.1251-.14-.256-.214-.3868-.212-.3869-.42-.7752-.633-1.1621-.033-.0589-.068-.1236-.107-.1783-.007-.0129-.014-.0259-.017-.0331-.035-.033-.058-.0704-.062-.1107-.016-.0273-.026-.046-.036-.0647-.07-.1424-.152-.2761-.222-.4156-.029-.0705-.069-.1424-.098-.2115-.037-.0805-.032-.1625.003-.2416.016-.033.043-.0575.073-.0819.013-.0072.032-.0187.052-.0302.061-.0418.132-.0547.208-.0547.06 0 .128.0144.182.0518.029.0201.066.0417.098.0661.106.0878.225.1496.346.2273.079.0503.153.0934.232.1438.076.0431.158.0848.227.1309.089.0532.166.0862.262.1193.075.0273.161.0302.24.0043.148-.1165.203-.2675.236-.4386.014-.0849.014-.1611.017-.2488.003-.1467 0-.3078.003-.4545-.002-.128-.008-.2617-.009-.3883.001-.0431-.003-.0834.004-.1308.003-.0691.028-.1338.072-.1927.009-.0144.023-.0216.036-.0288.046-.0245.087-.0575.136-.0762.04-.0216.084-.0202.129-.0115.079.0158.141.0503.198.0949z"/><path d="m128.677 38.8126c.019.069.03.1423.013.2085-.02.0661-.052.1237-.115.1668-.143.0935-.287.1899-.429.2848-.194.1294-.386.2574-.572.3825-.056.0374-.111.0647-.155.1036-.033.0302-.066.0618-.098.0819-.092.0533-.184.0878-.291.0878-.061.0043-.125.0014-.181-.0159-.094-.0172-.171-.0661-.218-.151-.045-.0676-.097-.1323-.131-.2099-.034-.0662-.076-.1295-.118-.1899l-.024-.0388c-.073-.069-.123-.1596-.182-.2474-.071-.1049-.141-.2114-.216-.3235-.169-.2546-.338-.5106-.502-.7695-.013-.0201-.03-.0445-.036-.0675-.007-.013-.02-.0317-.033-.0504-.107-.1625-.211-.3164-.314-.4731-.042-.0633-.068-.1266-.073-.2028-.003-.0604.007-.1122.031-.1568.04-.0891.102-.1567.184-.2114.126-.0935.255-.1697.385-.2574.037-.0245.08-.0532.117-.0777.181-.1208.356-.2373.53-.3538.093-.0618.181-.1208.273-.1826.045-.0388.093-.0518.152-.0561.087-.0043.162.0273.222.0777.059.0489.101.1121.124.1869.025.1079.004.1956-.066.2776-.025.0345-.051.0604-.082.082-.069.0446-.138.0906-.211.1409-.006.0043-.019.0115-.028.0259-.033.0331-.077.0604-.117.0805-.029.0101-.048.0216-.073.0389-.068.0445-.142.0949-.211.1409-.095.0618-.148.1424-.19.243-.01.0245-.021.0489-.026.0791-.038.1338-.004.2373.088.338.02.0144.042.0345.072.0518.076.0474.16.0546.245.0331.096-.0173.185-.0604.271-.118.032-.0201.063-.0417.095-.0632.099-.0648.207-.1194.311-.1626.067-.0345.147-.0517.23-.0345.02.0043.052.0101.073.0302.061.0504.102.1122.112.1956.02.1122-.014.2071-.084.2905-.018.0302-.048.0489-.074.0662-.037.0259-.081.0546-.117.0791-.03.0201-.068.0345-.089.069-.009.013-.032.0201-.045.0288-.049.0331-.099.0661-.148.0992-.103.0762-.163.1726-.189.2963-.012.0532-.019.0934-.013.1438.001.0431.006.0776.027.1078.038.0835.089.1482.157.21.072.0518.152.0777.245.0719.092-.0086.174-.0359.257-.0733.095-.0446.178-.1093.268-.1625.069-.0719.16-.1137.242-.1784.018-.0115.038-.0244.06-.0302.017-.0028.036-.0158.047-.0244.05-.0317.106-.069.162-.1064.031-.0216.065-.0245.094-.0346.017-.0028.027 0 .043-.0028.126-.013.274.0863.321.2258z"/><path d="m130.215 34.1639c.115.1467.231.2919.346.4386.033.0417.071.0777.091.128.005.0158.018.023.032.0417.093.1165.191.2402.281.3567.02.023.033.0518.058.0604.016.0072.023.0273.033.0402.206.2647.41.5221.614.7795.023.0302.04.0633.073.0935.03.0245.058.0604.085.0949.024.0302.052.0647.074.0935.023.0302.046.0604.058.0978.007.0316.019.0719.016.1021.003.0173 0 .0388.003.0532-.013.0676-.048.1338-.079.1884-.043.0417-.089.0691-.148.0791-.038 0-.079-.0043-.121-.0201-.046-.0115-.09-.0317-.138-.0432-.087-.0258-.17-.046-.251-.0776-.097-.0259-.193-.0647-.284-.1079-.096-.0474-.202-.0877-.31-.115-.021-.0029-.031-.0043-.052-.0072-.073-.0187-.144-.0374-.216-.0561-.046-.023-.098-.0288-.149-.0331-.091-.0057-.167.0158-.233.0777-.072.0661-.112.1467-.093.2445.01.0589.024.1136.067.1567.019.023.036.0475.053.0806.005.0172.013.0287.023.0388.121.1539.24.3049.36.4588.032.0402.054.0906.081.1265.04.1107.039.2157-.026.315-.076.0978-.171.1452-.291.1366-.043-.0058-.095-.0216-.134-.0475-.034-.0215-.067-.0503-.095-.0863-.185-.2344-.371-.4587-.556-.6917-.075-.0935-.147-.1985-.224-.2977-.01-.013-.02-.0245-.029-.0345-.011-.0403-.04-.0633-.063-.0935-.019-.0331-.046-.069-.08-.0992-.026-.036-.054-.082-.092-.1065-.016-.0072-.02-.0244-.029-.0359-.017-.023-.037-.0475-.06-.0762-.221-.2819-.454-.5638-.675-.8457-.024-.0287-.037-.0575-.059-.0863-.044-.069-.069-.1467-.063-.2358.006-.0417.025-.0762.046-.1223.012-.0086.026-.0287.033-.0431.016-.0144.04-.0331.058-.0475.096-.0474.185-.0417.281-.0043.169.059.337.1151.509.1784.184.0618.358.1251.541.1898.15.0446.302.0474.447-.0101.033-.0072.063-.0316.083-.0388.032-.0331.047-.0748.066-.1093.013-.0575-.003-.1122-.022-.1625-.015-.0547-.031-.0993-.063-.141-.01-.0115-.02-.023-.018-.033-.018-.0346-.041-.0633-.064-.0935-.064-.0806-.129-.1625-.195-.2459-.031-.0403-.059-.0849-.089-.1367-.014-.0187-.033-.0417-.046-.0589-.06-.0762-.099-.1611-.09-.2718.006-.0518.029-.1079.066-.1568.024-.0187.046-.0374.07-.0546.111-.0892.249-.0835.368-.0058.018.0129.037.036.051.0547.061.0762.109.1495.17.2272z"/><path d="m132.928 31.3831c.111.1726.058.3552-.03.4487-.043.0417-.086.082-.119.1337-.078.1137-.102.2402-.079.374.021.1107.073.2085.139.3005.07.0964.154.174.235.2618.046.0589.102.1078.148.1567.032.0317.056.0705.098.0921.016.0057.026.0273.036.0388.077.0805.159.1683.237.2502.02.0216.046.0389.056.0705-.002.0101.02.0216.028.0331.032.0316.068.0705.099.1021.03.0446.066.0719.091.1194.01.023.026.0388.041.0546.066.0705.132.1424.2.2129.056.0589.107.1136.165.174.056.0589.085.1352.087.2243-.001.0748-.03.1424-.074.2042-.012.0202-.027.036-.049.0461-.059.0359-.118.0604-.187.0417-.01 0-.031.01-.041.01-.099-.0187-.178-.069-.244-.1395-.251-.2775-.508-.5479-.764-.8211-.041-.0432-.087-.0921-.139-.1266-.016-.0058-.016-.0158-.024-.0259-.053-.0546-.104-.1093-.155-.1639-.022-.0101-.025-.0374-.035-.059-.037-.0058-.051-.0331-.073-.0561-.072-.0647-.133-.1395-.205-.2056-.108-.1036-.238-.1769-.385-.2129-.132-.0187-.248.0086-.361.0734-.016.0057-.028.0273-.039.0359-.026.0259-.053.0532-.081.0777-.07.0661-.156.1064-.246.1193-.005-.0057-.01 0-.016-.0057-.279-.0115-.392-.3078-.233-.5192.082-.0777.174-.1639.261-.2474.044-.0517.097-.0819.125-.1395.006-.0043.016-.0143.022-.0201.125-.1179.244-.2301.359-.348.021-.0216.044-.0432.06-.0676.01-.0101.027-.0259.044-.0417l.243-.2316c.006-.0057.011-.01.011-.01.112-.0748.201-.1798.293-.2661.039-.0374.086-.0618.135-.0762.144-.0316.29.0144.366.128z"/><path d="m134.767 30.0475c-.009-.0216-.029-.0374-.046-.0547-.023-.0201-.043-.0259-.069-.0287-.018-.0029-.039-.0015-.053 0-.036.0014-.07.0172-.095.0445-.011.0144-.028.0331-.038.0518-.023.0403-.016.0992.017.1309.033.0287.067.0604.1.0891.019.0173.04.0173.065.0116.063-.0101.103-.0547.129-.1137.022-.046.017-.0862-.01-.1308zm.072-.1927.014.0143c.045.0475.086.0978.105.1611.007.0216.013.0388.017.0633.012.0388.039.0618.07.0776.031.013.069.0216.102.0303.032.0086.062.0143.094.0244.014.0058.025.0158.03.0273.034.0504.021.1007-.033.1395-.013.0072-.03.0115-.052.0058-.019-.0029-.039-.0087-.062-.0144-.043-.0115-.083-.0273-.119-.0403-.021-.0057-.043-.0115-.064-.0028-.045.0057-.074.0287-.085.0719-.017.0503 0 .0992.033.1366.016.0201.033.0374.052.0546.034.036.034.105-.018.1381-.027.0158-.056.0173-.08.0014-.016-.0072-.027-.0158-.039-.0259-.033-.0316-.067-.0604-.107-.0906-.025-.01-.043-.033-.063-.0575-.018-.023-.038-.0474-.064-.0719-.067-.0532-.127-.1136-.19-.1711-.041-.036-.088-.0719-.13-.1093-.014-.0144-.033-.0302-.046-.0475-.017-.0172-.023-.0561-.01-.0776.009-.0173.016-.0331.029-.0475.022-.023.037-.0403.057-.0633.038-.0489.085-.0863.133-.1251.111-.0935.235-.0964.36-.0403.021.0144.043.0259.066.0389zm.614-.0389c-.007-.0215-.023-.0402-.036-.0661-.011-.0101-.024-.023-.033-.036-.033-.0633-.087-.0992-.135-.1424-.034-.0316-.084-.0417-.117-.0733-.078-.0417-.157-.0734-.24-.0935-.003-.0029-.01-.0029-.017-.0014-.138-.0115-.274-.0115-.402.0345-.026.0115-.049.0172-.075.0216-.017.0115-.034.0172-.047.023-.088.0517-.161.1064-.228.1797-.102.1122-.175.2402-.197.3984-.003.0115-.009.0245-.011.0432-.011.0258-.009.0532-.008.0819-.001.0921.01.1769.038.2675.004.0115.004.0259.005.0403.016.0633.038.115.078.1654.024.0345.047.069.073.1064.046.0547.101.0978.158.1409.123.0705.247.1295.39.1424.029-.0014.053.0087.075.0072.056-.0029.113.0015.169-.023.01-.0043.028-.0014.042-.0086.075-.0087.148-.0374.208-.0834.02-.0159.045-.0331.069-.0461.059-.0287.103-.069.142-.1136.043-.0474.073-.1035.105-.1625.027-.0518.053-.1021.063-.1596.009-.0317.021-.0691.027-.1036.013-.0834.023-.161.002-.2416-.005-.0115-.006-.0259-.006-.0331-.003-.0489-.019-.0906-.035-.1323-.021-.046-.034-.0906-.057-.1323zm.086-.3063c.016.0201.035.036.053.0532.027.0317.052.0619.069.0964.025.0561.059.1078.073.1668 0 .0072.005.0173.009.0201.047.0978.056.1999.07.302.002.0144.002.0288.003.0432l-.007.0546c.004.0978-.022.1899-.046.2819-.003.0115-.006.023-.009.0317-.004.0517-.027.092-.046.1351-.024.0576-.058.1093-.104.1611-.022.023-.04.046-.061.0748-.002.0115-.01.0187-.017.0259-.021.0259-.046.0518-.076.0719-.082.0676-.163.1424-.273.174-.051.0273-.11.0489-.166.0662-.04.0158-.08.0215-.126.0201-.025.0043-.053.0057-.075.0072-.098.0129-.191.0029-.287-.0173-.029-.0043-.057-.01-.086-.0158-.026-.0014-.047-.0086-.069-.0216-.011-.01-.019-.0172-.03-.0201-.092-.0158-.167-.0748-.247-.1222-.044-.0245-.073-.0662-.109-.1036-.014-.0144-.022-.0345-.045-.0474-.063-.0576-.104-.1223-.144-.1985-.044-.0791-.079-.1668-.107-.2574-.021-.0806-.028-.1697-.033-.2532-.004-.0575.007-.115.01-.1711.006-.0302.016-.0618.018-.0949.002-.0101.005-.0201.008-.0317.032-.0805.063-.161.093-.2387.015-.023.031-.0474.052-.0705.019-.0302.043-.056.063-.0862.029-.0403.063-.0763.104-.1079.033-.0302.071-.0647.109-.0906.027-.023.053-.046.086-.0575.082-.0417.168-.0849.258-.1108.075-.0215.148-.0359.233-.0402.074 0 .146.0028.221.0172.061.0144.122.0216.176.0432.065.0258.128.0532.185.0862.066.0389.131.0777.177.1266.037.0331.073.0604.093.0978z"/><path d="m101.165 16.0901-.007-.0058c-.269.1482-1.8344.9219-3.9011.4228-3.0483-.7377-3.9295-.3063-4.2596-.1438-.0287.0144-.0545.0259-.076.0345-.3129.1367-.554.3855-.6789.7033-.1263.3164-.1205.6644.0144.9779.2813.6472 1.0333.9435 1.6777.6645.0187-.0072.1607-.0461.432-.0734.5827-.0561 1.1367.1223 1.5514.5077.4578.4228.7133 1.0556.7004 1.7387-.0402 2.2709-.221 4.1822-2.1169 6.361-1.2213 1.4079-3.1603 2.2492-5.1824 2.2492-5.0303 0-8.0356-3.6371-8.0356-7.1533 0-8.2982 8.5938-8.6103 8.9598-8.6189.6918-.0144 1.2529-.5896 1.2501-1.2828-.0029-.6932-.5669-1.2642-1.2587-1.2728-.0115 0-1.2299-.0259-2.4427-.6011-1.5083-.7148-2.2417-1.91997-2.2417-3.68314 0-2.44486 1.7538-4.35905 3.9927-4.35905 3.7099 0 4.3859 2.65052 4.4504 2.95253.0732.36817.3014.68456.6287.86865.3272.18264.7175.2114 1.072.08053.587-.2186.9229-.87295.7851-1.523-.389-1.83221-2.2877-4.93430206-6.9362-4.93430206-3.6684 0-6.543 3.03738206-6.543 6.91464206 0 .83125.1219 1.61648.3631 2.33268.6171 1.83216.1306 3.82546-1.2415 5.07526-1.5457 1.4108-3.3884 3.9535-3.3884 8.0508 0 4.7718 3.9596 9.7089 10.5859 9.7089 2.7483 0 5.4063-1.1692 7.107-3.1265 2.4584-2.8289 2.7024-5.3787 2.7484-7.9587.0157-.942.7161-1.7632 1.6666-1.9516.808-.1597 1.606-.5738 2.032-1.0571.318-.3595.463-.6874.443-1.0038-.018-.2919-.183-.5767-.491-.8456-.775-.6817-1.626-.0748-1.66-.0489z"/><path d="m2.60485 10.376c0-1.69562.86542-2.55564 2.57328-2.55564.85968 0 2.30204.33222 2.30204 2.55564 0 .7047.5712 1.2785 1.27444 1.2785s1.27589-.5738 1.27589-1.2785c0-2.54413-1.50122-5.11123-4.85237-5.11123-3.11147 0-5.123593 2.00622-5.123593 5.11123 0 2.7713.777868 5.3959 4.573923 9.1998 1.92745 1.9315 3.12152 3.6558 3.12152 6.2833 0 2.4334-.88264 3.6673-2.62495 3.6673-1.24573 0-2.57471-.2847-2.57471-3.6788 0-.7047-.57264-1.2785-1.27444-1.2785-.703243 0-1.27588.5738-1.27588 1.2785 0 2.3269.665924 6.233 5.12503 6.233 3.19185 0 5.17527-2.3831 5.17527-6.2215 0-3.7032-1.86-6.0776-3.86782-8.091-3.53485-3.5408-3.82763-5.5168-3.82763-7.3921z"/><path d="m21.1305 7.77927c2.2618 0 2.4383 1.75742 2.4383 2.29673 0 .7033.5712 1.2771 1.2745 1.2771.7032 0 1.2759-.5738 1.2759-1.2771 0-2.337-1.5615-4.85233-4.9887-4.85233-3.0555 0-5.2743 2.10833-5.2743 5.01343v13.08c0 2.8561 2.17 5.0119 5.0504 5.0119 3.3856 0 5.158-2.5225 5.158-5.0119 0-.7047-.5712-1.2785-1.2759-1.2785-.7018 0-1.2744.5738-1.2744 1.2785 0 1.1318-.6831 2.4549-2.6077 2.4549-1.4725 0-2.5001-1.0096-2.5001-2.4549v-13.08c0-1.51584 1.0434-2.45783 2.724-2.45783z"/><path d="m39.8046 20.7261c0 1.2138-.986 2.2018-2.1973 2.2018h-.8625c-1.2113 0-2.1973-.988-2.1973-2.2018v-10.6826c0-1.21379.986-2.2018 2.1973-2.2018h.8625c1.2113 0 2.1973.98801 2.1973 2.2018zm-2.1973-15.44h-.8625c-2.6178 0-4.7461 2.13422-4.7461 4.7574v10.6826c0 2.6232 2.1283 4.7574 4.7461 4.7574h.8625c2.6178 0 4.7476-2.1342 4.7476-4.7574v-10.6826c0-2.62318-2.1298-4.7574-4.7476-4.7574"/><path d="m57.2594 5.17535c-.7032 0-1.2758.57383-1.2758 1.27852v12.13373c0 1.162-.9429 2.1069-2.1026 2.1069h-1.0505c-1.1597 0-2.1026-.9449-2.1026-2.1069v-12.13373c0-.70469-.5726-1.27852-1.2744-1.27852-.7033 0-1.2759.57383-1.2759 1.27852v12.13373c0 2.5714 2.0868 4.6625 4.6529 4.6625h1.0505c2.5661 0 4.6529-2.0911 4.6529-4.6625v-12.13373c0-.70469-.5712-1.27852-1.2745-1.27852z"/><path d="m74.4136 5.28779h-9.1923c-.6832 0-1.2659.50623-1.3276 1.15196-.0344.36529.0804.7162.3258.98514.2411.26605.5856.4185.9429.4185h1.6706c.9013 0 1.6332.73489 1.6332 1.63805v11.06656c0 .6846.5052 1.2685 1.151 1.3303.3646.0345.7133-.0819.9817-.3264.2655-.2416.4191-.5868.4191-.9463v-11.12416c0-.90316.7333-1.63805 1.6332-1.63805h1.7036c.6845 0 1.2658-.50623 1.3275-1.15196.0359-.36529-.0804-.71476-.3244-.9837-.2411-.26749-.5855-.41994-.9443-.41994z"/><path d="m124.639 7.81653h3.153c.684 0 1.266-.50623 1.328-1.15196.034-.36673-.082-.7162-.326-.98513-.241-.26606-.585-.4185-.944-.4185h-5.999c-.705 0-1.276.57382-1.276 1.27708v15.14948c0 .7033.571 1.2771 1.276 1.2771h5.999c.359 0 .703-.1524.944-.4185.244-.2704.36-.6198.326-.9851-.062-.6472-.644-1.152-1.328-1.152h-3.158c-.833 0-1.509-.6788-1.509-1.5115v-2.0134c0-.8327.676-1.5115 1.509-1.5115h2.484c.682 0 1.264-.5062 1.326-1.152.036-.3653-.08-.7147-.324-.9837-.241-.2675-.586-.4199-.945-.4199h-2.536c-.867 0-1.514-.9147-1.514-1.733v-1.75021c0-.83701.679-1.51726 1.514-1.51726z"/><path d="m140.094 22.0126h-2.326c-.96 0-1.741-.7823-1.741-1.7444v-13.67112c0-.35954-.152-.70326-.419-.94487-.237-.21716-.537-.33221-.855-.33221-.042 0-.084.00143-.128.00431-.645.06184-1.148.64573-1.148 1.33029v16.6366c0 .7032.571 1.277 1.274 1.277h5.401c.358 0 .701-.1524.943-.4185.245-.2689.36-.6184.325-.9851-.06-.6457-.643-1.152-1.326-1.152z"/><path d="m152.128 23.9071h-2.325c-.96 0-1.742-.7823-1.742-1.7459v-15.61835c0-.35954-.151-.70326-.418-.94487-.237-.21716-.537-.33221-.857-.33221-.04 0-.083.00144-.126.00575-.645.0604-1.148.64573-1.148 1.32885v18.58383c0 .7047.571 1.2785 1.274 1.2785h5.401c.357 0 .702-.1524.943-.4185.245-.2704.36-.6198.325-.9851-.06-.6458-.644-1.152-1.327-1.152z"/><path d="m179.423 13.9258c-.225 1.3691-.789 3.0877-2.194 3.5091-.19.0561-.432.0661-.636.0661-.062 0-.119-.0014-.172-.0014-.049-.0015-.095-.0015-.131-.0015h-.009c-.367 0-.703-.1481-.997-.44-.548-.5465-.795-1.4367-.795-2.0767v-5.46069c0-.57957.198-1.10018.542-1.42952.292-.27613.669-.40844 1.1-.3883l.046.00287c.162.00719.496.02301.645.04746 1.47.22579 2.305 1.09012 2.554 2.64328.239 1.5044.251 2.2968.047 3.5293zm.389 7.5201c-.286-1.0197-.016-2.1357.717-2.9828.059-.0704.12-.1409.174-.2157 2.137-2.9669 1.761-9.2286-.069-11.56273-1.835-2.33987-6.695-1.57477-7.651-1.39788-.693.12799-1.043.78811-1.043 1.95876v23.36995c0 .8701.408 1.3893 1.149 1.4598.366.0359.714-.082.982-.3251.266-.2416.418-.5882.418-.9477v-9.3581c0-.6831.555-1.2396 1.238-1.2411l.118-.0014h.017c.563 0 1.058.371 1.207.9089l2.868 10.0354c.153.5508.657.9363 1.228.9363.181 0 .359-.0389.527-.1151.568-.2545.864-.9262.687-1.5604z"/><path d="m163.354 19.4431c-.229.2848-.571.4473-.937.4473h-.247c-.363 0-.702-.1597-.934-.4415-.23-.279-.322-.6443-.251-1.001l.832-4.2584c.062-.3207.28-.4645.464-.4645h.011c.165.0058.375.1309.415.466l.891 4.2411c.076.3581-.013.7262-.244 1.011zm-.023-13.1778c-.127-.58101-.65-.99951-1.243-.99951h-.011c-.597.00431-1.118.43288-1.239 1.01965l-4.299 20.77986c-.074.3509.007.7191.218 1.0096.215.2963.532.4789.897.5192.644.0719 1.255-.4013 1.395-1.07l.877-3.8787c.14-.6213.683-1.0556 1.318-1.0571l2.155-.0057h.003c.643 0 1.201.4573 1.329 1.0887l.799 3.9405c.126.5796.652.9995 1.243.9995.092 0 .186-.01.277-.0302.687-.1524 1.121-.837.969-1.5259z"/><path d="m111.323 7.77926c2.12 0 2.284 1.42521 2.284 1.86097 0 .68887.502 1.16917 1.221 1.16917.685 0 1.221-.5608 1.221-1.27703 0-2.93959-1.502-4.30871-4.726-4.30871-2.926 0-4.673 1.651-4.673 4.41657v7.95877c0 2.7641 1.747 4.4151 4.673 4.4151 3.224 0 4.726-1.3691 4.726-4.3087 0-.7162-.536-1.2771-1.221-1.2771-.719 0-1.221.4804-1.221 1.1692 0 .6429-.477 1.861-2.284 1.861-1.755 0-2.122-1.4238-2.122-2.6174v-6.443c0-1.19507.367-2.61884 2.122-2.61884z"/><path d="m184.638 6.71749c.014-.0302.014-.06616.014-.10355 0-.04458-.014-.07334-.037-.10355-.014-.02157-.036-.04314-.052-.05752-.035-.03739-.087-.05897-.137-.05897-.03 0-.068 0-.098.00719-.066.01439-.125.08054-.125.1467v.1999c0 .03595.023.05896.052.08054.073.05896.162.05896.25.0302.074-.02301.11-.0676.133-.14094zm.279-.11074v.0302c-.008.09492-.022.19128-.072.27181-.016.0302-.03.05178-.053.08198-.029.05177-.029.10354-.015.15388.015.04458.045.09636.068.14094.02.04314.043.08053.064.12512.008.02157.008.04458 0 .05896-.021.08773-.087.12512-.182.10355-.023-.00863-.046-.02301-.059-.05177-.016-.02301-.03-.05178-.046-.08198-.028-.05896-.05-.11793-.073-.1697-.014-.02876-.029-.05753-.059-.07335-.051-.04314-.103-.05177-.162-.02157-.073.02876-.109.09492-.118.1697-.007.03596-.007.07335-.007.11074-.007.07335-.08.1395-.169.11793-.043-.01582-.073-.04458-.08-.08917-.008-.02157-.008-.04458-.008-.06615 0-.06616 0-.13231-.007-.20566-.014-.03739-.007-.08197 0-.12655.007-.04315.015-.08773.015-.13951-.008-.12512 0-.25023 0-.37679 0-.08054-.008-.16827-.008-.2488 0-.0302 0-.0676.008-.09636 0-.03739.037-.08054.073-.08916.03-.00719.051-.01439.082-.01439h.124c.088-.00719.177.0072.264.02301.214.02877.339.16108.398.35235.009.03739.014.07335.022.11074zm.648.63423c.013-.02877.022-.06616.036-.10355 0-.02157 0-.05177.007-.07335.038-.09635.022-.19127.022-.28763 0-.06615-.036-.13231-.036-.19846-.029-.12512-.075-.24305-.134-.35379 0-.00719-.007-.01582-.014-.02157-.123-.16251-.257-.31064-.433-.407-.038-.01438-.066-.03595-.096-.05896-.029-.00719-.052-.02157-.072-.02877-.141-.04314-.273-.07334-.419-.07334-.223 0-.435.04458-.626.17689-.016.00719-.037.01438-.059.02876-.037.01439-.067.04459-.096.07335-.103.08917-.184.18552-.257.30345-.009.01438-.023.02876-.037.04458-.052.08054-.089.15389-.104.2488-.014.05897-.028.11793-.044.18553-.014.10354-.007.20565 0 .3092.044.20709.103.39837.228.56807.03.02876.045.06615.066.08773.059.05896.111.12512.192.16251.015.00719.029.0302.052.03595.08.07479.184.12656.293.14813.037.00719.082.01438.118.02876.089.0374.176.04459.265.04459.096 0 .184-.02158.28-.04459.08-.02157.161-.04314.235-.08772.043-.02158.095-.04459.14-.07335.103-.06615.198-.13375.264-.23586.007-.01582.023-.0302.03-.03739.051-.05177.08-.11074.11-.1697.029-.06616.066-.12512.089-.19127m.418-.20566c-.006.03595-.006.07335-.006.1093-.007.05896-.016.11793-.037.1697-.037.08198-.059.1697-.111.24305-.007.00719-.015.02301-.015.0302-.059.14813-.161.25743-.256.37536-.016.01438-.03.0302-.046.04458-.021.01438-.043.02876-.066.04458-.103.10355-.228.16252-.353.22723-.013.00863-.029.01582-.043.02301-.059.04459-.126.05897-.192.08054-.088.0302-.177.04458-.279.04458-.044 0-.089 0-.14.00719-.013.00719-.029.00719-.043.00719-.052 0-.104 0-.155-.01438-.155-.02157-.316-.03595-.457-.12512-.08-.02876-.161-.07334-.235-.11793-.059-.02876-.102-.06615-.147-.11792-.03-.02301-.058-.05178-.081-.07335-.109-.09636-.191-.20709-.266-.33221-.02-.0374-.043-.07335-.064-.11074-.023-.02876-.038-.05897-.045-.09492 0-.02301 0-.03739-.009-.05177-.071-.11793-.079-.25887-.109-.39118-.014-.07335 0-.14669.008-.22148 0-.02876.015-.05896.007-.09491 0-.12656.03-.23586.074-.35379.043-.12512.102-.25168.177-.36961.066-.1021.153-.19846.242-.28619.059-.05896.132-.10354.198-.15532.038-.02157.081-.04314.118-.07334.014-.0072.03-.01439.045-.02301l.353-.13231c.036-.0072.08-.01439.125-.01439.051-.00719.103-.00719.153-.01438.075-.00719.148-.00719.221.00719.066.00719.139.01438.207.02877.05.00719.102.01582.148.03739.123.05177.255.10354.373.17689.096.05896.183.12512.272.21285.075.08197.14.16251.199.25887.045.08053.096.15388.124.23585.039.09636.068.19128.089.28763.022.1093.045.22148.038.3164 0 .07334.007.14094-.016.1999"/></g></svg>