<svg width="886" height="886" viewBox="0 0 886 886" fill="none" xmlns="http://www.w3.org/2000/svg">
<path d="M858.992 445.467C858.992 554.35 815.997 658.786 739.439 735.861C662.882 812.936 559.016 856.355 450.631 856.591C342.245 856.827 238.193 813.861 161.304 737.12C84.4145 660.379 40.9689 556.131 40.4991 447.249C40.0293 338.367 82.5737 233.745 158.798 156.337C235.022 78.9291 338.699 35.0584 447.083 34.3505C555.466 33.6426 659.703 76.1553 736.923 152.561C814.142 228.966 858.037 333.024 858.977 441.903" fill="#56070C"/>
<path d="M858.992 445.467C858.992 554.35 815.997 658.786 739.439 735.861C662.882 812.936 559.016 856.355 450.631 856.591C342.245 856.827 238.193 813.861 161.304 737.12C84.4145 660.379 40.9689 556.131 40.4991 447.249C40.0293 338.367 82.5737 233.745 158.798 156.337C235.022 78.9291 338.699 35.0584 447.083 34.3505C555.466 33.6426 659.703 76.1553 736.923 152.561C814.142 228.966 858.037 333.024 858.977 441.903" stroke="#56070C" stroke-width="4.13187" stroke-linecap="round" stroke-linejoin="round"/>
<path d="M439.433 447.789C439.433 425.607 434.166 404.151 424.056 385.73L421.659 381.371H271.627L269.28 385.73C259.195 404.125 253.902 425.607 253.902 447.789C253.902 504.374 288.552 551.255 333.512 559.013V691.148C307.574 692.238 288.252 696.337 288.252 701.188C288.252 706.948 314.589 711.566 347.092 711.566C379.62 711.566 406.007 706.948 406.007 701.188C406.007 696.337 386.685 692.238 360.747 691.148V558.909C405.258 550.659 439.433 503.959 439.433 447.789ZM346.643 542.901C304.654 542.901 270.453 500.249 270.453 447.737C270.453 430.251 274.223 413.361 281.437 398.547H411.873C419.063 413.361 422.882 430.277 422.882 447.737C422.907 500.275 388.657 542.901 346.643 542.901V542.901ZM598.278 235.745H532.299V176.281H598.278V235.745ZM598.278 309.427V254.036H532.299V309.453C504.439 322.503 484.968 351.613 484.968 385.496V439.798V612.925V714.654H645.585V612.925V439.798V385.496C645.61 351.613 626.188 322.503 598.278 309.427ZM631.405 630.723H500.57V467.585H631.405V630.723ZM415.967 449.579C415.967 449.579 412.497 535.845 347.766 535.845C283.035 535.845 274.298 449.579 274.298 449.579H415.967Z" fill="#F4F4F4"/>
</svg>
